<svg xmlns="http://www.w3.org/2000/svg" width="411" height="823" fill="none" viewBox="0 0 411 823"><path fill="#fff" d="M124.75 517.262V524.117H130.961V525.172H124.75V533H123.59V516.195H131.441V517.262H124.75ZM134.746 533V516.195H135.906V533H134.746ZM152.113 533L142.105 519.418C141.902 519.145 141.723 518.871 141.566 518.598L141.414 518.363H141.367C141.383 518.566 141.391 518.812 141.391 519.102V533H140.23V516.195H141.121L151.059 529.66C151.277 529.957 151.516 530.316 151.773 530.738H151.832C151.793 530.191 151.773 529.723 151.773 529.332V516.195H152.934V533H152.113ZM157.246 533V516.195H161.453C164.242 516.195 166.363 516.891 167.816 518.281C169.27 519.672 169.996 521.699 169.996 524.363C169.996 526.926 169.215 529.008 167.652 530.609C166.098 532.203 163.949 533 161.207 533H157.246ZM158.406 517.262V531.945H161.043C163.535 531.945 165.449 531.301 166.785 530.012C168.121 528.715 168.789 526.848 168.789 524.41C168.789 519.645 166.285 517.262 161.277 517.262H158.406ZM172.961 526.496V525.441H179.371V526.496H172.961ZM193.926 533L192.004 527.773H184.715L182.793 533H181.516L187.855 516.195H188.957L195.227 533H193.926ZM188.77 518.938C188.684 518.703 188.613 518.473 188.559 518.246C188.504 518.051 188.445 517.855 188.383 517.66H188.336C188.203 518.176 188.074 518.594 187.949 518.914L185.125 526.707H191.605L188.77 518.938ZM197.617 526.496V525.441H204.027V526.496H197.617ZM207.637 533V516.195H211.844C214.633 516.195 216.754 516.891 218.207 518.281C219.66 519.672 220.387 521.699 220.387 524.363C220.387 526.926 219.605 529.008 218.043 530.609C216.488 532.203 214.34 533 211.598 533H207.637ZM208.797 517.262V531.945H211.434C213.926 531.945 215.84 531.301 217.176 530.012C218.512 528.715 219.18 526.848 219.18 524.41C219.18 519.645 216.676 517.262 211.668 517.262H208.797ZM230.723 533.293C228.348 533.293 226.453 532.504 225.039 530.926C223.633 529.348 222.93 527.297 222.93 524.773C222.93 522.094 223.652 519.949 225.098 518.34C226.551 516.723 228.531 515.914 231.039 515.914C233.305 515.914 235.137 516.691 236.535 518.246C237.941 519.793 238.645 521.824 238.645 524.34C238.645 527.121 237.926 529.309 236.488 530.902C235.051 532.496 233.129 533.293 230.723 533.293ZM230.84 516.969C228.887 516.969 227.277 517.676 226.012 519.09C224.754 520.504 224.125 522.355 224.125 524.645C224.125 526.957 224.723 528.801 225.918 530.176C227.113 531.543 228.707 532.227 230.699 532.227C232.777 532.227 234.422 531.551 235.633 530.199C236.844 528.84 237.449 526.949 237.449 524.527C237.449 522.152 236.855 520.301 235.668 518.973C234.488 517.637 232.879 516.969 230.84 516.969ZM253.973 533L243.965 519.418C243.762 519.145 243.582 518.871 243.426 518.598L243.273 518.363H243.227C243.242 518.566 243.25 518.812 243.25 519.102V533H242.09V516.195H242.98L252.918 529.66C253.137 529.957 253.375 530.316 253.633 530.738H253.691C253.652 530.191 253.633 529.723 253.633 529.332V516.195H254.793V533H253.973ZM266.02 533.293C263.645 533.293 261.75 532.504 260.336 530.926C258.93 529.348 258.227 527.297 258.227 524.773C258.227 522.094 258.949 519.949 260.395 518.34C261.848 516.723 263.828 515.914 266.336 515.914C268.602 515.914 270.434 516.691 271.832 518.246C273.238 519.793 273.941 521.824 273.941 524.34C273.941 527.121 273.223 529.309 271.785 530.902C270.348 532.496 268.426 533.293 266.02 533.293ZM266.137 516.969C264.184 516.969 262.574 517.676 261.309 519.09C260.051 520.504 259.422 522.355 259.422 524.645C259.422 526.957 260.02 528.801 261.215 530.176C262.41 531.543 264.004 532.227 265.996 532.227C268.074 532.227 269.719 531.551 270.93 530.199C272.141 528.84 272.746 526.949 272.746 524.527C272.746 522.152 272.152 520.301 270.965 518.973C269.785 517.637 268.176 516.969 266.137 516.969ZM285.988 533L283.75 528.078C283.289 527.062 282.828 526.383 282.367 526.039C281.906 525.688 281.328 525.512 280.633 525.512H278.547V533H277.387V516.195H282.051C283.535 516.195 284.699 516.598 285.543 517.402C286.395 518.199 286.82 519.254 286.82 520.566C286.82 521.777 286.473 522.789 285.777 523.602C285.082 524.414 284.109 524.938 282.859 525.172V525.219C283.523 525.484 284.172 526.293 284.805 527.645L287.301 533H285.988ZM278.547 517.262V524.457H281.441C282.723 524.457 283.738 524.121 284.488 523.449C285.246 522.777 285.625 521.855 285.625 520.684C285.625 519.613 285.285 518.777 284.605 518.176C283.926 517.566 282.953 517.262 281.688 517.262H278.547Z"/><path fill="#fff" fill-rule="evenodd" d="M205.156 284C212.133 311.612 227.19 337.08 256.429 384.364H256.374C261.849 393.414 265 404.027 265 415.376C265 448.514 238.137 475.376 205 475.376C171.863 475.376 145 448.514 145 415.376C145 401.513 149.702 388.748 157.598 378.588C187.335 334.067 200.256 311.006 205.156 284ZM204.667 333C209.384 351.667 219.563 368.884 239.329 400.849H239.292C242.993 406.967 245.124 414.142 245.124 421.815C245.124 444.217 226.964 462.377 204.562 462.377C182.16 462.377 164 444.217 164 421.815C164 412.444 167.178 403.816 172.514 396.948C192.619 366.848 201.355 351.258 204.667 333Z" clip-rule="evenodd"/></svg>