<?xml version="1.0" encoding="iso-8859-1"?>
<!-- Generator: Adobe Illustrator 19.0.0, SVG Export Plug-In . SVG Version: 6.00 Build 0)  -->
<svg version="1.1" id="Layer_1" xmlns="http://www.w3.org/2000/svg" xmlns:xlink="http://www.w3.org/1999/xlink" x="0px" y="0px"
	 viewBox="0 0 512 512" style="enable-background:new 0 0 512 512;" xml:space="preserve">
<path style="fill:#FF7876;" d="M439.284,194.658c0,101.224-82.058,305.968-183.284,305.968S72.717,295.882,72.717,194.658
	S154.776,11.374,256.002,11.374S439.284,93.434,439.284,194.658z"/>
<circle style="fill:#FFFFFF;" cx="256.003" cy="194.659" r="119.183"/>
<g>
	<path style="fill:#58595B;" d="M256.002,0C148.667,0,61.344,87.324,61.344,194.658C61.344,298.402,144.917,512,256,512
		c111.135,0,194.656-213.72,194.656-317.342C450.658,87.324,363.334,0,256.002,0z M256.002,489.252
		c-91.262,0-171.909-195.695-171.909-294.594c-0.002-94.791,77.118-171.91,171.909-171.91S427.91,99.867,427.91,194.658
		C427.91,293.56,347.258,489.252,256.002,489.252z"/>
	<path style="fill:#58595B;" d="M256.002,64.095c-71.993,0-130.563,58.569-130.563,130.563S184.008,325.22,256.002,325.22
		s130.563-58.571,130.563-130.563C386.564,122.665,327.993,64.095,256.002,64.095z M256.002,302.473
		c-59.45,0-107.815-48.366-107.815-107.815S196.553,86.843,256.002,86.843s107.815,48.366,107.815,107.815
		S315.45,302.473,256.002,302.473z"/>
</g>
<path style="fill:#FF7876;" d="M317.592,170.256h-30.118c-3.907,0-7.073-3.166-7.073-7.073v-30.118c0-3.907-3.166-7.073-7.073-7.073
	h-34.658c-3.907,0-7.073,3.166-7.073,7.073v30.118c0,3.907-3.166,7.073-7.071,7.073h-30.118c-3.907,0-7.073,3.166-7.073,7.073
	v34.658c0,3.907,3.166,7.071,7.073,7.071h30.118c3.907,0,7.071,3.166,7.071,7.073v30.118c0,3.907,3.166,7.072,7.073,7.072h34.658
	c3.907,0,7.073-3.166,7.073-7.072v-30.118c0-3.907,3.166-7.073,7.073-7.073h30.118c3.907,0,7.071-3.166,7.071-7.071v-34.658
	C324.665,173.422,321.498,170.256,317.592,170.256z"/>
<g>
</g>
<g>
</g>
<g>
</g>
<g>
</g>
<g>
</g>
<g>
</g>
<g>
</g>
<g>
</g>
<g>
</g>
<g>
</g>
<g>
</g>
<g>
</g>
<g>
</g>
<g>
</g>
<g>
</g>
</svg>
