<svg width="282" height="76" viewBox="0 0 282 76" fill="none" xmlns="http://www.w3.org/2000/svg">
<path d="M17.2817 22.7192C16.7192 23.519 15.8359 24.1431 14.6318 24.5913C13.4365 25.0396 12.0962 25.2637 10.6108 25.2637C9.10791 25.2637 7.77197 24.9033 6.60303 24.1826C5.43408 23.4619 4.52881 22.4424 3.88721 21.124C3.24561 19.8057 2.92041 18.2939 2.91162 16.5889V14.1631C2.91162 11.5 3.58398 9.39941 4.92871 7.86133C6.27344 6.31445 8.07959 5.54102 10.3472 5.54102C12.3247 5.54102 13.9155 6.04639 15.1196 7.05713C16.3237 8.05908 17.04 9.44336 17.2686 11.21H15.647C15.4097 9.80371 14.834 8.74023 13.9199 8.01953C13.0146 7.29004 11.8281 6.92529 10.3604 6.92529C8.56738 6.92529 7.14795 7.5625 6.10205 8.83691C5.05615 10.1113 4.5332 11.9087 4.5332 14.229V16.4966C4.5332 17.9556 4.7793 19.2476 5.27148 20.3726C5.77246 21.4888 6.48438 22.3545 7.40723 22.9697C8.33887 23.585 9.40674 23.8926 10.6108 23.8926C12.0083 23.8926 13.208 23.6729 14.21 23.2334C14.8604 22.9434 15.3438 22.605 15.6602 22.2183V17.2612H10.5054V15.8901H17.2817V22.7192ZM23.8604 25H22.2388V5.80469H23.8604V25ZM34.8687 22.627L34.9741 23.0356L35.0928 22.627L41.1309 5.80469H42.9106L35.7651 25H34.2095L27.064 5.80469H28.8306L34.8687 22.627ZM56.3447 15.7979H47.3667V23.6289H57.6895V25H45.7451V5.80469H57.6235V7.18896H47.3667V14.4268H56.3447V15.7979ZM80.1807 7.18896H73.6021V25H71.9805V7.18896H65.415V5.80469H80.1807V7.18896ZM97.5171 25H95.8823V15.7979H84.9136V25H83.292V5.80469H84.9136V14.4268H95.8823V5.80469H97.5171V25ZM113.008 15.7979H104.03V23.6289H114.353V25H102.408V5.80469H114.287V7.18896H104.03V14.4268H113.008V15.7979ZM138.202 22.7192C137.639 23.519 136.756 24.1431 135.552 24.5913C134.356 25.0396 133.016 25.2637 131.531 25.2637C130.028 25.2637 128.692 24.9033 127.523 24.1826C126.354 23.4619 125.449 22.4424 124.807 21.124C124.166 19.8057 123.84 18.2939 123.832 16.5889V14.1631C123.832 11.5 124.504 9.39941 125.849 7.86133C127.193 6.31445 129 5.54102 131.267 5.54102C133.245 5.54102 134.835 6.04639 136.04 7.05713C137.244 8.05908 137.96 9.44336 138.188 11.21H136.567C136.33 9.80371 135.754 8.74023 134.84 8.01953C133.935 7.29004 132.748 6.92529 131.28 6.92529C129.487 6.92529 128.068 7.5625 127.022 8.83691C125.976 10.1113 125.453 11.9087 125.453 14.229V16.4966C125.453 17.9556 125.699 19.2476 126.191 20.3726C126.692 21.4888 127.404 22.3545 128.327 22.9697C129.259 23.585 130.327 23.8926 131.531 23.8926C132.928 23.8926 134.128 23.6729 135.13 23.2334C135.78 22.9434 136.264 22.605 136.58 22.2183V17.2612H131.425V15.8901H138.202V22.7192ZM144.78 25H143.159V5.80469H144.78V25ZM160.574 16.0352H151.623V25H150.001V5.80469H161.893V7.18896H151.623V14.6509H160.574V16.0352ZM178.478 7.18896H171.899V25H170.277V7.18896H163.712V5.80469H178.478V7.18896ZM201.812 16.4438C201.812 18.2104 201.505 19.7617 200.89 21.0977C200.283 22.4336 199.413 23.4619 198.279 24.1826C197.146 24.9033 195.836 25.2637 194.351 25.2637C192.109 25.2637 190.299 24.4639 188.919 22.8643C187.539 21.2559 186.849 19.0894 186.849 16.3647V14.3872C186.849 12.6382 187.157 11.0913 187.772 9.74658C188.396 8.39307 189.275 7.35596 190.409 6.63525C191.542 5.90576 192.848 5.54102 194.324 5.54102C195.801 5.54102 197.102 5.89697 198.227 6.60889C199.36 7.3208 200.235 8.32715 200.85 9.62793C201.465 10.9287 201.786 12.436 201.812 14.1499V16.4438ZM200.191 14.3608C200.191 12.0493 199.668 10.2388 198.622 8.9292C197.576 7.61963 196.144 6.96484 194.324 6.96484C192.54 6.96484 191.116 7.62402 190.053 8.94238C188.998 10.252 188.471 12.0845 188.471 14.4399V16.4438C188.471 18.7202 188.998 20.5264 190.053 21.8623C191.107 23.1895 192.54 23.853 194.351 23.853C196.188 23.853 197.62 23.1982 198.648 21.8887C199.677 20.5703 200.191 18.7378 200.191 16.3911V14.3608ZM216.473 16.0352H207.521V25H205.899V5.80469H217.791V7.18896H207.521V14.6509H216.473V16.0352ZM229.287 23.6289H238.766V25H227.652V5.80469H229.287V23.6289ZM243.868 25H242.247V5.80469H243.868V25ZM259.662 16.0352H250.71V25H249.089V5.80469H260.98V7.18896H250.71V14.6509H259.662V16.0352ZM274.876 15.7979H265.898V23.6289H276.221V25H264.276V5.80469H276.155V7.18896H265.898V14.4268H274.876V15.7979Z" fill="white"/>
<path d="M2.41211 70V42.9844H10.7246C13.0996 42.9844 15.221 43.5225 17.0889 44.5986C18.9691 45.6624 20.4349 47.1839 21.4863 49.1631C22.5378 51.1299 23.0635 53.3688 23.0635 55.8799V57.123C23.0635 59.6341 22.5439 61.8669 21.5049 63.8213C20.4782 65.7757 19.0247 67.291 17.1445 68.3672C15.2643 69.4434 13.1429 69.9876 10.7803 70H2.41211ZM7.97852 47.4932V65.5283H10.6689C12.846 65.5283 14.5098 64.8171 15.6602 63.3945C16.8105 61.972 17.3981 59.9372 17.4229 57.29V55.8613C17.4229 53.1152 16.8538 51.0371 15.7158 49.627C14.5778 48.2044 12.9141 47.4932 10.7246 47.4932H7.97852ZM49.3184 57.1045C49.3184 59.764 48.8483 62.0957 47.9082 64.0996C46.9681 66.1035 45.6198 67.6497 43.8633 68.7383C42.1191 69.8268 40.1152 70.3711 37.8516 70.3711C35.6126 70.3711 33.6149 69.833 31.8584 68.7568C30.1019 67.6807 28.7412 66.1468 27.7764 64.1553C26.8115 62.1514 26.3229 59.8506 26.3105 57.2529V55.917C26.3105 53.2575 26.7868 50.9196 27.7393 48.9033C28.7041 46.8747 30.0586 45.3223 31.8027 44.2461C33.5592 43.1576 35.5632 42.6133 37.8145 42.6133C40.0658 42.6133 42.0635 43.1576 43.8076 44.2461C45.5641 45.3223 46.9186 46.8747 47.8711 48.9033C48.8359 50.9196 49.3184 53.2513 49.3184 55.8984V57.1045ZM43.6777 55.8799C43.6777 53.0472 43.1706 50.8949 42.1562 49.4229C41.1419 47.9508 39.6947 47.2148 37.8145 47.2148C35.9466 47.2148 34.5055 47.9447 33.4912 49.4043C32.4769 50.8516 31.9635 52.9792 31.9512 55.7871V57.1045C31.9512 59.863 32.4583 62.0029 33.4727 63.5244C34.487 65.0459 35.9466 65.8066 37.8516 65.8066C39.7194 65.8066 41.1543 65.0768 42.1562 63.6172C43.1582 62.1452 43.6654 60.0052 43.6777 57.1973V55.8799ZM75.332 70H69.7656L58.9297 52.2246V70H53.3633V42.9844H58.9297L69.7842 60.7969V42.9844H75.332V70ZM95.7793 64.4336H86.0195L84.1641 70H78.2451L88.3018 42.9844H93.46L103.572 70H97.6533L95.7793 64.4336ZM87.5225 59.9248H94.2764L90.8809 49.8125L87.5225 59.9248ZM124.205 47.4932H115.93V70H110.363V47.4932H102.199V42.9844H124.205V47.4932ZM143.65 58.292H132.963V65.5283H145.506V70H127.396V42.9844H145.469V47.4932H132.963V53.9316H143.65V58.292Z" fill="white"/>
<rect x="153" y="35" width="129" height="41" fill="white"/>
<path d="M159.479 70V42.9844H168.942C172.22 42.9844 174.707 43.6152 176.401 44.877C178.096 46.1263 178.943 47.9632 178.943 50.3877C178.943 51.7113 178.603 52.8802 177.923 53.8945C177.243 54.8965 176.296 55.6325 175.084 56.1025C176.469 56.4489 177.558 57.1478 178.35 58.1992C179.154 59.2507 179.556 60.5371 179.556 62.0586C179.556 64.6562 178.727 66.623 177.069 67.959C175.412 69.2949 173.049 69.9753 169.981 70H159.479ZM165.046 58.2363V65.5283H169.814C171.126 65.5283 172.146 65.2191 172.876 64.6006C173.618 63.9697 173.989 63.1038 173.989 62.0029C173.989 59.529 172.709 58.2734 170.148 58.2363H165.046ZM165.046 54.3027H169.165C171.973 54.2533 173.377 53.1338 173.377 50.9443C173.377 49.7197 173.018 48.8415 172.301 48.3096C171.596 47.7653 170.476 47.4932 168.942 47.4932H165.046V54.3027ZM189.315 65.5283H201.135V70H183.749V42.9844H189.315V65.5283ZM225.349 57.1045C225.349 59.764 224.879 62.0957 223.938 64.0996C222.998 66.1035 221.65 67.6497 219.894 68.7383C218.149 69.8268 216.146 70.3711 213.882 70.3711C211.643 70.3711 209.645 69.833 207.889 68.7568C206.132 67.6807 204.771 66.1468 203.807 64.1553C202.842 62.1514 202.353 59.8506 202.341 57.2529V55.917C202.341 53.2575 202.817 50.9196 203.77 48.9033C204.734 46.8747 206.089 45.3223 207.833 44.2461C209.59 43.1576 211.593 42.6133 213.845 42.6133C216.096 42.6133 218.094 43.1576 219.838 44.2461C221.594 45.3223 222.949 46.8747 223.901 48.9033C224.866 50.9196 225.349 53.2513 225.349 55.8984V57.1045ZM219.708 55.8799C219.708 53.0472 219.201 50.8949 218.187 49.4229C217.172 47.9508 215.725 47.2148 213.845 47.2148C211.977 47.2148 210.536 47.9447 209.521 49.4043C208.507 50.8516 207.994 52.9792 207.981 55.7871V57.1045C207.981 59.863 208.489 62.0029 209.503 63.5244C210.517 65.0459 211.977 65.8066 213.882 65.8066C215.75 65.8066 217.185 65.0768 218.187 63.6172C219.188 62.1452 219.696 60.0052 219.708 57.1973V55.8799ZM251.585 57.1045C251.585 59.764 251.115 62.0957 250.175 64.0996C249.235 66.1035 247.886 67.6497 246.13 68.7383C244.386 69.8268 242.382 70.3711 240.118 70.3711C237.879 70.3711 235.882 69.833 234.125 68.7568C232.368 67.6807 231.008 66.1468 230.043 64.1553C229.078 62.1514 228.59 59.8506 228.577 57.2529V55.917C228.577 53.2575 229.053 50.9196 230.006 48.9033C230.971 46.8747 232.325 45.3223 234.069 44.2461C235.826 43.1576 237.83 42.6133 240.081 42.6133C242.332 42.6133 244.33 43.1576 246.074 44.2461C247.831 45.3223 249.185 46.8747 250.138 48.9033C251.103 50.9196 251.585 53.2513 251.585 55.8984V57.1045ZM245.944 55.8799C245.944 53.0472 245.437 50.8949 244.423 49.4229C243.409 47.9508 241.961 47.2148 240.081 47.2148C238.213 47.2148 236.772 47.9447 235.758 49.4043C234.743 50.8516 234.23 52.9792 234.218 55.7871V57.1045C234.218 59.863 234.725 62.0029 235.739 63.5244C236.754 65.0459 238.213 65.8066 240.118 65.8066C241.986 65.8066 243.421 65.0768 244.423 63.6172C245.425 62.1452 245.932 60.0052 245.944 57.1973V55.8799ZM255.63 70V42.9844H263.942C266.317 42.9844 268.439 43.5225 270.307 44.5986C272.187 45.6624 273.653 47.1839 274.704 49.1631C275.756 51.1299 276.281 53.3688 276.281 55.8799V57.123C276.281 59.6341 275.762 61.8669 274.723 63.8213C273.696 65.7757 272.243 67.291 270.362 68.3672C268.482 69.4434 266.361 69.9876 263.998 70H255.63ZM261.196 47.4932V65.5283H263.887C266.064 65.5283 267.728 64.8171 268.878 63.3945C270.028 61.972 270.616 59.9372 270.641 57.29V55.8613C270.641 53.1152 270.072 51.0371 268.934 49.627C267.796 48.2044 266.132 47.4932 263.942 47.4932H261.196Z" fill="#F88386"/>
</svg>
