<svg width="282" height="290" viewBox="0 0 282 290" fill="none" xmlns="http://www.w3.org/2000/svg">
<path d="M253.744 231.124H235.064V231.269H253.744V231.124Z" fill="#EBEBEB"/>
<path d="M186.808 232.702H181.907V232.847H186.808V232.702Z" fill="#EBEBEB"/>
<path d="M234.5 225.742H223.677V225.887H234.5V225.742Z" fill="#EBEBEB"/>
<path d="M53.9466 226.716H29.5875V226.861H53.9466V226.716Z" fill="#EBEBEB"/>
<path d="M62.5419 226.716H58.9718V226.861H62.5419V226.716Z" fill="#EBEBEB"/>
<path d="M126.985 229.164H74.149V229.309H126.985V229.164Z" fill="#EBEBEB"/>
<path d="M133.668 195.924H24.7709C23.9167 195.924 23.0976 195.575 22.4937 194.954C21.8897 194.333 21.5504 193.491 21.5504 192.612V35.1828C21.5579 34.3095 21.9004 33.4746 22.5036 32.8598C23.1067 32.2449 23.9216 31.9 24.7709 31.9H133.668C134.522 31.9 135.341 32.2489 135.945 32.87C136.549 33.4911 136.888 34.3335 136.888 35.2118V192.612C136.888 193.491 136.549 194.333 135.945 194.954C135.341 195.575 134.522 195.924 133.668 195.924ZM24.7709 32.016C23.9546 32.0176 23.1722 32.3517 22.595 32.9453C22.0178 33.5388 21.6929 34.3434 21.6914 35.1828V192.612C21.6929 193.452 22.0178 194.256 22.595 194.85C23.1722 195.443 23.9546 195.777 24.7709 195.779H133.668C134.484 195.777 135.267 195.443 135.844 194.85C136.421 194.256 136.746 193.452 136.747 192.612V35.1828C136.746 34.3434 136.421 33.5388 135.844 32.9453C135.267 32.3517 134.484 32.0176 133.668 32.016H24.7709Z" fill="#EBEBEB"/>
<path d="M255.667 195.924H146.758C145.905 195.922 145.086 195.573 144.483 194.952C143.879 194.332 143.539 193.49 143.538 192.612V35.1828C143.547 34.31 143.89 33.4759 144.493 32.8614C145.096 32.2469 145.91 31.9015 146.758 31.9H255.667C256.514 31.903 257.326 32.2493 257.927 32.8638C258.528 33.4783 258.869 34.3115 258.876 35.1828V192.612C258.876 193.489 258.538 194.329 257.937 194.95C257.335 195.571 256.519 195.921 255.667 195.924ZM146.758 32.016C145.942 32.0176 145.16 32.3517 144.583 32.9453C144.005 33.5388 143.68 34.3434 143.679 35.1828V192.612C143.68 193.452 144.005 194.256 144.583 194.85C145.16 195.443 145.942 195.777 146.758 195.779H255.667C256.483 195.777 257.265 195.443 257.843 194.85C258.42 194.256 258.745 193.452 258.746 192.612V35.1828C258.745 34.3434 258.42 33.5388 257.843 32.9453C257.265 32.3517 256.483 32.0176 255.667 32.016H146.758Z" fill="#EBEBEB"/>
<path d="M282 221.792H0V221.937H282V221.792Z" fill="#EBEBEB"/>
<path d="M122.157 61.0914H121.142V142.506H122.157V61.0914Z" fill="#E0E0E0"/>
<path d="M185.353 61.0914H184.338V142.506H185.353V61.0914Z" fill="#E0E0E0"/>
<path d="M189.329 66.2128H117.165L115.643 62.5588H190.852L189.329 66.2128Z" fill="#EBEBEB"/>
<path d="M189.329 71.2298H117.165L115.643 67.5758H190.852L189.329 71.2298Z" fill="#EBEBEB"/>
<path d="M189.329 76.2468H117.165L115.643 72.5928H190.852L189.329 76.2468Z" fill="#EBEBEB"/>
<path d="M189.329 81.2639H117.165L115.643 77.6099H190.852L189.329 81.2639Z" fill="#EBEBEB"/>
<path d="M189.329 86.2808H117.165L115.643 82.6268H190.852L189.329 86.2808Z" fill="#EBEBEB"/>
<path d="M189.329 91.2978H117.165L115.643 87.6438H190.852L189.329 91.2978Z" fill="#EBEBEB"/>
<path d="M189.329 96.3148H117.165L115.643 92.6608H190.852L189.329 96.3148Z" fill="#EBEBEB"/>
<path d="M189.329 101.332H117.165L115.643 97.6779H190.852L189.329 101.332Z" fill="#EBEBEB"/>
<path d="M189.329 106.343H117.165L115.643 102.695H190.852L189.329 106.343Z" fill="#EBEBEB"/>
<path d="M189.329 111.36H117.165L115.643 107.706H190.852L189.329 111.36Z" fill="#EBEBEB"/>
<path d="M189.329 116.377H117.165L115.643 112.723H190.852L189.329 116.377Z" fill="#EBEBEB"/>
<path d="M189.329 121.394H117.165L115.643 117.74H190.852L189.329 121.394Z" fill="#EBEBEB"/>
<path d="M189.329 126.411H117.165L115.643 122.757H190.852L189.329 126.411Z" fill="#EBEBEB"/>
<path d="M189.329 131.428H117.165L115.643 127.774H190.852L189.329 131.428Z" fill="#EBEBEB"/>
<path d="M189.329 136.445H117.165L115.643 132.791H190.852L189.329 136.445Z" fill="#EBEBEB"/>
<path d="M189.329 141.462H117.165L115.643 137.808H190.852L189.329 141.462Z" fill="#EBEBEB"/>
<path d="M190.852 141.462H115.643V143.55H190.852V141.462Z" fill="#E0E0E0"/>
<path d="M193.475 57.9827H113.02V62.8547H193.475V57.9827Z" fill="#E0E0E0"/>
<path d="M113.843 107.027C113.626 107.027 113.418 106.939 113.265 106.781C113.112 106.623 113.026 106.409 113.026 106.186V77.7664C113.026 77.5434 113.112 77.3295 113.265 77.1717C113.418 77.014 113.626 76.9254 113.843 76.9254C114.06 76.9254 114.268 77.014 114.422 77.1717C114.575 77.3295 114.661 77.5434 114.661 77.7664V106.186C114.661 106.409 114.575 106.623 114.422 106.781C114.268 106.939 114.06 107.027 113.843 107.027Z" fill="#E0E0E0"/>
<path d="M114.142 61.8802H113.55V78.7582H114.142V61.8802Z" fill="#E0E0E0"/>
<path d="M223.852 151.003H222.16V130.181C222.188 127.955 221.384 125.802 219.915 124.166C218.447 122.531 216.424 121.536 214.264 121.388C212.059 121.275 209.9 122.066 208.263 123.589C206.626 125.112 205.644 127.241 205.533 129.508C205.53 129.617 205.486 129.721 205.41 129.798C205.335 129.875 205.233 129.919 205.127 129.92H204.253C204.198 129.92 204.143 129.909 204.092 129.887C204.042 129.865 203.996 129.832 203.957 129.792C203.919 129.751 203.889 129.703 203.869 129.651C203.849 129.598 203.839 129.542 203.841 129.485C203.951 126.863 205.029 124.384 206.856 122.552C208.683 120.719 211.12 119.673 213.671 119.625C219.272 119.526 223.823 124.433 223.823 130.193L223.852 151.003Z" fill="#F0F0F0"/>
<path d="M244.426 153.277H232.402V221.769H244.426V153.277Z" fill="#E6E6E6"/>
<path d="M235.684 153.277H105.4V221.769H235.684V153.277Z" fill="#F5F5F5"/>
<path d="M235.684 167.539H105.4V168.699H137.407V221.769H138.535V168.699H169.674V221.769H170.802V168.699H201.935V221.769H203.063V168.699H235.684V167.539Z" fill="#E0E0E0"/>
<path d="M134.164 197.989C133.865 197.989 133.578 197.867 133.367 197.649C133.155 197.431 133.036 197.136 133.036 196.829V191.609C133.036 191.301 133.155 191.006 133.367 190.789C133.578 190.571 133.865 190.449 134.164 190.449C134.463 190.449 134.75 190.571 134.962 190.789C135.173 191.006 135.292 191.301 135.292 191.609V196.829C135.292 197.136 135.173 197.431 134.962 197.649C134.75 197.867 134.463 197.989 134.164 197.989Z" fill="#E6E6E6"/>
<path d="M141.778 197.989C141.479 197.989 141.192 197.867 140.981 197.649C140.769 197.431 140.65 197.136 140.65 196.829V191.609C140.65 191.301 140.769 191.006 140.981 190.789C141.192 190.571 141.479 190.449 141.778 190.449C142.078 190.449 142.364 190.571 142.576 190.789C142.787 191.006 142.906 191.301 142.906 191.609V196.829C142.906 197.136 142.787 197.431 142.576 197.649C142.364 197.867 142.078 197.989 141.778 197.989Z" fill="#E6E6E6"/>
<path d="M198.692 197.989C198.392 197.989 198.106 197.867 197.894 197.649C197.682 197.431 197.564 197.136 197.564 196.829V191.609C197.564 191.301 197.682 191.006 197.894 190.789C198.106 190.571 198.392 190.449 198.692 190.449C198.991 190.449 199.278 190.571 199.489 190.789C199.701 191.006 199.82 191.301 199.82 191.609V196.829C199.82 197.136 199.701 197.431 199.489 197.649C199.278 197.867 198.991 197.989 198.692 197.989Z" fill="#E6E6E6"/>
<path d="M206.306 197.989C206.006 197.989 205.72 197.867 205.508 197.649C205.296 197.431 205.178 197.136 205.178 196.829V191.609C205.178 191.301 205.296 191.006 205.508 190.789C205.72 190.571 206.006 190.449 206.306 190.449C206.605 190.449 206.892 190.571 207.103 190.789C207.315 191.006 207.434 191.301 207.434 191.609V196.829C207.434 197.136 207.315 197.431 207.103 197.649C206.892 197.867 206.605 197.989 206.306 197.989Z" fill="#E6E6E6"/>
<path d="M247.246 151.774H232.3V154.773H247.246V151.774Z" fill="#E0E0E0"/>
<path d="M236.812 151.774H102.58V154.773H236.812V151.774Z" fill="#EBEBEB"/>
<path d="M239.407 152.117H194.913C194.626 152.117 194.35 151.999 194.147 151.79C193.944 151.582 193.83 151.298 193.83 151.003C193.83 150.708 193.944 150.424 194.147 150.216C194.35 150.007 194.626 149.889 194.913 149.889H239.407C239.694 149.889 239.969 150.007 240.172 150.216C240.376 150.424 240.49 150.708 240.49 151.003C240.49 151.298 240.376 151.582 240.172 151.79C239.969 151.999 239.694 152.117 239.407 152.117Z" fill="#E6E6E6"/>
<path d="M228.104 148.016H226.418V150.22H228.104V148.016Z" fill="#E0E0E0"/>
<path d="M228.832 148.567H225.69L226.305 144.71H228.217L228.832 148.567Z" fill="#F0F0F0"/>
<path d="M219.576 148.016H217.89V150.22H219.576V148.016Z" fill="#E0E0E0"/>
<path d="M220.298 148.567H217.163L217.772 144.71H219.689L220.298 148.567Z" fill="#F0F0F0"/>
<path d="M96.5286 73.515H54.082V112.607H96.5286V73.515Z" fill="#F5F5F5"/>
<path d="M96.5343 74.7678H54.082C53.9223 74.7678 53.7641 74.7354 53.6166 74.6723C53.4692 74.6093 53.3352 74.5169 53.2226 74.4005C53.1099 74.2841 53.0207 74.146 52.9601 73.994C52.8995 73.842 52.8687 73.6793 52.8694 73.515C52.8694 73.1837 52.997 72.866 53.2242 72.6312C53.4515 72.3964 53.7599 72.2637 54.082 72.2622H96.5343C96.8564 72.2637 97.1648 72.3964 97.392 72.6312C97.6193 72.866 97.7469 73.1837 97.7469 73.515C97.7476 73.6793 97.7168 73.842 97.6562 73.994C97.5956 74.146 97.5064 74.2841 97.3937 74.4005C97.281 74.5169 97.1471 74.6093 96.9996 74.6723C96.8521 74.7354 96.694 74.7678 96.5343 74.7678Z" fill="#EBEBEB"/>
<path d="M96.5343 113.86H54.082C53.7599 113.858 53.4515 113.726 53.2242 113.491C52.997 113.256 52.8694 112.938 52.8694 112.607C52.8709 112.277 52.9991 111.96 53.2262 111.727C53.4533 111.493 53.7608 111.362 54.082 111.36H96.5343C96.8564 111.362 97.1648 111.494 97.3921 111.729C97.6193 111.964 97.7469 112.282 97.7469 112.613C97.7454 112.943 97.6172 113.259 97.3901 113.493C97.163 113.726 96.8554 113.858 96.5343 113.86Z" fill="#EBEBEB"/>
<path d="M83.9176 180.734H60.0886V184.504H83.9176V180.734Z" fill="#E0E0E0"/>
<path d="M60.5228 182.909H82.7726C83.2618 182.909 83.7309 183.109 84.0767 183.464C84.4226 183.82 84.6169 184.302 84.6169 184.805V221.769H58.656V184.805C58.656 184.554 58.7044 184.306 58.7985 184.074C58.8926 183.843 59.0305 183.632 59.2041 183.456C59.3778 183.28 59.5838 183.14 59.8101 183.047C60.0365 182.953 60.2788 182.906 60.5228 182.909Z" fill="#F0F0F0"/>
<path d="M82.5865 176.094H60.7146C59.5902 176.094 58.6786 177.031 58.6786 178.188V179.8C58.6786 180.956 59.5902 181.894 60.7146 181.894H82.5865C83.711 181.894 84.6226 180.956 84.6226 179.8V178.188C84.6226 177.031 83.711 176.094 82.5865 176.094Z" fill="#F0F0F0"/>
<path d="M66.2926 221.769H54.1666V220.029L66.2926 218.869V221.769Z" fill="#E0E0E0"/>
<path d="M138.282 245.752C198.676 245.752 247.635 242.812 247.635 239.186C247.635 235.56 198.676 232.621 138.282 232.621C77.887 232.621 28.9276 235.56 28.9276 239.186C28.9276 242.812 77.887 245.752 138.282 245.752Z" fill="#F5F5F5"/>
<path d="M143.73 187.207C143.73 187.207 143.73 200.146 154.57 206.347C165.41 212.547 200.761 186.139 200.135 187.207C199.509 188.274 143.73 187.207 143.73 187.207Z" fill="#263238"/>
<path opacity="0.2" d="M143.73 187.207C143.73 187.207 143.73 200.146 154.57 206.347C165.41 212.547 200.761 186.139 200.135 187.207C199.509 188.274 143.73 187.207 143.73 187.207Z" fill="white"/>
<path d="M154.908 131.393C146.104 131.689 136.618 131.973 127.836 132.275C125.958 129.845 125.003 126.795 125.148 123.695C125.293 120.594 126.529 117.653 128.626 115.42C129.538 114.457 130.627 113.69 131.829 113.164C136.257 111.169 142.134 112.085 146.24 114.852C150.611 117.804 153.323 122.972 154.44 128.313C154.654 129.33 154.81 130.358 154.908 131.393Z" fill="#B9BBC3"/>
<path opacity="0.5" d="M154.908 131.393C146.104 131.689 136.618 131.973 127.836 132.275C125.958 129.845 125.003 126.795 125.148 123.695C125.293 120.594 126.529 117.653 128.626 115.42C129.538 114.457 130.627 113.69 131.829 113.164C136.257 111.169 142.134 112.085 146.24 114.852C150.611 117.804 153.323 122.972 154.44 128.313C154.654 129.33 154.81 130.358 154.908 131.393Z" fill="white"/>
<path opacity="0.5" d="M154.44 128.308L131.835 129.044C130.089 126.786 129.138 123.986 129.138 121.101C129.138 118.216 130.089 115.416 131.835 113.158C136.262 111.163 142.139 112.079 146.245 114.846C150.588 117.798 153.323 122.96 154.44 128.308Z" fill="white"/>
<path d="M209.881 183.993C209.88 185.668 209.232 187.273 208.08 188.456C206.929 189.639 205.367 190.304 203.739 190.304H149.86L121.909 136.88C121.41 135.938 121.149 134.884 121.147 133.812C121.152 133.258 121.222 132.707 121.356 132.17C121.655 130.991 122.271 129.923 123.134 129.088C123.997 128.253 125.072 127.685 126.235 127.449C126.639 127.362 127.051 127.32 127.464 127.322H155.1C157.191 127.323 159.237 127.945 160.993 129.111C162.75 130.278 164.142 131.94 165.004 133.899L173.464 153.172L184.953 176.801C184.953 176.801 197.998 177.254 204.055 176.801C210.113 176.349 209.881 183.993 209.881 183.993Z" fill="#B9BBC3"/>
<path opacity="0.5" d="M209.881 183.993C209.88 185.668 209.232 187.273 208.08 188.456C206.929 189.639 205.367 190.304 203.739 190.304H149.86L121.909 136.88C121.41 135.938 121.149 134.884 121.147 133.812C121.152 133.258 121.222 132.707 121.356 132.17C121.655 130.991 122.271 129.923 123.134 129.088C123.997 128.253 125.072 127.685 126.235 127.449C126.639 127.362 127.051 127.32 127.464 127.322H155.1C157.191 127.323 159.237 127.945 160.993 129.111C162.75 130.278 164.142 131.94 165.004 133.899L173.464 153.172L184.953 176.801C184.953 176.801 197.998 177.254 204.055 176.801C210.113 176.349 209.881 183.993 209.881 183.993Z" fill="white"/>
<path opacity="0.5" d="M179.397 183.993C179.397 185.667 178.751 187.272 177.6 188.456C176.449 189.639 174.888 190.304 173.261 190.304H149.86L121.909 136.88C121.41 135.938 121.149 134.884 121.147 133.812C121.152 133.258 121.222 132.707 121.356 132.17C121.655 130.991 122.271 129.923 123.134 129.088C123.997 128.253 125.072 127.685 126.235 127.449C128.028 127.729 129.724 128.465 131.169 129.592C132.614 130.718 133.762 132.199 134.508 133.899L142.968 153.172L154.457 176.801C154.457 176.801 167.497 177.254 173.554 176.801C179.611 176.349 179.397 183.993 179.397 183.993Z" fill="white"/>
<path d="M217.213 190.82H149.635C148.74 190.82 147.853 190.639 147.026 190.286C146.199 189.934 145.448 189.417 144.815 188.766C144.182 188.115 143.681 187.342 143.339 186.491C142.997 185.64 142.821 184.728 142.822 183.808C142.822 181.95 143.539 180.167 144.817 178.854C146.095 177.54 147.828 176.801 149.635 176.801H217.213C218.108 176.801 218.995 176.981 219.822 177.333C220.65 177.685 221.401 178.201 222.035 178.851C222.668 179.502 223.17 180.275 223.513 181.125C223.856 181.976 224.032 182.887 224.032 183.808C224.032 185.668 223.314 187.451 222.035 188.766C220.756 190.081 219.022 190.82 217.213 190.82Z" fill="#B9BBC3"/>
<path opacity="0.5" d="M224.026 183.808C224.026 185.667 223.309 187.449 222.031 188.764C220.754 190.079 219.021 190.819 217.213 190.82H149.635C147.828 190.82 146.095 190.082 144.817 188.768C143.539 187.454 142.822 185.672 142.822 183.814C142.822 181.955 143.539 180.173 144.817 178.859C146.095 177.545 147.828 176.807 149.635 176.807H217.213C219.019 176.807 220.751 177.545 222.029 178.857C223.306 180.17 224.025 181.951 224.026 183.808Z" fill="white"/>
<path d="M252.255 207.791L229.954 179.551C229.264 178.676 228.375 177.99 227.366 177.553C226.356 177.116 225.258 176.942 224.167 177.045H195.832C194.118 176.894 192.413 177.432 191.078 178.547C189.706 179.692 188.833 181.35 188.65 183.156C188.467 184.963 188.989 186.77 190.102 188.181L212.408 216.427C213.03 217.216 213.816 217.853 214.708 218.29C215.6 218.728 216.575 218.955 217.563 218.956H247.032C248.296 218.969 249.538 218.612 250.612 217.926C251.686 217.24 252.548 216.254 253.098 215.083C253.647 213.913 253.861 212.605 253.715 211.314C253.569 210.022 253.068 208.8 252.272 207.791H252.255Z" fill="#B9BBC3"/>
<path opacity="0.2" d="M221.77 217.425C221.092 217.991 220.312 218.415 219.474 218.672C218.636 218.928 217.758 219.013 216.888 218.92C216.019 218.827 215.176 218.56 214.407 218.132C213.638 217.704 212.959 217.125 212.408 216.427L190.102 188.181C188.989 186.77 188.467 184.963 188.65 183.156C188.833 181.35 189.706 179.692 191.078 178.547C191.756 177.98 192.537 177.556 193.375 177.3C194.213 177.043 195.091 176.959 195.961 177.052C196.831 177.145 197.674 177.414 198.442 177.843C199.211 178.271 199.89 178.852 200.44 179.551L222.746 207.791C223.298 208.489 223.71 209.292 223.96 210.154C224.209 211.017 224.291 211.921 224.2 212.816C224.11 213.71 223.849 214.578 223.432 215.369C223.015 216.16 222.45 216.858 221.77 217.425Z" fill="white"/>
<path opacity="0.5" d="M252.255 207.791L229.954 179.551C229.264 178.676 228.375 177.99 227.366 177.553C226.356 177.116 225.258 176.942 224.167 177.045H195.832C194.118 176.894 192.413 177.432 191.078 178.547C189.706 179.692 188.833 181.35 188.65 183.156C188.467 184.963 188.989 186.77 190.102 188.181L212.408 216.427C213.03 217.216 213.816 217.853 214.708 218.29C215.6 218.728 216.575 218.955 217.563 218.956H247.032C248.296 218.969 249.538 218.612 250.612 217.926C251.686 217.24 252.548 216.254 253.098 215.083C253.647 213.913 253.861 212.605 253.715 211.314C253.569 210.022 253.068 208.8 252.272 207.791H252.255Z" fill="white"/>
<path d="M127.312 234.981H122.58V239.847H127.312V234.981Z" fill="#263238"/>
<path d="M175.128 234.981H170.396V239.847H175.128V234.981Z" fill="#263238"/>
<path d="M169.939 234.981H165.207V239.847H169.939V234.981Z" fill="#263238"/>
<path d="M217.755 234.981H213.023V239.847H217.755V234.981Z" fill="#263238"/>
<path d="M200.361 234.981H128.592L142.963 205.187H200.361V234.981Z" fill="#263238"/>
<path opacity="0.2" d="M200.361 234.981H128.592L142.963 205.187H200.361V234.981Z" fill="white"/>
<path opacity="0.2" d="M170.43 234.981H128.592L142.963 205.187H170.43V234.981Z" fill="white"/>
<path d="M221.347 231.669H120.702L118.068 237.812H223.981L221.347 231.669Z" fill="#263238"/>
<path opacity="0.2" d="M177.485 231.669H120.702L118.068 237.812H176.605L177.485 231.669Z" fill="white"/>
<path d="M192.217 155.533H153.132C151.328 155.533 149.866 157.036 149.866 158.891V160.155C149.866 162.01 151.328 163.514 153.132 163.514H192.217C194.02 163.514 195.482 162.01 195.482 160.155V158.891C195.482 157.036 194.02 155.533 192.217 155.533Z" fill="#B9BBC3"/>
<path opacity="0.5" d="M192.217 155.533H153.132C151.328 155.533 149.866 157.036 149.866 158.891V160.155C149.866 162.01 151.328 163.514 153.132 163.514H192.217C194.02 163.514 195.482 162.01 195.482 160.155V158.891C195.482 157.036 194.02 155.533 192.217 155.533Z" fill="white"/>
<path opacity="0.5" d="M195.477 159.5C195.477 158.442 195.068 157.427 194.34 156.678C193.613 155.93 192.626 155.51 191.596 155.51H153.746C152.717 155.51 151.73 155.93 151.003 156.678C150.275 157.427 149.866 158.442 149.866 159.5H195.477Z" fill="white"/>
<path d="M173.266 156.281C169.607 158.618 165.609 160.341 161.422 161.385L152.398 163.63C151.631 161.832 149.048 158.154 144.029 148.173C143.42 147.147 142.877 146.081 142.404 144.983C141.35 142.628 140.537 140.168 139.979 137.64C139.651 136.173 139.423 134.685 139.297 133.185C139.299 133.172 139.299 133.158 139.297 133.145C139.144 132.827 139.055 132.481 139.035 132.127C139.014 131.773 139.063 131.418 139.177 131.084C139.292 130.749 139.47 130.442 139.702 130.179C139.933 129.917 140.214 129.704 140.526 129.555H140.571C141.812 128.917 143.391 128.157 144.959 127.519C147.962 126.285 151.027 125.216 154.141 124.317C155.191 124.057 156.255 123.864 157.328 123.737C158.065 123.617 158.819 123.689 159.522 123.945C160.226 124.202 160.856 124.634 161.355 125.205C163.56 127.6 168.405 137.042 173.266 156.281Z" fill="#263238"/>
<g opacity="0.7">
<path opacity="0.7" d="M169.578 143.475C167.373 143.944 164.976 144.345 163.154 144.635C162.855 143.573 162.398 142.523 162.026 141.497L168.072 139.2C168.565 140.515 169.067 141.939 169.578 143.475Z" fill="white"/>
</g>
<path d="M151.716 127.989C147.255 129.833 144.672 127.606 144.672 127.606C145.991 124.857 143.397 119.59 141.711 116.789L144.858 118.024L149.144 119.706C149.199 120.202 149.281 120.694 149.392 121.179C149.468 121.529 149.573 121.87 149.708 122.2V122.252C150.272 123.627 151.4 124.572 153.713 124.34C153.724 124.352 155.501 126.399 151.716 127.989Z" fill="#B25B52"/>
<path opacity="0.2" d="M149.133 119.706C149.187 120.202 149.27 120.694 149.381 121.179C149.456 121.529 149.562 121.87 149.697 122.2V122.252C148.366 122.421 146.273 121.643 145.653 120.396C145.449 119.985 145.287 119.554 145.168 119.109L149.133 119.706Z" fill="black"/>
<path d="M147.903 112.462C147.903 112.462 149.804 113.454 150.244 111.064C148.349 109.788 148.879 109.22 148.135 107.845C147.759 107.02 147.173 106.315 146.439 105.805C145.705 105.294 144.851 104.997 143.967 104.945L142.636 105.815C138.344 109.759 147.903 112.462 147.903 112.462Z" fill="#263238"/>
<path d="M137.571 113.001C137.128 111.549 137.263 109.974 137.949 108.624C138.634 107.274 139.813 106.26 141.226 105.804C145.489 104.313 150.199 108.651 152.088 112.131C152.593 113.024 152.852 114.042 152.835 115.075C152.819 116.108 152.529 117.117 151.996 117.992C151.463 118.868 150.708 119.577 149.812 120.044C148.916 120.511 147.913 120.717 146.911 120.64C143.814 120.437 142.173 118.523 139.111 115.507C138.395 114.823 137.864 113.96 137.571 113.001Z" fill="#B25B52"/>
<path d="M150.588 113.46C149.237 113.971 147.943 114.626 146.725 115.414C147.13 115.864 147.681 116.147 148.274 116.211C148.867 116.275 149.463 116.115 149.951 115.762C150.319 115.567 150.599 115.232 150.731 114.828C150.862 114.424 150.835 113.983 150.656 113.599L150.588 113.46Z" fill="#263238"/>
<path d="M148.924 115.379C149.448 115.024 150.077 114.868 150.701 114.939C150.55 115.284 150.292 115.567 149.968 115.745C149.447 116.103 148.819 116.259 148.197 116.186C148.343 115.84 148.6 115.555 148.924 115.379Z" fill="#FF5652"/>
<path d="M150.47 113.512C150.504 113.639 150.505 113.773 150.472 113.9C150.439 114.028 150.374 114.144 150.283 114.237C149.467 114.717 148.61 115.118 147.723 115.437C147.583 115.499 147.429 115.522 147.278 115.504C147.126 115.486 146.982 115.427 146.86 115.333C148.01 114.62 149.218 114.011 150.47 113.512Z" fill="white"/>
<path d="M143.171 119.48L139.026 117.16C139.51 115.305 140.282 113.543 141.31 111.94L141.525 112.05L143.171 119.48Z" fill="#B25B52"/>
<path opacity="0.2" d="M143.171 119.48L139.026 117.16C139.51 115.305 140.282 113.543 141.31 111.94L141.525 112.05L143.171 119.48Z" fill="black"/>
<path d="M141.31 111.975C140.282 113.578 139.51 115.34 139.026 117.195L136.437 115.745L138.462 110.478L141.31 111.975Z" fill="#263238"/>
<path d="M149.088 112.903C149.342 112.773 149.565 112.587 149.741 112.358C149.917 112.13 150.043 111.864 150.109 111.58C148.984 111.359 147.893 110.982 146.866 110.461L149.088 112.903Z" fill="#9D2724"/>
<path d="M139.658 116.365C140.47 115.658 142.111 116.197 142.991 116.795C143.978 117.462 144.204 118.535 143.121 118.906C142.236 119.168 141.291 119.104 140.447 118.726C139.387 118.256 138.851 117.073 139.658 116.365Z" fill="#B25B52"/>
<path d="M144.768 111.714C144.937 111.569 145.292 111.679 145.501 111.917C145.709 112.155 145.76 112.497 145.591 112.642C145.422 112.787 145.117 112.682 144.863 112.445C144.61 112.207 144.593 111.865 144.768 111.714Z" fill="#263238"/>
<path d="M147.559 108.965C147.734 108.814 148.056 108.901 148.293 109.162C148.529 109.423 148.58 109.742 148.405 109.904C148.231 110.067 147.909 109.962 147.672 109.701C147.435 109.44 147.39 109.11 147.559 108.965Z" fill="#263238"/>
<path d="M146.166 108.257C146.199 108.263 146.232 108.26 146.263 108.25C146.295 108.24 146.323 108.223 146.347 108.199C146.515 107.997 146.726 107.836 146.963 107.728C147.201 107.621 147.458 107.57 147.717 107.578C147.742 107.583 147.768 107.581 147.793 107.575C147.818 107.569 147.841 107.558 147.862 107.542C147.882 107.526 147.899 107.507 147.912 107.484C147.925 107.461 147.934 107.436 147.937 107.41C147.942 107.356 147.927 107.302 147.894 107.259C147.862 107.216 147.815 107.187 147.762 107.178C147.443 107.162 147.124 107.221 146.831 107.352C146.537 107.483 146.277 107.681 146.07 107.932C146.033 107.972 146.013 108.025 146.013 108.08C146.013 108.135 146.033 108.188 146.07 108.228C146.1 108.244 146.133 108.254 146.166 108.257Z" fill="#263238"/>
<path d="M143.504 111.899C143.534 111.884 143.559 111.862 143.579 111.835C143.598 111.808 143.612 111.776 143.617 111.743C143.625 111.476 143.693 111.215 143.816 110.98C143.938 110.744 144.111 110.541 144.322 110.386C144.345 110.374 144.365 110.357 144.382 110.336C144.398 110.316 144.41 110.292 144.417 110.266C144.424 110.24 144.426 110.213 144.422 110.187C144.418 110.161 144.409 110.136 144.395 110.113C144.367 110.067 144.323 110.033 144.271 110.02C144.219 110.007 144.165 110.016 144.119 110.043C143.853 110.233 143.634 110.483 143.477 110.773C143.321 111.064 143.232 111.388 143.217 111.72C143.215 111.747 143.219 111.775 143.228 111.8C143.236 111.826 143.25 111.85 143.268 111.871C143.286 111.891 143.307 111.908 143.331 111.92C143.355 111.932 143.382 111.939 143.408 111.94C143.443 111.935 143.476 111.921 143.504 111.899Z" fill="#263238"/>
<path d="M241.353 190.547L240.377 193.998L236.119 191.568L234.917 190.884L234.088 190.408L236.626 186.888L237.139 187.288L238.273 188.164L241.353 190.547Z" fill="#B25B52"/>
<path d="M248.921 188.425C247.743 189.95 246.603 191.284 245.746 192.38C244.347 194.167 243.896 194.909 242.825 196.342C242.696 196.507 242.51 196.614 242.306 196.641C242.102 196.668 241.896 196.613 241.73 196.487L238.91 193.842C238.854 193.782 238.822 193.702 238.822 193.619C238.822 193.535 238.854 193.455 238.91 193.395L241.166 190.072C241.584 189.715 242.057 189.432 242.565 189.237C244.099 188.831 245.272 188.79 248.087 186.366C248.239 186.257 248.425 186.211 248.608 186.235C248.792 186.26 248.96 186.354 249.079 186.499C249.435 186.87 249.587 187.578 248.921 188.425Z" fill="#263238"/>
<path opacity="0.2" d="M238.07 188.001L235.859 191.435L234.917 190.884L237.139 187.288L238.07 188.001Z" fill="black"/>
<path d="M237.495 186.708L234.5 191.568C234.5 191.568 217.704 184.945 203.006 170.851L203.051 170.601C194.704 172.759 170.26 173.136 166.335 168.861C164.271 166.506 162.821 164.007 162.46 160.927L166.335 159.604C168.377 158.752 171.907 157.464 173.063 156.037C173.063 156.037 195.296 157.435 204.444 161.872C214.032 165.503 237.495 186.708 237.495 186.708Z" fill="#B9BBC3"/>
<g opacity="0.1">
<g opacity="0.1">
<path opacity="0.1" d="M237.495 186.708L234.5 191.568C234.5 191.568 217.704 184.945 203.006 170.851L203.051 170.601C194.704 172.759 170.26 173.136 166.335 168.861C164.271 166.506 162.821 164.007 162.46 160.927L166.335 159.604C168.377 158.752 171.907 157.464 173.063 156.037C173.063 156.037 195.296 157.435 204.444 161.872C214.032 165.503 237.495 186.708 237.495 186.708Z" fill="black"/>
</g>
</g>
<path d="M236.818 195.912L234.912 198.963L230.591 196.748L229.091 195.97L231.358 192.113V192.108L236.818 195.912Z" fill="#B25B52"/>
<path opacity="0.2" d="M232.836 193.134L230.631 196.655L230.591 196.748L229.091 195.97L231.358 192.113L232.836 193.134Z" fill="black"/>
<path d="M232.137 191.62L231.956 191.951L229.04 196.777L199.972 178.06C191.36 180.844 161.981 181.122 157.621 176.9C157.297 176.577 156.99 176.236 156.702 175.879C156.386 175.514 156.098 175.131 155.828 174.748C155.827 174.737 155.827 174.725 155.828 174.713C154.683 172.768 153.837 170.653 153.318 168.444C152.893 166.796 152.57 165.122 152.353 163.432C160.616 161.75 170.559 159.042 173.08 156.02L178.043 163.792C186.402 164.627 199.086 166.692 202.386 168.055C212.628 171.274 232.137 191.62 232.137 191.62Z" fill="#B9BBC3"/>
<path d="M156.702 175.885C156.392 175.518 156.105 175.131 155.844 174.725C156.098 175.16 156.386 175.52 156.702 175.885Z" fill="#B9BBC3"/>
<path d="M244.212 192.688C243.998 193.001 243.778 193.303 243.575 193.604L243.546 193.645L242.904 194.532L242.616 194.927C242.469 195.135 242.311 195.362 242.142 195.588L241.804 196.052L241.127 197.015C239.773 198.981 239.345 199.787 238.307 201.353C238.183 201.532 237.996 201.655 237.786 201.696C237.576 201.737 237.358 201.693 237.179 201.573L234.568 199.387L234.083 198.981C234.05 198.953 234.023 198.918 234.003 198.879C233.983 198.841 233.971 198.798 233.967 198.754C233.963 198.711 233.968 198.667 233.981 198.625C233.994 198.583 234.015 198.544 234.043 198.511L236.198 194.886C236.616 194.489 237.094 194.163 237.613 193.923C239.198 193.401 240.433 193.285 243.225 190.571C243.812 189.968 245.34 191.023 244.212 192.688Z" fill="#263238"/>
<path d="M155.811 174.708C154.519 172.845 153.643 170.712 153.244 168.461H153.301C153.82 170.664 154.667 172.771 155.811 174.708Z" fill="#B9BBC3"/>
<path d="M157.694 155.533H118.609C116.806 155.533 115.344 157.036 115.344 158.891V160.155C115.344 162.01 116.806 163.514 118.609 163.514H157.694C159.498 163.514 160.96 162.01 160.96 160.155V158.891C160.96 157.036 159.498 155.533 157.694 155.533Z" fill="#B9BBC3"/>
<path opacity="0.5" d="M157.694 155.533H118.609C116.806 155.533 115.344 157.036 115.344 158.891V160.155C115.344 162.01 116.806 163.514 118.609 163.514H157.694C159.498 163.514 160.96 162.01 160.96 160.155V158.891C160.96 157.036 159.498 155.533 157.694 155.533Z" fill="white"/>
<path opacity="0.5" d="M160.96 159.5C160.96 158.442 160.551 157.427 159.823 156.678C159.096 155.93 158.109 155.51 157.08 155.51H119.23C118.72 155.509 118.214 155.612 117.743 155.812C117.271 156.012 116.843 156.306 116.482 156.676C116.121 157.047 115.835 157.487 115.64 157.972C115.444 158.456 115.344 158.976 115.344 159.5H160.96Z" fill="white"/>
<path d="M152.844 156.148C147.503 156.629 144.237 156.391 138.913 156.368C134.3 156.368 133.645 156.368 133.645 154.837C133.645 153.097 134.04 150.11 134.04 148.387C136.116 148.521 137.96 148.753 140.007 148.387L139.759 151.142C145.563 150.991 147.514 152.76 152.844 153.404V156.148Z" fill="#B25B52"/>
<path opacity="0.2" d="M143.256 146.74C141.79 143.876 140.698 140.826 140.007 137.669L141.135 136.984L143.256 146.74Z" fill="black"/>
<path d="M139.917 129.972C137.808 130.367 136.144 132.153 135.298 134.177C134.452 136.201 133.764 147.656 133.736 147.204H133.014L132.506 151.131C135.219 151.049 138.665 150.794 141.372 150.713C141.372 150.713 141.491 148.231 141.372 147.018L140.656 147.082L142.156 136.729C142.408 135.066 142.277 133.366 141.773 131.764C141.699 131.512 141.599 131.269 141.474 131.039C141.13 130.5 140.566 129.85 139.917 129.972Z" fill="#263238"/>
<path d="M164.011 153.201C164.011 153.768 163.848 154.322 163.541 154.794C163.235 155.265 162.799 155.632 162.29 155.849C161.78 156.066 161.22 156.122 160.679 156.011C160.139 155.9 159.642 155.626 159.253 155.225C158.863 154.824 158.599 154.313 158.492 153.757C158.385 153.2 158.441 152.624 158.653 152.101C158.864 151.577 159.222 151.13 159.681 150.816C160.14 150.502 160.679 150.335 161.231 150.336C161.969 150.338 162.676 150.64 163.197 151.177C163.718 151.714 164.011 152.442 164.011 153.201Z" fill="#B9BBC3"/>
<path d="M160.971 157.806C161.772 157.727 162.558 157.532 163.306 157.226C163.465 157.154 163.609 157.05 163.729 156.92C163.848 156.79 163.941 156.637 164.001 156.469C164.062 156.301 164.089 156.122 164.081 155.944C164.073 155.765 164.03 155.59 163.955 155.428C163.848 155.185 163.735 154.941 163.599 154.698C162.866 155.069 161.975 155.492 161.208 155.191C159.719 154.611 158.851 153.259 157.26 153.224L152.511 153.456C152.294 154.317 152.271 155.218 152.444 156.09C155.162 157.185 158.051 157.767 160.971 157.806Z" fill="#B25B52"/>
<path d="M161.637 144.35L158.337 146.514C158.337 146.514 154.824 148.254 153.684 147.378C153.197 146.754 152.796 146.063 152.494 145.325C152.39 145.113 152.351 144.873 152.383 144.637C152.415 144.402 152.517 144.182 152.675 144.008L154.931 141.984C155.423 141.552 156.049 141.313 156.696 141.311H160.921L161.637 144.35Z" fill="#B25B52"/>
<path d="M175.63 141.23C175.593 141.288 175.549 141.34 175.5 141.387C175.447 141.443 175.388 141.493 175.325 141.537C175.258 141.596 175.186 141.648 175.111 141.694C174.735 141.926 174.338 142.121 173.926 142.274C173.814 142.32 173.689 142.373 173.56 142.413C173.43 142.454 173.306 142.512 173.165 142.552C172.894 142.639 172.601 142.732 172.308 142.813L172.009 142.895L171.163 143.121H171.072C170.593 143.237 170.091 143.353 169.584 143.463C169.525 143.48 169.464 143.492 169.403 143.498C167.711 143.863 165.872 144.182 164.327 144.426C164.118 144.461 163.91 144.495 163.718 144.519L163.154 144.606C162.855 143.538 161.659 141.566 161.287 140.546L167.339 138.278L168.698 137.767C168.698 137.767 167.209 135.337 166.735 134.67C166.262 134.003 165.884 133.47 165.455 132.861C163.616 128.917 162.297 126.156 160.808 124.886C160.097 124.199 159.175 123.789 158.202 123.726C158.202 123.726 161.394 122.983 162.466 123.32C163.532 123.711 164.513 124.314 165.354 125.094C168.536 127.705 171.313 130.799 173.588 134.27C173.627 134.334 173.684 134.415 173.735 134.508C173.943 134.833 174.146 135.163 174.338 135.494C175.319 137.141 176.577 139.838 175.63 141.23Z" fill="#263238"/>
<path opacity="0.2" d="M167.717 136.172L166.064 133.806C165.5 132.513 164.998 131.364 164.508 130.355L165.156 130.993C166.545 132.38 167.445 134.202 167.717 136.172Z" fill="black"/>
<path d="M164.773 145.742C163.653 145.378 162.469 145.272 161.304 145.429C160.684 143.631 160.009 141.854 159.279 140.099C160.35 139.607 161.494 139.305 162.663 139.206C163.346 141.34 164.474 143.527 164.773 145.742Z" fill="#263238"/>
<path opacity="0.1" d="M164.773 145.742C163.653 145.378 162.469 145.272 161.304 145.429C160.684 143.631 160.009 141.854 159.279 140.099C160.35 139.607 161.494 139.305 162.663 139.206C163.346 141.34 164.474 143.527 164.773 145.742Z" fill="white"/>
<path d="M136.668 115.907C135.586 115.136 135.095 113.732 134.943 112.387C134.79 111.041 136.189 110.78 136.031 109.434C135.873 108.089 135.354 106.685 134.26 105.954C135.202 106.215 136.398 106.007 137.249 106.494C136.658 105.47 135.717 104.709 134.61 104.359C136.145 104.242 137.688 104.417 139.161 104.876C139.06 103.716 138.033 102.179 137.362 101.227L141.079 103.547C141.446 102.669 141.49 101.684 141.203 100.775C142.365 102.063 144.892 104.789 144.892 104.789L145.456 105.856C143.2 106.088 143.679 107.329 143.679 107.329C143.679 107.329 138.524 107.712 136.668 115.907Z" fill="#263238"/>
<path opacity="0.1" d="M133.014 147.216L141.384 147.03L141.372 150.725L132.506 151.142L133.014 147.216Z" fill="white"/>
<path d="M63.4556 232.081L67.4939 234.291L67.8774 227.702L63.7263 227.464L63.4556 232.081Z" fill="#F7978D"/>
<path d="M67.68 233.241L63.3993 231.263C63.3239 231.229 63.2395 231.222 63.1597 231.243C63.0799 231.264 63.0093 231.312 62.9593 231.379L60.7033 234.529C60.6078 234.667 60.5691 234.838 60.5955 235.005C60.6219 235.172 60.7113 235.322 60.8443 235.422L60.9628 235.492C62.4686 236.153 63.2188 236.396 65.1251 237.266C66.2531 237.8 69.2366 239.314 70.844 240.05C72.4514 240.787 73.3595 239.256 72.7673 238.803C70.1052 236.779 68.7854 235.074 68.2214 233.769C68.1136 233.528 67.9197 233.339 67.68 233.241Z" fill="#263238"/>
<path opacity="0.2" d="M67.8774 227.708L67.8041 229.854L63.653 229.599L63.7263 227.464L67.8774 227.708Z" fill="black"/>
<path d="M74.5721 134.833C75.4124 139.977 73.9291 164.993 72.3161 176.053C70.1954 190.716 68.5824 229.135 68.5824 229.135L63.0383 228.694C63.0383 228.694 61.3463 188.407 62.6773 176.627C62.2881 161.431 61.1376 134.867 61.1376 134.867L74.5721 134.833Z" fill="#B9BBC3"/>
<path opacity="0.1" d="M74.5721 134.833C75.4124 139.977 73.9291 164.993 72.3161 176.053C70.1954 190.716 68.5824 229.135 68.5824 229.135L63.0383 228.694C63.0383 228.694 61.3463 188.407 62.6773 176.627C62.2881 161.431 61.1376 134.867 61.1376 134.867L74.5721 134.833Z" fill="black"/>
<path opacity="0.2" d="M61.8087 151.426C61.6734 147.575 64.3806 144.205 65.3281 151.484C65.9259 156.124 64.3975 164.186 62.4742 169.87C62.2881 163.914 62.04 157.284 61.8087 151.426Z" fill="black"/>
<path d="M33.0729 221.937L36.2201 223.996L39.0513 219.31L35.9042 217.251L33.0729 221.937Z" fill="#F7978D"/>
<path d="M36.7051 223.921L33.2422 220.644C33.1844 220.587 33.1077 220.555 33.0278 220.555C32.948 220.555 32.8712 220.587 32.8135 220.644L29.9935 223.213C29.9268 223.281 29.8739 223.362 29.8378 223.451C29.8017 223.54 29.7831 223.636 29.7831 223.732C29.7831 223.829 29.8017 223.924 29.8378 224.013C29.8739 224.102 29.9268 224.183 29.9935 224.251C31.2118 225.376 31.8547 225.846 33.3775 227.296C34.3138 228.178 35.4361 229.436 36.7277 230.666C38.0192 231.896 39.198 230.585 38.7637 229.953C36.8066 227.105 37.2127 226.119 36.9984 224.617C36.9744 224.359 36.8718 224.115 36.7051 223.921Z" fill="#263238"/>
<path opacity="0.2" d="M39.0513 219.315L37.7767 221.415L34.5901 219.252L35.8986 217.251L39.0513 219.315Z" fill="black"/>
<path d="M66.2982 140.743C66.2982 140.743 61.0643 173.223 58.03 185.501C55.836 194.341 39.0288 220.649 39.0288 220.649L34.7311 218.016C34.7311 218.016 40.5121 196.156 49.6941 184.597C50.2581 170.868 49.1301 148.236 54.4204 140.789L66.2982 140.743Z" fill="#B9BBC3"/>
<path opacity="0.1" d="M66.2982 140.743C66.2982 140.743 61.0643 173.223 58.03 185.501C55.836 194.341 39.0288 220.649 39.0288 220.649L34.7311 218.016C34.7311 218.016 40.5121 196.156 49.6941 184.597C50.2581 170.868 49.1301 148.236 54.4204 140.789L66.2982 140.743Z" fill="black"/>
<path d="M74.2337 113.46C76.1287 111.488 77.9053 109.458 79.6424 107.352C81.3796 105.247 83.0659 103.107 84.6451 100.833L84.944 100.41L85.2655 99.9166C85.4742 99.586 85.6659 99.2554 85.8295 98.9248C86.1792 98.2578 86.4725 97.5734 86.7714 96.9296C87.3146 95.6202 87.7909 94.2824 88.1983 92.9218C88.9829 90.2635 89.5767 87.5496 89.9749 84.8018C90.0497 84.5003 90.005 84.1806 89.8505 83.9131C89.6961 83.6455 89.4446 83.4519 89.1515 83.375C88.8583 83.2981 88.5474 83.3441 88.2872 83.5029C88.027 83.6617 87.8388 83.9203 87.764 84.2218C86.8842 86.7216 85.9423 89.2504 84.944 91.6574C84.4364 92.8696 83.8837 94.047 83.2972 95.1664C83.0039 95.7464 82.6937 96.2568 82.3722 96.7614C82.2143 97.0166 82.0451 97.2544 81.8815 97.4864L81.6277 97.817L81.3344 98.194C79.6988 100.236 77.9504 102.254 76.2584 104.238C74.5664 106.221 72.7222 108.205 70.9568 110.142C70.7377 110.366 70.5642 110.632 70.4467 110.925C70.3292 111.219 70.2701 111.534 70.2727 111.851C70.2754 112.169 70.3399 112.482 70.4623 112.774C70.5847 113.065 70.7626 113.328 70.9856 113.548C71.2085 113.768 71.4719 113.939 71.7603 114.052C72.0487 114.165 72.3562 114.218 72.6647 114.207C72.9732 114.196 73.2765 114.122 73.5566 113.989C73.8367 113.855 74.088 113.665 74.2957 113.431L74.2337 113.46Z" fill="#F7978D"/>
<path d="M87.7979 85.0744L87.4708 81.2522L91.4526 82.94C91.4526 82.94 91.007 85.2078 89.3489 86.101L87.7979 85.0744Z" fill="#F7978D"/>
<path d="M72.4458 106.72C71.9551 106.03 79.3661 100.12 79.3661 100.12L80.652 108.622C80.652 108.622 79.1743 111.76 77.0255 113.471C74.8766 115.182 71.5547 109.446 72.4458 106.72Z" fill="#B9BBC3"/>
<path d="M90.4261 78.9148L91.8756 80.0748C92.0376 80.2021 92.1542 80.3808 92.2073 80.5833C92.2603 80.7857 92.2468 81.0005 92.1689 81.1942L91.4526 82.9342L87.4708 81.2464L89.1346 79.0772C89.2857 78.8807 89.5061 78.7534 89.7479 78.723C89.9897 78.6926 90.2334 78.7615 90.4261 78.9148Z" fill="#F7978D"/>
<path d="M77.1382 109.504C77.2059 118.082 75.5872 124.77 74.8822 130.668C74.792 131.416 74.651 133.893 75.3616 139.055C75.8452 143.291 76.1201 147.55 76.1851 151.815L49.976 150.116C50.8389 138.556 56.3605 131.556 56.3548 129.966C56.3548 125.176 55.8472 120.275 53.8169 110.89C53.5935 109.851 53.7805 108.763 54.3368 107.866C54.8931 106.969 55.7732 106.335 56.7835 106.105C56.9004 106.075 57.0191 106.054 57.1388 106.041C58.2668 105.891 59.4568 105.757 60.692 105.693C63.4626 105.479 66.2445 105.467 69.0166 105.659C70.9681 105.833 73.0605 106.169 74.5551 106.424C75.2678 106.546 75.9165 106.921 76.3884 107.484C76.8603 108.046 77.1256 108.761 77.1382 109.504Z" fill="#B9BBC3"/>
<path d="M72.756 117.044H72.4176L71.972 115.664C71.9523 115.602 71.9471 115.537 71.9568 115.473C71.9664 115.41 71.9907 115.349 72.0277 115.297C72.0646 115.245 72.1131 115.202 72.1692 115.173C72.2252 115.144 72.2872 115.13 72.3499 115.13H72.8237C72.8864 115.13 72.9484 115.144 73.0044 115.173C73.0605 115.202 73.109 115.245 73.1459 115.297C73.1829 115.349 73.2072 115.41 73.2169 115.473C73.2265 115.537 73.2213 115.602 73.2016 115.664L72.756 117.044Z" fill="#263238"/>
<path d="M72.5981 115.629C73.112 115.629 73.5287 115.2 73.5287 114.672C73.5287 114.143 73.112 113.715 72.5981 113.715C72.0841 113.715 71.6675 114.143 71.6675 114.672C71.6675 115.2 72.0841 115.629 72.5981 115.629Z" fill="#B9BBC3"/>
<path opacity="0.5" d="M72.5981 115.263C72.9158 115.263 73.1733 114.999 73.1733 114.672C73.1733 114.345 72.9158 114.08 72.5981 114.08C72.2803 114.08 72.0228 114.345 72.0228 114.672C72.0228 114.999 72.2803 115.263 72.5981 115.263Z" fill="white"/>
<path d="M75.1586 116.418H70.0431C69.6538 116.418 69.3381 116.742 69.3381 117.143V119.886C69.3381 120.286 69.6538 120.611 70.0431 120.611H75.1586C75.548 120.611 75.8636 120.286 75.8636 119.886V117.143C75.8636 116.742 75.548 116.418 75.1586 116.418Z" fill="#B9BBC3"/>
<path opacity="0.8" d="M75.1586 116.418H70.0431C69.6538 116.418 69.3381 116.742 69.3381 117.143V119.886C69.3381 120.286 69.6538 120.611 70.0431 120.611H75.1586C75.548 120.611 75.8636 120.286 75.8636 119.886V117.143C75.8636 116.742 75.548 116.418 75.1586 116.418Z" fill="white"/>
<path d="M75.0966 116.65H70.0939C69.8011 116.65 69.5638 116.894 69.5638 117.195V119.822C69.5638 120.123 69.8011 120.367 70.0939 120.367H75.0966C75.3894 120.367 75.6268 120.123 75.6268 119.822V117.195C75.6268 116.894 75.3894 116.65 75.0966 116.65Z" fill="#B9BBC3"/>
<path opacity="0.5" d="M75.0966 116.65H70.0939C69.8011 116.65 69.5638 116.894 69.5638 117.195V119.822C69.5638 120.123 69.8011 120.367 70.0939 120.367H75.0966C75.3894 120.367 75.6268 120.123 75.6268 119.822V117.195C75.6268 116.894 75.3894 116.65 75.0966 116.65Z" fill="white"/>
<path d="M71.6674 117.201H70.201V118.906H71.6674V117.201Z" fill="#B9BBC3"/>
<path d="M72.2879 117.792C72.2535 117.792 72.2205 117.778 72.1961 117.753C72.1718 117.728 72.1581 117.694 72.1581 117.659C72.1581 117.623 72.1718 117.589 72.1961 117.564C72.2205 117.539 72.2535 117.525 72.2879 117.525H75.012C75.0464 117.525 75.0794 117.539 75.1037 117.564C75.128 117.589 75.1417 117.623 75.1417 117.659C75.1417 117.694 75.128 117.728 75.1037 117.753C75.0794 117.778 75.0464 117.792 75.012 117.792H72.2879Z" fill="white"/>
<path d="M72.2879 119.48C72.2535 119.48 72.2205 119.466 72.1961 119.441C72.1718 119.416 72.1581 119.382 72.1581 119.347C72.1581 119.311 72.1718 119.277 72.1961 119.252C72.2205 119.227 72.2535 119.213 72.2879 119.213H75.012C75.0464 119.213 75.0794 119.227 75.1037 119.252C75.128 119.277 75.1417 119.311 75.1417 119.347C75.1417 119.382 75.128 119.416 75.1037 119.441C75.0794 119.466 75.0464 119.48 75.012 119.48H72.2879Z" fill="white"/>
<path d="M72.2879 118.645C72.2535 118.645 72.2205 118.631 72.1961 118.606C72.1718 118.581 72.1581 118.547 72.1581 118.511C72.1581 118.476 72.1718 118.442 72.1961 118.417C72.2205 118.392 72.2535 118.378 72.2879 118.378H75.012C75.0464 118.378 75.0794 118.392 75.1037 118.417C75.128 118.442 75.1417 118.476 75.1417 118.511C75.1417 118.547 75.128 118.581 75.1037 118.606C75.0794 118.631 75.0464 118.645 75.012 118.645H72.2879Z" fill="white"/>
<path opacity="0.4" d="M68.9885 105.682C68.9885 105.682 71.9382 107.88 68.6952 113.222C66.1458 110.584 63.4691 108.079 60.6751 105.717L68.9885 105.682Z" fill="white"/>
<path d="M58.4699 135.923H57.9736C57.8777 135.923 57.7987 135.871 57.8044 135.807L58.03 133.615C58.03 133.551 58.1258 133.499 58.2217 133.499H58.7237C58.8196 133.499 58.8929 133.545 58.8872 133.615L58.6673 135.801C58.656 135.871 58.5714 135.923 58.4699 135.923Z" fill="#B9BBC3"/>
<path d="M73.2692 135.871H72.7673C72.6714 135.871 72.5924 135.819 72.5981 135.755L72.8237 133.562C72.8237 133.499 72.9195 133.446 73.0154 133.446H73.5174C73.6133 133.446 73.6922 133.499 73.681 133.562L73.461 135.755C73.4497 135.813 73.3651 135.865 73.2692 135.871Z" fill="#B9BBC3"/>
<path d="M65.8696 135.894H65.3732C65.2717 135.894 65.1984 135.842 65.204 135.778L65.4296 133.586C65.4296 133.522 65.5199 133.47 65.6214 133.47H66.1177C66.2136 133.47 66.2869 133.522 66.2813 133.586L66.0613 135.778C66.0458 135.816 66.0187 135.848 65.9841 135.869C65.9496 135.89 65.9094 135.898 65.8696 135.894Z" fill="#B9BBC3"/>
<path d="M51.967 111.551C51.104 113.668 50.3314 115.774 49.6038 117.931C49.2485 119.004 48.8932 120.077 48.5886 121.22C48.2451 122.383 47.972 123.566 47.7708 124.764C47.7109 125.134 47.6733 125.508 47.658 125.883C47.6468 126.174 47.6638 126.466 47.7088 126.753C47.7088 126.863 47.7595 126.979 47.7934 127.09L47.8441 127.293C47.8729 127.382 47.9087 127.47 47.9513 127.554L48.019 127.693V127.757V127.803L48.081 127.896C48.425 128.395 48.7296 128.911 49.1131 129.381C49.8411 130.356 50.6486 131.266 51.527 132.101C52.426 132.938 53.4158 133.666 54.4768 134.27C55.0181 134.578 55.5842 134.838 56.1688 135.047C56.462 135.152 56.7666 135.25 57.0712 135.331L57.5506 135.43C57.731 135.465 57.8608 135.482 58.1146 135.511L58.4417 133.191C58.3676 133.145 58.2903 133.104 58.2104 133.069L57.9059 132.913C57.7028 132.803 57.4998 132.681 57.3024 132.553C56.9053 132.277 56.5231 131.979 56.1575 131.66C55.4139 131.011 54.7287 130.295 54.1102 129.52C53.8112 129.108 53.4954 128.731 53.219 128.284C52.9427 127.838 52.6551 127.449 52.4013 127.026C52.1475 126.602 51.9049 126.127 51.6455 125.68V125.593V125.547V125.587V125.68C51.6455 125.738 51.7019 125.814 51.7132 125.848C51.7162 125.883 51.7162 125.918 51.7132 125.953L51.747 126.086C51.747 126.191 51.747 126.162 51.747 126.086C51.7654 125.9 51.7994 125.716 51.8485 125.535C52.0937 124.535 52.3873 123.547 52.7284 122.577C53.0724 121.562 53.4334 120.524 53.8112 119.497C54.567 117.438 55.351 115.35 56.1236 113.303L51.967 111.551Z" fill="#F7978D"/>
<path d="M63.6023 131.138L62.0626 130.622C61.9515 130.583 61.834 130.567 61.7169 130.575C61.5999 130.583 61.4855 130.615 61.3806 130.669C61.2756 130.723 61.1821 130.798 61.1056 130.889C61.029 130.981 60.9709 131.087 60.9346 131.202C60.8836 131.36 60.8767 131.53 60.9146 131.691C60.9525 131.853 61.0336 132.001 61.1489 132.118L56.761 146.038C56.6791 146.302 56.7019 146.588 56.8245 146.835C56.947 147.082 57.1593 147.268 57.4152 147.355L57.7931 147.482C58.0496 147.567 58.3281 147.543 58.5679 147.417C58.8077 147.291 58.9894 147.073 59.0734 146.81L63.4613 132.89C63.6202 132.861 63.7686 132.789 63.8908 132.681C64.013 132.573 64.1043 132.432 64.155 132.275C64.2267 132.049 64.2089 131.803 64.1054 131.59C64.002 131.377 63.8212 131.215 63.6023 131.138Z" fill="#B9BBC3"/>
<path opacity="0.6" d="M63.6023 131.138L62.0626 130.622C61.9515 130.583 61.834 130.567 61.7169 130.575C61.5999 130.583 61.4855 130.615 61.3806 130.669C61.2756 130.723 61.1821 130.798 61.1056 130.889C61.029 130.981 60.9709 131.087 60.9346 131.202C60.8836 131.36 60.8767 131.53 60.9146 131.691C60.9525 131.853 61.0336 132.001 61.1489 132.118L56.761 146.038C56.6791 146.302 56.7019 146.588 56.8245 146.835C56.947 147.082 57.1593 147.268 57.4152 147.355L57.7931 147.482C58.0496 147.567 58.3281 147.543 58.5679 147.417C58.8077 147.291 58.9894 147.073 59.0734 146.81L63.4613 132.89C63.6202 132.861 63.7686 132.789 63.8908 132.681C64.013 132.573 64.1043 132.432 64.155 132.275C64.2267 132.049 64.2089 131.803 64.1054 131.59C64.002 131.377 63.8212 131.215 63.6023 131.138Z" fill="white"/>
<path d="M61.476 130.639C61.8251 130.954 62.2431 131.177 62.6943 131.289C63.1237 131.473 63.5906 131.544 64.0535 131.498C63.9454 131.328 63.7842 131.201 63.5967 131.138L62.0569 130.622C61.8668 130.561 61.6623 130.567 61.476 130.639Z" fill="#B9BBC3"/>
<path d="M60.2577 139.061C59.8573 138.927 59.5697 138.719 59.6035 138.585L57.2009 146.212C57.1781 146.285 57.1695 146.362 57.1756 146.438C57.1817 146.514 57.2024 146.588 57.2365 146.656C57.2705 146.724 57.3173 146.784 57.3741 146.833C57.4309 146.883 57.4966 146.92 57.5675 146.943L57.9454 147.065C58.0875 147.112 58.2421 147.1 58.3754 147.03C58.5086 146.961 58.6095 146.84 58.656 146.694L61.0586 139.067C61.0079 139.2 60.6525 139.2 60.2577 139.061Z" fill="#B9BBC3"/>
<path d="M61.0586 139.067C61.0191 139.2 60.6582 139.194 60.2577 139.067C59.8573 138.939 59.5584 138.719 59.6035 138.585C59.6486 138.452 60.0039 138.452 60.4044 138.585C60.8048 138.719 61.1037 138.933 61.0586 139.067Z" fill="#B9BBC3"/>
<path opacity="0.3" d="M61.0586 139.067C61.0191 139.2 60.6582 139.194 60.2577 139.067C59.8573 138.939 59.5584 138.719 59.6035 138.585C59.6486 138.452 60.0039 138.452 60.4044 138.585C60.8048 138.719 61.1037 138.933 61.0586 139.067Z" fill="black"/>
<g opacity="0.8">
<path opacity="0.8" d="M61.5437 132.373C60.0924 136.986 58.641 141.597 57.1896 146.206C57.1812 146.262 57.1924 146.319 57.2212 146.368C57.2499 146.416 57.2945 146.452 57.3467 146.469C57.399 146.487 57.4556 146.484 57.5064 146.463C57.5572 146.441 57.5988 146.402 57.6239 146.351C59.0715 141.739 60.5229 137.128 61.978 132.518C61.9864 132.463 61.9753 132.406 61.9465 132.357C61.9177 132.309 61.8732 132.273 61.8209 132.256C61.7686 132.238 61.712 132.241 61.6612 132.262C61.6104 132.284 61.5688 132.323 61.5437 132.373Z" fill="white"/>
</g>
<path d="M56.8174 135.291L60.912 136.88L61.5663 132.82C61.5663 132.82 59.1805 132.24 57.7198 133.4L56.8174 135.291Z" fill="#F7978D"/>
<path d="M63.3767 136.561L63.9407 135.094C64.0453 134.812 64.0391 134.499 63.9233 134.222C63.8074 133.945 63.5911 133.725 63.3203 133.609L61.5549 132.855L60.912 136.88L62.04 137.24C62.3049 137.313 62.5868 137.285 62.8329 137.16C63.0789 137.035 63.2722 136.822 63.3767 136.561Z" fill="#F7978D"/>
<path d="M61.0022 108.356C62.1302 113.326 54.5219 121.696 54.5219 121.696L48.3461 114.84C48.3461 114.84 51.324 108.582 55.1141 106.674C57.748 105.351 60.5059 106.14 61.0022 108.356Z" fill="#B9BBC3"/>
<path d="M61.476 96.077C62.04 98.8262 62.5589 103.866 60.692 105.711C63.5593 106.93 66.1929 108.664 68.4696 110.832C70.562 107.033 69.0336 105.676 69.0336 105.676C66.05 104.957 66.112 102.677 66.6253 100.537L61.476 96.077Z" fill="#F7978D"/>
<path opacity="0.2" d="M62.04 96.5642C62.0843 98.2008 62.4689 99.8086 63.168 101.28C63.6587 102.295 64.9953 102.741 66.3489 102.846C66.3164 102.063 66.4021 101.281 66.6027 100.526L62.04 96.5642Z" fill="black"/>
<path d="M65.1082 83.3866C64.9841 83.056 65.3507 82.7486 65.6722 82.6616C66.1345 82.5414 66.6226 82.5823 67.0599 82.778C67.4972 82.9736 67.859 83.313 68.0886 83.7428C68.3182 84.1726 68.4027 84.6686 68.3287 85.1531C68.2548 85.6376 68.0266 86.0832 67.68 86.42C67.7928 86.1532 68.3173 85.84 68.5655 85.9676C68.801 86.1321 68.9696 86.3797 69.0393 86.6636C69.1369 86.9015 69.1663 87.1631 69.1239 87.4176C69.1035 87.546 69.0448 87.6647 68.9558 87.7572C68.8669 87.8497 68.7521 87.9114 68.6275 87.9338C69.2043 88.44 69.6338 89.1004 69.8683 89.842C69.963 90.2203 69.9417 90.6194 69.8074 90.9849C69.6732 91.3503 69.4325 91.6642 69.1182 91.8836C69.7781 92.3882 70.3929 93.0784 70.3252 93.9194C70.2857 94.3436 70.1438 94.751 69.9124 95.1045C69.6809 95.458 69.3672 95.7465 68.9998 95.9436C69.3664 96.6628 70.0488 97.4574 69.7161 98.1882C69.2987 99.0988 67.9677 99.3946 67.7815 100.381C68.1481 100.479 68.5317 100.502 68.9095 100.601C69.0295 100.854 69.0851 101.134 69.0713 101.415C69.0575 101.696 68.9747 101.968 68.8306 102.208C68.6388 102.451 68.2666 102.295 67.962 102.283C67.8108 102.258 67.6561 102.272 67.5114 102.324C67.3668 102.376 67.2368 102.463 67.1329 102.579C67.0834 102.667 67.0574 102.767 67.0574 102.869C67.0574 102.971 67.0834 103.071 67.1329 103.159C67.5775 103.391 68.0588 103.541 68.5542 103.6C68.1776 103.69 67.7873 103.702 67.406 103.636C67.0246 103.571 66.6596 103.428 66.3321 103.217C66.009 103.018 65.7376 102.742 65.5411 102.411C65.3447 102.081 65.229 101.707 65.2041 101.32C65.2041 100.259 65.988 99.3946 66.7381 98.658C66.8848 98.513 67.0935 98.2404 66.913 98.1418C66.8191 98.1018 66.7185 98.0811 66.6169 98.0811C66.5153 98.0811 66.4146 98.1018 66.3208 98.1418C66.1329 98.2261 65.9262 98.2562 65.7229 98.2288C65.3859 97.8543 65.0995 97.4349 64.8713 96.9818C64.6175 96.5331 64.5465 95.9993 64.6739 95.497C64.8016 95.1495 64.9931 94.8306 65.2379 94.5574C65.4149 94.3046 65.6346 94.0866 65.8865 93.9136C66.1798 93.7396 66.5746 93.6294 66.6592 93.293C66.6789 93.1497 66.6498 93.0038 66.5768 92.8801C66.5038 92.7564 66.3914 92.6625 66.2587 92.6144C65.9916 92.5217 65.7116 92.4747 65.4297 92.4752C65.1447 92.4742 64.8707 92.3623 64.6626 92.162C64.4257 91.8836 64.155 91.3442 64.3017 91.002C64.4022 90.8336 64.5345 90.6877 64.6908 90.5728C65.2543 89.9752 65.6449 89.2281 65.8188 88.4152C65.8434 88.336 65.8434 88.2508 65.8188 88.1716C65.7624 87.986 65.503 87.9686 65.3451 88.073C65.2065 88.199 65.0748 88.3326 64.9503 88.4732C64.8093 88.595 64.5667 88.6472 64.4539 88.4732C64.155 88.073 61.4365 86.8202 63.7151 84.1464C63.9069 83.9202 63.952 83.5954 64.1776 83.404C64.3154 83.3113 64.4758 83.2604 64.6404 83.2573C64.8051 83.2543 64.9672 83.2991 65.1082 83.3866Z" fill="#263238"/>
<path d="M57.1839 92.6492C58.4981 97.0572 58.9323 98.948 61.696 100.711C65.7962 103.356 70.7707 100.752 70.7876 96.0712C70.7876 91.8256 68.6501 85.3354 64.0196 84.593C62.9911 84.422 61.9372 84.5243 60.958 84.8903C59.9788 85.2563 59.1069 85.8738 58.4252 86.6841C57.7436 87.4944 57.2748 88.4705 57.0635 89.5197C56.8521 90.5688 56.9052 91.6561 57.2178 92.6782L57.1839 92.6492Z" fill="#F7978D"/>
<path d="M55.5314 84.912C55.5822 84.5582 55.1536 84.332 54.8095 84.332C54.3305 84.3197 53.8612 84.472 53.4758 84.7648C53.0904 85.0575 52.8108 85.4741 52.6814 85.9485C52.552 86.4229 52.5801 86.9282 52.7612 87.3844C52.9423 87.8406 53.2662 88.2217 53.6815 88.4674C53.5123 88.2296 52.9314 88.0324 52.7227 88.2296C52.5305 88.4456 52.4203 88.7257 52.4125 89.0184C52.3718 89.2748 52.4011 89.5379 52.4971 89.7782C52.5483 89.8964 52.6324 89.9964 52.7388 90.0656C52.8452 90.1347 52.9691 90.17 53.095 90.1668C52.648 90.7951 52.3769 91.5373 52.311 92.3128C52.3046 92.7036 52.4153 93.087 52.6283 93.4108C52.8412 93.7345 53.1459 93.983 53.501 94.1224C52.9709 94.772 52.5253 95.584 52.7791 96.3902C52.9116 96.7935 53.1398 97.1564 53.4431 97.4461C53.7465 97.7358 54.1153 97.943 54.5162 98.049C54.3188 98.832 53.8282 99.789 54.3188 100.404C54.928 101.193 56.2872 101.164 56.6876 102.08C56.3549 102.26 55.9883 102.376 55.6555 102.556C55.5916 102.829 55.5981 103.116 55.6742 103.386C55.7503 103.657 55.8936 103.902 56.0898 104.098C56.3267 104.296 56.6538 104.052 56.9471 103.971C57.0891 103.911 57.243 103.889 57.3954 103.905C57.5478 103.921 57.6941 103.976 57.8213 104.064C57.8957 104.137 57.9493 104.229 57.9761 104.332C58.003 104.434 58.0021 104.542 57.9736 104.644C57.9115 104.847 56.9302 105.316 56.6876 105.409C57.4698 105.405 58.2184 105.082 58.7688 104.51C59.0384 104.242 59.2405 103.91 59.3574 103.543C59.4743 103.176 59.5027 102.785 59.44 102.405C59.22 101.367 58.2443 100.711 57.3532 100.172C57.1783 100.067 56.9132 99.8528 57.0655 99.7136C57.231 99.5989 57.4319 99.5514 57.6295 99.5802C57.8296 99.6217 58.037 99.6036 58.2274 99.528C58.4785 99.0855 58.6683 98.6092 58.7914 98.1128C58.8655 97.8674 58.8917 97.6094 58.8684 97.3536C58.8452 97.0978 58.773 96.8492 58.656 96.6222C58.4514 96.3112 58.1887 96.045 57.8833 95.8392C57.652 95.6378 57.3887 95.4789 57.105 95.3694C56.7835 95.2708 56.3718 95.2592 56.2195 94.9518C56.167 94.8166 56.1619 94.6667 56.2051 94.5281C56.2483 94.3894 56.3372 94.2706 56.4564 94.192C56.6974 94.0406 56.9601 93.9291 57.2347 93.8614C57.5112 93.7943 57.7529 93.6224 57.9115 93.38C58.0198 93.2002 58.0849 92.9965 58.1016 92.7858C58.1183 92.575 58.086 92.3632 58.0074 92.1678C57.8713 92.0265 57.708 91.9159 57.528 91.843C56.8583 91.3838 56.3223 90.7463 55.977 89.9986C55.9301 89.9304 55.9027 89.85 55.898 89.7666C55.898 89.5752 56.1631 89.494 56.338 89.5578C56.5023 89.6472 56.6606 89.748 56.8117 89.8594C56.9809 89.9464 57.2234 89.9348 57.3024 89.7608C57.4998 89.3084 59.8686 87.4408 57.0542 85.376C56.823 85.202 56.6989 84.8946 56.4451 84.767C56.295 84.7002 56.1296 84.6784 55.968 84.7041C55.8063 84.7297 55.655 84.8018 55.5314 84.912Z" fill="#263238"/>
<path d="M59.9983 83.6534C62.8691 80.9448 66.0331 82.0352 67.6913 82.9226C68.525 83.3742 69.2571 84.0011 69.8401 84.7624C70.4231 85.5238 70.8439 86.4027 71.0753 87.3422C71.2501 88.0788 71.0753 89.784 69.6822 90.2422C69.2945 89.3843 68.7508 88.6106 68.0804 87.9628C67.0427 87.116 65.1025 87.029 64.3298 87.2668C63.5815 89.0908 62.5637 90.785 61.3124 92.2896C60.0829 93.6874 58.2725 94.6792 56.462 94.4182C55.6152 93.3468 55.0663 92.0596 54.8736 90.6933C54.681 89.3269 54.8518 87.9324 55.3679 86.6578C56.4789 84.1522 59.9983 83.6534 59.9983 83.6534Z" fill="#263238"/>
<path d="M56.2139 95.12C56.3369 95.5453 56.5416 95.941 56.8157 96.2837C57.0898 96.6263 57.4279 96.9091 57.81 97.1152C58.8252 97.6488 59.5697 96.7788 59.502 95.6652C59.423 94.6618 58.797 93.1712 57.6803 93.09C57.4383 93.0784 57.1973 93.1285 56.9788 93.236C56.7602 93.3435 56.571 93.505 56.428 93.7061C56.285 93.9072 56.1927 94.1415 56.1592 94.3883C56.1258 94.635 56.1523 94.8864 56.2365 95.12H56.2139Z" fill="#F7978D"/>
<path d="M63.8448 92.3998C63.9294 92.7652 64.1832 93.0146 64.4088 92.9798C64.6344 92.945 64.7529 92.5796 64.6739 92.22C64.5949 91.8604 64.3299 91.6052 64.1099 91.64C63.8899 91.6748 63.7602 92.0344 63.8448 92.3998Z" fill="#263238"/>
<path d="M67.8492 91.4255C67.9282 91.7909 68.182 92.0403 68.4132 92.0055C68.6444 91.9707 68.7629 91.6111 68.6783 91.2399C68.5937 90.8687 68.3399 90.6309 68.1143 90.6599C67.8887 90.6889 67.759 91.0601 67.8492 91.4255Z" fill="#263238"/>
<path d="M68.0184 90.7062L68.808 90.248C68.808 90.248 68.5316 91.06 68.0184 90.7062Z" fill="#263238"/>
<path d="M66.9468 92.307C67.4535 93.0598 68.0568 93.7387 68.7403 94.3254C68.5945 94.5078 68.4111 94.6545 68.2033 94.7548C67.9955 94.8551 67.7685 94.9066 67.539 94.9054L66.9468 92.307Z" fill="#FF5652"/>
<path d="M66.6592 96.28C66.6769 96.2641 66.6891 96.2426 66.6938 96.2189C66.6985 96.1952 66.6955 96.1706 66.6852 96.1488C66.675 96.127 66.658 96.1093 66.637 96.0984C66.616 96.0876 66.5921 96.0841 66.5689 96.0886C66.1345 96.221 65.6758 96.2465 65.23 96.1628C64.7842 96.0792 64.3638 95.8889 64.0027 95.6072C63.9813 95.593 63.9556 95.5871 63.9303 95.5906C63.905 95.5941 63.8818 95.6068 63.8647 95.6264C63.8477 95.646 63.8381 95.6712 63.8375 95.6974C63.837 95.7237 63.8456 95.7493 63.8617 95.7696C64.2475 96.0812 64.7009 96.292 65.1832 96.3839C65.6655 96.4758 66.1623 96.4461 66.631 96.2974L66.6592 96.28Z" fill="#263238"/>
<path d="M62.604 91.2224C62.6342 91.1991 62.6592 91.1694 62.6773 91.1354C62.7774 90.8802 62.9348 90.653 63.1368 90.4726C63.3388 90.2921 63.5795 90.1634 63.8392 90.0972C63.8677 90.0935 63.8953 90.084 63.9202 90.0692C63.945 90.0543 63.9668 90.0345 63.9841 90.0108C64.0013 89.9872 64.0138 89.9602 64.0207 89.9315C64.0276 89.9027 64.0289 89.8729 64.0243 89.8437C64.0198 89.8144 64.0095 89.7865 63.9943 89.7614C63.979 89.7363 63.9589 89.7147 63.9353 89.6978C63.9118 89.6808 63.8851 89.6689 63.8569 89.6628C63.8288 89.6567 63.7997 89.6565 63.7715 89.6622C63.4408 89.7396 63.133 89.8975 62.874 90.1226C62.6149 90.3476 62.4121 90.6333 62.2825 90.9556C62.2715 90.9826 62.2659 91.0116 62.2659 91.0409C62.2659 91.0702 62.2716 91.0991 62.2826 91.1261C62.2936 91.1531 62.3098 91.1776 62.3301 91.1981C62.3504 91.2186 62.3745 91.2348 62.401 91.2456C62.4338 91.2605 62.4699 91.2662 62.5055 91.2622C62.5412 91.2581 62.5752 91.2444 62.604 91.2224Z" fill="#263238"/>
<path d="M68.9885 89.6506H69.0167C69.0368 89.6301 69.0528 89.6057 69.0637 89.5788C69.0746 89.5519 69.0802 89.5231 69.0802 89.494C69.0802 89.4649 69.0746 89.436 69.0637 89.4091C69.0528 89.3823 69.0368 89.3579 69.0167 89.3374C68.7756 89.0997 68.4837 88.9235 68.1644 88.8227C67.8451 88.722 67.5073 88.6996 67.1781 88.7574C67.1239 88.7712 67.077 88.8062 67.0475 88.8549C67.0181 88.9036 67.0082 88.9623 67.0201 89.0184C67.0268 89.0466 67.0387 89.0732 67.0553 89.0966C67.072 89.1201 67.0929 89.1399 67.1171 89.155C67.1412 89.1701 67.1679 89.1801 67.1958 89.1846C67.2237 89.189 67.2522 89.1877 67.2796 89.1808C67.544 89.1344 67.8154 89.1533 68.0714 89.236C68.3273 89.3187 68.5605 89.4628 68.7516 89.6564C68.7867 89.681 68.8285 89.6937 68.871 89.6927C68.9135 89.6917 68.9546 89.6769 68.9885 89.6506Z" fill="#263238"/>
<path d="M64.014 91.6864L64.8092 91.2224C64.8092 91.2224 64.5329 92.017 64.014 91.6864Z" fill="#263238"/>
<path d="M107.16 223.607C106.936 223.607 106.72 223.516 106.562 223.353C106.403 223.189 106.314 222.968 106.314 222.737V58.0754C106.314 57.8447 106.403 57.6234 106.562 57.4603C106.72 57.2971 106.936 57.2054 107.16 57.2054C107.384 57.2054 107.6 57.2971 107.758 57.4603C107.917 57.6234 108.006 57.8447 108.006 58.0754V222.72C108.008 222.836 107.988 222.951 107.947 223.058C107.905 223.166 107.843 223.264 107.764 223.346C107.686 223.429 107.591 223.495 107.488 223.54C107.384 223.584 107.273 223.607 107.16 223.607Z" fill="#263238"/>
<path d="M127.317 67.7847H87.1662C86.9418 67.7847 86.7266 67.693 86.568 67.5299C86.4093 67.3667 86.3202 67.1454 86.3202 66.9147C86.3202 66.6839 86.4093 66.4627 86.568 66.2995C86.7266 66.1363 86.9418 66.0447 87.1662 66.0447H127.317C127.542 66.0447 127.757 66.1363 127.916 66.2995C128.074 66.4627 128.163 66.6839 128.163 66.9147C128.163 67.1454 128.074 67.3667 127.916 67.5299C127.757 67.693 127.542 67.7847 127.317 67.7847Z" fill="#263238"/>
<path d="M95.88 232.226L105.31 231.269V215.609H109.049V231.269L118.519 232.226C118.972 232.272 119.393 232.49 119.698 232.838C120.004 233.185 120.172 233.637 120.171 234.105V235.561H94.188V234.105C94.188 233.631 94.3623 233.173 94.676 232.825C94.9897 232.477 95.4197 232.263 95.88 232.226Z" fill="#263238"/>
<path opacity="0.2" d="M95.88 232.226L105.31 231.269V215.609H109.049V231.269L118.519 232.226C118.972 232.272 119.393 232.49 119.698 232.838C120.004 233.185 120.172 233.637 120.171 234.105V235.561H94.188V234.105C94.188 233.631 94.3623 233.173 94.676 232.825C94.9897 232.477 95.4197 232.263 95.88 232.226Z" fill="white"/>
<path d="M116.714 237.365C116.713 237.863 116.856 238.35 117.124 238.765C117.392 239.18 117.774 239.503 118.221 239.695C118.668 239.886 119.161 239.937 119.636 239.84C120.111 239.744 120.548 239.505 120.891 239.153C121.234 238.801 121.467 238.353 121.562 237.864C121.657 237.376 121.609 236.869 121.424 236.409C121.239 235.949 120.925 235.555 120.522 235.278C120.12 235.001 119.646 234.854 119.162 234.854C118.841 234.853 118.523 234.917 118.226 235.043C117.929 235.169 117.659 235.354 117.431 235.587C117.204 235.82 117.024 236.098 116.901 236.403C116.777 236.708 116.714 237.035 116.714 237.365Z" fill="#263238"/>
<path d="M97.6509 237.365C97.6521 237.863 97.5093 238.351 97.2408 238.766C96.9722 239.181 96.59 239.504 96.1425 239.695C95.695 239.887 95.2024 239.937 94.727 239.84C94.2517 239.743 93.815 239.503 93.4724 239.151C93.1297 238.798 92.8965 238.349 92.8022 237.861C92.7079 237.372 92.7569 236.865 92.9428 236.405C93.1288 235.945 93.4434 235.552 93.8468 235.275C94.2502 234.999 94.7242 234.852 95.2088 234.854C95.5295 234.854 95.8471 234.919 96.1434 235.045C96.4397 235.171 96.7089 235.356 96.9357 235.589C97.1624 235.822 97.3423 236.099 97.465 236.404C97.5878 236.709 97.6509 237.035 97.6509 237.365Z" fill="#263238"/>
<path d="M101.887 90.5149C101.215 91.8431 100.195 93.0089 99.952 93.0089C99.8674 93.0089 99.7603 93.2525 99.6531 93.5889C99.5055 94.034 99.2246 94.4197 98.8508 94.6906C98.4769 94.9615 98.0293 95.1037 97.572 95.0969H92.8287C92.3714 95.1037 91.9238 94.9615 91.5499 94.6906C91.1761 94.4197 90.8952 94.034 90.7476 93.5889C90.646 93.2699 90.5389 93.0089 90.4486 93.0089C90.1948 93.0089 89.1853 91.8489 88.5141 90.5149C87.843 89.1809 88.5987 84.1987 88.9371 82.2847C89.2755 80.3707 87.843 76.2179 88.9371 74.5533C89.8734 73.1265 100.527 73.1265 101.464 74.5533C102.558 76.2179 101.131 80.3533 101.464 82.2847C101.796 84.2161 102.558 89.1867 101.887 90.5149Z" fill="#B9BBC3"/>
<path opacity="0.5" d="M101.887 90.5149C101.215 91.8431 100.195 93.0089 99.952 93.0089C99.8674 93.0089 99.7603 93.2525 99.6531 93.5889C99.5055 94.034 99.2246 94.4197 98.8508 94.6906C98.4769 94.9615 98.0293 95.1037 97.572 95.0969H92.8287C92.3714 95.1037 91.9238 94.9615 91.5499 94.6906C91.1761 94.4197 90.8952 94.034 90.7476 93.5889C90.646 93.2699 90.5389 93.0089 90.4486 93.0089C90.1948 93.0089 89.1853 91.8489 88.5141 90.5149C87.843 89.1809 88.5987 84.1987 88.9371 82.2847C89.2755 80.3707 87.843 76.2179 88.9371 74.5533C89.8734 73.1265 100.527 73.1265 101.464 74.5533C102.558 76.2179 101.131 80.3533 101.464 82.2847C101.796 84.2161 102.558 89.1867 101.887 90.5149Z" fill="white"/>
<path d="M97.008 71.4908H93.3476L92.2196 73.6716H98.136L97.008 71.4908ZM95.2596 73.08C94.329 73.08 93.5676 72.8364 93.5676 72.5464C93.5676 72.2564 94.3233 72.0128 95.2596 72.0128C96.1958 72.0128 96.9516 72.2506 96.9516 72.5464C96.9516 72.8422 96.1902 73.08 95.2596 73.08Z" fill="#B9BBC3"/>
<path d="M89.879 82.2905C90.1723 80.5505 88.9258 76.7979 89.879 75.2899C90.6968 73.9965 99.9633 73.9965 100.787 75.2899C101.734 76.7979 100.493 80.5563 100.787 82.2905C101.08 84.0247 101.734 88.5371 101.148 89.7435C100.561 90.9499 99.687 91.9997 99.4557 91.9997C99.3824 91.9997 99.2865 92.2259 99.1963 92.5159C99.1028 92.826 98.935 93.1069 98.7083 93.3329C98.4816 93.559 98.2034 93.7227 97.8991 93.8093L97.9555 96.8195C97.9555 96.9487 97.9056 97.0726 97.8167 97.164C97.7279 97.2553 97.6074 97.3067 97.4817 97.3067C97.3555 97.3067 97.2345 97.2555 97.1447 97.1643C97.055 97.0731 97.0038 96.9492 97.0023 96.8195L96.9628 94.4647C96.9628 94.3108 96.9034 94.1633 96.7976 94.0546C96.6919 93.9458 96.5484 93.8847 96.3988 93.8847H96.3481C96.1985 93.8847 96.055 93.9458 95.9493 94.0546C95.8435 94.1633 95.7841 94.3108 95.7841 94.4647L95.8236 96.7847C95.8236 96.9139 95.7736 97.0378 95.6848 97.1292C95.596 97.2205 95.4754 97.2719 95.3498 97.2719C95.2242 97.2719 95.1037 97.2205 95.0148 97.1292C94.926 97.0378 94.876 96.9139 94.876 96.7847L94.8309 94.4299C94.8309 94.276 94.7715 94.1285 94.6657 94.0198C94.56 93.911 94.4165 93.8499 94.2669 93.8499H93.9624C93.8128 93.8499 93.6693 93.911 93.5636 94.0198C93.4578 94.1285 93.3984 94.276 93.3984 94.4299L93.4435 96.7499C93.4307 96.8707 93.375 96.9823 93.287 97.0635C93.199 97.1446 93.0851 97.1895 92.9669 97.1895C92.8488 97.1895 92.7348 97.1446 92.6468 97.0635C92.5588 96.9823 92.5031 96.8707 92.4903 96.7499L92.4339 93.5889C92.2127 93.4682 92.017 93.3035 91.8582 93.1044C91.6994 92.9052 91.5807 92.6756 91.509 92.4289C91.4187 92.1389 91.3228 91.9127 91.2495 91.9127C91.0296 91.9127 90.1497 90.8571 89.5575 89.6565C88.9653 88.4559 89.6252 83.9319 89.9185 82.2035" fill="white"/>
<path d="M99.4276 79.4601C99.4276 79.8429 99.1343 80.0401 98.5646 80.0401H97.4366V77.8245H98.4857C99.0497 77.8245 99.3035 78.0565 99.3035 78.4045C99.3059 78.5055 99.2801 78.6051 99.2291 78.6914C99.1781 78.7778 99.1041 78.8473 99.0158 78.8917C99.1359 78.9263 99.2415 79.0008 99.316 79.1037C99.3905 79.2065 99.4297 79.3318 99.4276 79.4601ZM97.9499 78.2363V78.7583H98.4462C98.6887 78.7583 98.8185 78.6655 98.8185 78.4915C98.8185 78.3175 98.6887 78.2363 98.4462 78.2363H97.9499ZM98.9256 79.3963C98.9256 79.2107 98.7902 79.1237 98.5308 79.1237H97.9668V79.6689H98.5308C98.7902 79.6689 98.9256 79.5877 98.9256 79.3963Z" fill="black"/>
<path d="M100.787 82.2904C101.074 84.0304 101.734 88.537 101.148 89.7434C100.561 90.9498 99.687 91.9996 99.4557 91.9996C99.3824 91.9996 99.2865 92.2258 99.1963 92.5158C99.1028 92.8259 98.935 93.1068 98.7083 93.3328C98.4817 93.5588 98.2034 93.7226 97.8991 93.8092L97.9555 96.8194C97.9555 96.9486 97.9056 97.0725 97.8167 97.1639C97.7279 97.2552 97.6074 97.3066 97.4817 97.3066C97.3556 97.3066 97.2345 97.2554 97.1447 97.1642C97.055 97.073 97.0038 96.9491 97.0023 96.8194L96.9629 94.4646C96.9629 94.3107 96.9034 94.1632 96.7977 94.0544C96.6919 93.9457 96.5484 93.8846 96.3989 93.8846H96.3481C96.1985 93.8846 96.0551 93.9457 95.9493 94.0544C95.8435 94.1632 95.7841 94.3107 95.7841 94.4646L95.8236 96.7846C95.8236 96.9138 95.7737 97.0377 95.6848 97.1291C95.596 97.2204 95.4755 97.2718 95.3498 97.2718C95.2242 97.2718 95.1037 97.2204 95.0148 97.1291C94.926 97.0377 94.8761 96.9138 94.8761 96.7846L94.8309 94.4298C94.8309 94.2759 94.7715 94.1284 94.6657 94.0196C94.56 93.9109 94.4165 93.8498 94.2669 93.8498H93.9624C93.8128 93.8498 93.6693 93.9109 93.5636 94.0196C93.4578 94.1284 93.3984 94.2759 93.3984 94.4298L93.4435 96.7498C93.4307 96.8705 93.375 96.9822 93.287 97.0634C93.1991 97.1445 93.0851 97.1894 92.9669 97.1894C92.8488 97.1894 92.7348 97.1445 92.6468 97.0634C92.5589 96.9822 92.5031 96.8705 92.4903 96.7498L92.4339 93.5888C92.2127 93.4681 92.017 93.3034 91.8582 93.1043C91.6994 92.9051 91.5807 92.6755 91.509 92.4288C91.4187 92.1388 91.3228 91.9126 91.2495 91.9126C91.0296 91.9126 90.1497 90.857 89.5575 89.6564C88.9653 88.4558 89.6252 83.9318 89.9185 82.2034C91.5922 83.1394 93.4671 83.6298 95.3724 83.6298C97.2776 83.6298 99.1525 83.1394 100.826 82.2034L100.787 82.2904Z" fill="#B9BBC3"/>
<path opacity="0.2" d="M92.1125 96.0654H93.7255V97.0804C93.724 97.2502 93.6574 97.4124 93.5402 97.5319C93.4229 97.6514 93.2645 97.7184 93.0995 97.7184H92.7329C92.5683 97.7184 92.4105 97.6512 92.2942 97.5316C92.1778 97.4119 92.1125 97.2496 92.1125 97.0804V96.0654Z" fill="white"/>
<path opacity="0.2" d="M96.6921 96.0654H98.2995V97.0804C98.2995 97.2496 98.2342 97.4119 98.1178 97.5316C98.0015 97.6512 97.8437 97.7184 97.6791 97.7184H97.3125C97.148 97.7184 96.9902 97.6512 96.8738 97.5316C96.7575 97.4119 96.6921 97.2496 96.6921 97.0804V96.0654Z" fill="white"/>
<path d="M97.0756 73.341C96.5032 73.3395 95.9546 73.105 95.5499 72.6887C95.1451 72.2724 94.917 71.7083 94.9155 71.1196V66.9146C94.9155 66.8377 94.9452 66.764 94.9981 66.7096C95.051 66.6552 95.1227 66.6246 95.1975 66.6246C95.2723 66.6246 95.344 66.6552 95.3969 66.7096C95.4498 66.764 95.4795 66.8377 95.4795 66.9146V71.1196C95.4795 71.555 95.6477 71.9725 95.947 72.2803C96.2463 72.5881 96.6523 72.761 97.0756 72.761C97.499 72.761 97.9049 72.5881 98.2043 72.2803C98.5036 71.9725 98.6718 71.555 98.6718 71.1196V70.5976C98.6718 70.5207 98.7015 70.447 98.7544 70.3926C98.8072 70.3382 98.879 70.3076 98.9538 70.3076C99.0285 70.3076 99.1003 70.3382 99.1532 70.3926C99.206 70.447 99.2358 70.5207 99.2358 70.5976V71.1196C99.2343 71.7083 99.0062 72.2724 98.6014 72.6887C98.1967 73.105 97.6481 73.3395 97.0756 73.341Z" fill="#B9BBC3"/>
<path d="M140.002 152.03H132.106C127.243 152.031 122.427 151.047 117.934 149.134C113.442 147.221 109.359 144.417 105.921 140.881C102.482 137.344 99.7548 133.146 97.8946 128.526C96.0343 123.905 95.0776 118.953 95.0791 113.953V96.9934H95.6431V113.953C95.6416 118.877 96.5837 123.754 98.4156 128.304C100.248 132.854 102.933 136.988 106.319 140.47C109.706 143.953 113.726 146.715 118.15 148.598C122.575 150.482 127.317 151.451 132.106 151.45H140.002V152.03Z" fill="#B9BBC3"/>
<path d="M142.117 152.267H137.864L138.18 151.212H142.37L142.117 152.267Z" fill="white"/>
<path d="M141.677 150.672C140.814 150.974 139.866 152.476 139.776 153.242H138.817C138.817 152.378 139.816 150.922 140.724 150.672H141.677Z" fill="#B9BBC3"/>
</svg>
