<svg xmlns="http://www.w3.org/2000/svg" width="333" height="333" fill="none" viewBox="0 0 333 333"><path fill="#EBEBEB" d="M333 254.678H0V254.845H333V254.678Z"/><path fill="#EBEBEB" d="M295.631 264.275H255.744V264.442H295.631V264.275Z"/><path fill="#EBEBEB" d="M225.707 260.672H190.696V260.839H225.707V260.672Z"/><path fill="#EBEBEB" d="M252.141 264.195H241.252V264.362H252.141V264.195Z"/><path fill="#EBEBEB" d="M69.7834 260.592H37.3691V260.759H69.7834V260.592Z"/><path fill="#EBEBEB" d="M79.6869 260.592H72.7405V260.759H79.6869V260.592Z"/><path fill="#EBEBEB" d="M134.752 262.024H112.341V262.191H134.752V262.024Z"/><path fill="#EBEBEB" d="M157.842 224.975H29.244C28.2365 224.973 27.271 224.571 26.5592 223.859C25.8475 223.146 25.4478 222.179 25.4478 221.172V40.3994C25.4565 39.3978 25.8601 38.4401 26.5709 37.7343C27.2817 37.0285 28.2423 36.6316 29.244 36.6299H157.842C158.85 36.6299 159.818 37.0305 160.531 37.7437C161.244 38.4569 161.645 39.4242 161.645 40.4327V221.172C161.645 222.18 161.244 223.148 160.531 223.861C159.818 224.574 158.85 224.975 157.842 224.975ZM29.244 36.7631C28.2807 36.7648 27.3575 37.1487 26.677 37.8305C25.9965 38.5123 25.6143 39.4362 25.6143 40.3994V221.172C25.6143 222.135 25.9965 223.059 26.677 223.741C27.3575 224.423 28.2807 224.806 29.244 224.808H157.842C158.806 224.806 159.73 224.423 160.411 223.741C161.093 223.06 161.477 222.136 161.478 221.172V40.3994C161.477 39.4356 161.093 38.5117 160.411 37.8301C159.73 37.1485 158.806 36.7648 157.842 36.7631H29.244Z"/><path fill="#EBEBEB" d="M301.905 224.975H173.3C172.292 224.973 171.326 224.572 170.613 223.859C169.9 223.146 169.499 222.18 169.497 221.172V40.3994C169.508 39.3972 169.913 38.4395 170.625 37.7338C171.336 37.0282 172.298 36.6316 173.3 36.6299H301.905C302.905 36.6333 303.864 37.031 304.573 37.7366C305.283 38.4422 305.685 39.3989 305.694 40.3994V221.172C305.694 222.178 305.295 223.143 304.585 223.856C303.875 224.569 302.911 224.971 301.905 224.975ZM173.3 36.7631C172.336 36.7648 171.412 37.1485 170.731 37.8301C170.049 38.5117 169.665 39.4356 169.664 40.3994V221.172C169.665 222.136 170.049 223.06 170.731 223.741C171.412 224.423 172.336 224.806 173.3 224.808H301.905C302.868 224.806 303.792 224.423 304.474 223.741C305.155 223.06 305.539 222.136 305.541 221.172V40.3994C305.539 39.4356 305.155 38.5117 304.474 37.8301C303.792 37.1485 302.868 36.7648 301.905 36.7631H173.3Z"/><path fill="#EBEBEB" d="M301.771 188.012H31.2288V192.687H301.771V188.012Z"/><path fill="#F0F0F0" d="M75.0449 164.255L257.948 164.255V53.9125L75.0449 53.9125V164.255Z"/><path fill="#FAFAFA" d="M253.007 159.314V58.8545L79.9867 58.8545V159.314H253.007Z"/><path fill="#fff" d="M224.988 159.314L193.46 58.8545H162.238L193.766 159.314H224.988Z"/><path fill="#fff" d="M184.089 159.314L152.561 58.8545H140.386L171.915 159.314H184.089Z"/><path fill="#E6E6E6" d="M80.6194 159.314V58.8545H79.9933V159.314H80.6194Z"/><path fill="#F5F5F5" d="M299.474 192.687H33.5198V254.678H299.474V192.687Z"/><path fill="#FAFAFA" d="M190.356 192.687H172.447L142.644 254.678H160.553L190.356 192.687Z"/><path fill="#FAFAFA" d="M272.447 192.687H254.539L224.735 254.678H242.644L272.447 192.687Z"/><path fill="#FAFAFA" d="M165.721 192.687H147.812L118.015 254.678H135.924L165.721 192.687Z"/><path fill="#F5F5F5" d="M58.2218 183.816L52.6141 177.322V165.601C52.7231 165.597 52.8264 165.552 52.9022 165.473C52.9781 165.395 53.0204 165.29 53.0204 165.181C53.0204 165.068 52.9755 164.96 52.8955 164.88C52.8156 164.8 52.7072 164.755 52.5941 164.755H46.6201C46.5071 164.755 46.3987 164.8 46.3187 164.88C46.2388 164.96 46.1939 165.068 46.1939 165.181C46.1938 165.29 46.2362 165.395 46.312 165.473C46.3879 165.552 46.4912 165.597 46.6001 165.601V177.322L41.0124 183.816C40.6953 184.182 40.4904 184.632 40.4222 185.112C40.3539 185.592 40.4251 186.081 40.6274 186.521C40.8296 186.961 41.1543 187.334 41.5627 187.595C41.9711 187.856 42.4459 187.993 42.9305 187.992H56.3038C56.7883 187.993 57.2631 187.856 57.6715 187.595C58.0799 187.334 58.4046 186.961 58.6069 186.521C58.8091 186.081 58.8804 185.592 58.8121 185.112C58.7438 184.632 58.5389 184.182 58.2218 183.816Z"/><path fill="#F5F5F5" d="M201.039 183.816L195.431 177.303V152.661C195.544 152.661 195.653 152.616 195.733 152.536C195.812 152.456 195.857 152.347 195.857 152.234C195.857 152.121 195.812 152.013 195.733 151.933C195.653 151.853 195.544 151.808 195.431 151.808H189.484C189.371 151.808 189.262 151.853 189.182 151.933C189.102 152.013 189.058 152.121 189.058 152.234C189.058 152.347 189.102 152.456 189.182 152.536C189.262 152.616 189.371 152.661 189.484 152.661V177.303L183.816 183.816C183.499 184.182 183.294 184.632 183.226 185.112C183.158 185.592 183.229 186.081 183.431 186.521C183.633 186.962 183.958 187.334 184.366 187.595C184.775 187.856 185.25 187.994 185.734 187.992H199.134C199.618 187.991 200.091 187.852 200.497 187.59C200.903 187.328 201.226 186.955 201.427 186.515C201.627 186.075 201.697 185.587 201.629 185.109C201.56 184.63 201.355 184.182 201.039 183.816Z"/><path fill="#E0E0E0" d="M141.865 187.978H95.4578L99.1208 141.565H141.865V187.978Z"/><path fill="#F0F0F0" d="M162.291 175.531H115.884L111.675 141.565H158.082L162.291 175.531Z"/><path fill="#F0F0F0" d="M162.291 175.531H115.884L130.376 188.012H176.783L162.291 175.531Z"/><path fill="#E0E0E0" d="M117.935 170.602L114.952 146.52C114.905 146.234 114.923 145.942 115.003 145.664C115.083 145.386 115.223 145.129 115.414 144.912C115.605 144.695 115.842 144.523 116.107 144.408C116.373 144.294 116.661 144.239 116.95 144.249H153.493C154.117 144.268 154.714 144.507 155.18 144.922C155.646 145.337 155.952 145.902 156.044 146.52L159.028 170.622C159.073 170.907 159.055 171.199 158.974 171.476C158.894 171.753 158.753 172.009 158.562 172.225C158.371 172.441 158.135 172.613 157.87 172.727C157.605 172.842 157.318 172.896 157.03 172.887H120.486C119.86 172.866 119.262 172.626 118.795 172.209C118.329 171.791 118.024 171.222 117.935 170.602Z"/><path fill="#E0E0E0" d="M240.319 187.979H278.661L275.637 149.644H240.319V187.979Z"/><path fill="#F0F0F0" d="M223.45 177.702H261.785L265.268 149.644H226.926L223.45 177.702Z"/><path fill="#F0F0F0" d="M223.45 177.702H261.785L249.817 188.012H211.475L223.45 177.702Z"/><path fill="#E0E0E0" d="M260.093 173.632L262.564 153.712C262.601 153.477 262.586 153.237 262.52 153.009C262.454 152.78 262.338 152.569 262.181 152.39C262.024 152.212 261.829 152.07 261.611 151.975C261.393 151.88 261.157 151.834 260.919 151.841H230.729C230.214 151.855 229.72 152.05 229.335 152.392C228.95 152.735 228.698 153.202 228.624 153.712L226.154 173.632C226.116 173.867 226.131 174.107 226.197 174.335C226.263 174.563 226.378 174.774 226.534 174.952C226.691 175.131 226.884 175.273 227.102 175.368C227.319 175.463 227.555 175.51 227.792 175.504H257.988C258.504 175.49 258.997 175.295 259.382 174.953C259.768 174.61 260.019 174.143 260.093 173.632Z"/><path fill="#F5F5F5" d="M166.5 284.755C237.817 284.755 295.631 281.38 295.631 277.216C295.631 273.052 237.817 269.677 166.5 269.677C95.1829 269.677 37.3691 273.052 37.3691 277.216C37.3691 281.38 95.1829 284.755 166.5 284.755Z"/><path fill="#F88486" d="M57.9421 83.4629L93.6797 219.993C94.7783 224.144 97.4755 227.692 101.182 229.861C104.888 232.03 109.302 232.644 113.46 231.568C117.611 230.469 121.159 227.772 123.328 224.066C125.497 220.359 126.111 215.945 125.035 211.788L89.2974 75.2578L57.9421 83.4629Z" opacity=".2"/><path fill="#F88486" d="M112.447 227.705C109.315 228.521 105.987 228.061 103.193 226.427C100.399 224.793 98.367 222.118 97.5423 218.988L70.5959 115.957C70.5959 115.957 76.0505 112.234 82.4108 112.867C86.5428 113.163 90.6871 112.497 94.5187 110.922L121.159 212.82C121.97 215.949 121.509 219.272 119.877 222.062C118.244 224.851 115.573 226.881 112.447 227.705Z"/><path fill="#000" d="M95.5844 174.572C95.5844 175.137 95.4168 175.689 95.1029 176.159C94.7889 176.629 94.3427 176.995 93.8206 177.212C93.2986 177.428 92.7241 177.484 92.1699 177.374C91.6156 177.264 91.1065 176.992 90.707 176.592C90.3074 176.193 90.0353 175.684 89.925 175.129C89.8148 174.575 89.8714 174.001 90.0876 173.479C90.3039 172.957 90.6701 172.51 91.1399 172.196C91.6098 171.882 92.1622 171.715 92.7273 171.715C93.4845 171.717 94.2102 172.018 94.7456 172.554C95.2811 173.089 95.5826 173.815 95.5844 174.572Z" opacity=".2"/><path fill="#F88486" d="M94.0059 174.572C94.0072 174.825 93.9334 175.073 93.7937 175.284C93.654 175.495 93.4547 175.66 93.2212 175.758C92.9876 175.856 92.7303 175.882 92.4818 175.834C92.2333 175.785 92.0049 175.664 91.8254 175.485C91.6459 175.307 91.5234 175.079 91.4735 174.83C91.4237 174.582 91.4486 174.325 91.5452 174.091C91.6418 173.857 91.8057 173.657 92.0161 173.516C92.2265 173.375 92.474 173.3 92.7272 173.3C93.0652 173.3 93.3894 173.434 93.629 173.672C93.8687 173.91 94.0042 174.234 94.0059 174.572Z"/><path fill="#000" d="M96.3302 144.075C96.3315 144.412 96.2328 144.741 96.0467 145.021C95.8606 145.302 95.5955 145.52 95.2849 145.65C94.9743 145.779 94.6323 145.813 94.3022 145.748C93.9721 145.683 93.6689 145.521 93.431 145.283C93.1931 145.045 93.0312 144.742 92.9659 144.412C92.9006 144.082 92.9348 143.74 93.0641 143.429C93.1935 143.119 93.4122 142.853 93.6925 142.667C93.9728 142.481 94.3021 142.382 94.6385 142.384C95.0867 142.386 95.5159 142.564 95.8328 142.881C96.1496 143.198 96.3284 143.627 96.3302 144.075Z" opacity=".2"/><path fill="#F88486" d="M95.3912 144.076C95.3926 144.227 95.349 144.374 95.2661 144.5C95.1832 144.626 95.0646 144.724 94.9256 144.783C94.7866 144.841 94.6334 144.857 94.4855 144.827C94.3377 144.798 94.2018 144.726 94.0952 144.619C93.9886 144.513 93.9162 144.377 93.8871 144.229C93.858 144.081 93.8736 143.928 93.9319 143.789C93.9902 143.65 94.0885 143.531 94.2144 143.448C94.3402 143.366 94.488 143.322 94.6387 143.323C94.8377 143.325 95.0281 143.405 95.1689 143.546C95.3097 143.686 95.3895 143.877 95.3912 144.076Z"/><path fill="#000" d="M103.064 209.903C105.087 209.903 106.727 208.263 106.727 206.24C106.727 204.217 105.087 202.577 103.064 202.577C101.041 202.577 99.4006 204.217 99.4006 206.24C99.4006 208.263 101.041 209.903 103.064 209.903Z" opacity=".2"/><path fill="#F88486" d="M103.064 207.878C103.969 207.878 104.702 207.145 104.702 206.24C104.702 205.335 103.969 204.602 103.064 204.602C102.159 204.602 101.425 205.335 101.425 206.24C101.425 207.145 102.159 207.878 103.064 207.878Z"/><path fill="#000" d="M106.66 192.061C107.811 192.061 108.745 191.127 108.745 189.976C108.745 188.825 107.811 187.892 106.66 187.892C105.509 187.892 104.575 188.825 104.575 189.976C104.575 191.127 105.509 192.061 106.66 192.061Z" opacity=".2"/><path fill="#F88486" d="M107.586 189.976C107.586 190.161 107.531 190.342 107.428 190.495C107.325 190.649 107.179 190.768 107.009 190.838C106.838 190.909 106.65 190.927 106.469 190.89C106.288 190.854 106.122 190.764 105.992 190.633C105.862 190.502 105.773 190.335 105.738 190.154C105.703 189.973 105.722 189.785 105.794 189.615C105.865 189.445 105.986 189.299 106.14 189.198C106.294 189.096 106.475 189.043 106.66 189.044C106.906 189.046 107.142 189.145 107.315 189.319C107.488 189.494 107.586 189.73 107.586 189.976Z"/><path fill="#000" d="M112.881 218.901C114.23 218.901 115.325 217.806 115.325 216.456C115.325 215.107 114.23 214.012 112.881 214.012C111.531 214.012 110.436 215.107 110.436 216.456C110.436 217.806 111.531 218.901 112.881 218.901Z" opacity=".2"/><path fill="#F88486" d="M113.973 216.45C113.973 216.666 113.909 216.877 113.788 217.056C113.668 217.236 113.498 217.376 113.298 217.459C113.099 217.541 112.879 217.563 112.667 217.521C112.455 217.479 112.261 217.375 112.108 217.222C111.955 217.069 111.851 216.875 111.809 216.663C111.767 216.451 111.789 216.231 111.871 216.032C111.954 215.832 112.094 215.662 112.274 215.542C112.453 215.421 112.664 215.357 112.88 215.357C113.17 215.357 113.448 215.472 113.653 215.677C113.857 215.882 113.973 216.16 113.973 216.45Z"/><path fill="#000" d="M97.1694 158.421C97.1694 158.986 97.0018 159.539 96.6878 160.008C96.3739 160.478 95.9277 160.845 95.4056 161.061C94.8835 161.277 94.309 161.334 93.7548 161.223C93.2006 161.113 92.6915 160.841 92.2919 160.441C91.8923 160.042 91.6202 159.533 91.51 158.979C91.3997 158.424 91.4563 157.85 91.6726 157.328C91.8888 156.806 92.255 156.359 92.7249 156.045C93.1947 155.732 93.7471 155.564 94.3122 155.564C95.07 155.564 95.7967 155.865 96.3325 156.401C96.8683 156.937 97.1694 157.663 97.1694 158.421Z" opacity=".2"/><path fill="#F88486" d="M96.3302 158.421C96.3302 158.817 96.213 159.203 95.9935 159.531C95.774 159.86 95.4619 160.116 95.0968 160.267C94.7317 160.418 94.33 160.458 93.9424 160.381C93.5549 160.304 93.1989 160.114 92.9194 159.834C92.64 159.555 92.4497 159.199 92.3726 158.811C92.2955 158.424 92.3351 158.022 92.4863 157.657C92.6375 157.292 92.8936 156.98 93.2222 156.76C93.5508 156.541 93.9371 156.423 94.3322 156.423C94.8621 156.423 95.3703 156.634 95.745 157.009C96.1197 157.383 96.3302 157.891 96.3302 158.421Z"/><path fill="#000" d="M103.656 169.903C103.656 170.298 103.539 170.685 103.319 171.013C103.1 171.342 102.788 171.598 102.423 171.749C102.058 171.9 101.656 171.94 101.268 171.863C100.881 171.786 100.525 171.596 100.245 171.316C99.9659 171.037 99.7756 170.681 99.6985 170.293C99.6215 169.905 99.661 169.504 99.8122 169.139C99.9635 168.774 100.22 168.462 100.548 168.242C100.877 168.022 101.263 167.905 101.658 167.905C102.188 167.905 102.696 168.116 103.071 168.49C103.446 168.865 103.656 169.373 103.656 169.903Z" opacity=".2"/><path fill="#F88486" d="M103.064 169.903C103.069 170.188 102.989 170.467 102.835 170.706C102.681 170.945 102.459 171.133 102.198 171.245C101.937 171.358 101.648 171.39 101.369 171.338C101.089 171.285 100.832 171.151 100.629 170.952C100.426 170.753 100.287 170.498 100.229 170.219C100.172 169.941 100.199 169.652 100.306 169.388C100.414 169.125 100.597 168.9 100.833 168.741C101.069 168.583 101.347 168.498 101.632 168.498C102.007 168.498 102.367 168.645 102.635 168.908C102.903 169.171 103.057 169.528 103.064 169.903Z"/><path fill="#fff" d="M83.232 91.5336L71.2031 94.6826L81.9977 135.917L94.0266 132.768L83.232 91.5336Z"/><path fill="#F88486" d="M87.6184 52.6209L86.9741 52.7896L88.2526 57.6733L88.8969 57.5046L87.6184 52.6209Z"/><path fill="#F88486" d="M86.1539 49.6435L83.45 39.3272C83.2733 38.6506 82.8776 38.0517 82.3245 37.624C81.7714 37.1962 81.0922 36.9637 80.393 36.9629C80.1208 36.9618 79.8497 36.9976 79.5872 37.0694L73.5066 38.6612L73.3401 37.9952L79.4207 36.4034C79.7378 36.3184 80.0647 36.2758 80.393 36.2769C81.2401 36.2775 82.063 36.5589 82.733 37.0771C83.4031 37.5953 83.8824 38.321 84.096 39.1407L86.76 49.457L86.1539 49.6435Z"/><path fill="#F88486" d="M48.1182 47.0238L80.0105 38.6748C80.3929 38.5801 80.7973 38.6399 81.136 38.8411C81.4747 39.0424 81.7205 39.3689 81.8203 39.75L90.5487 73.092L55.7571 82.1999L47.0287 48.858C46.9784 48.666 46.9668 48.4659 46.9945 48.2694C47.0221 48.0728 47.0886 47.8837 47.19 47.7131C47.2913 47.5424 47.4256 47.3936 47.5849 47.2753C47.7443 47.157 47.9255 47.0715 48.1182 47.0238Z"/><path fill="#000" d="M64.9278 42.6166L63.2075 43.0669L72.3155 77.8585L74.0357 77.4081L64.9278 42.6166Z" opacity=".2"/><path fill="#000" d="M71.4361 41.2864L69.7112 41.731L78.7022 76.616L80.427 76.1715L71.4361 41.2864Z" opacity=".2"/><path fill="#000" d="M77.8069 39.2513L76.0867 39.7017L85.1946 74.4933L86.9149 74.0429L77.8069 39.2513Z" opacity=".2"/><path fill="#000" d="M58.4783 44.308L56.7581 44.7583L65.866 79.5499L67.5863 79.0996L58.4783 44.308Z" opacity=".2"/><path fill="#000" d="M52.0437 45.9969L50.3235 46.4473L59.4314 81.2389L61.1517 80.7885L52.0437 45.9969Z" opacity=".2"/><path fill="#F88486" d="M89.9569 70.7223L55.1589 79.8319C53.974 80.1421 53.2649 81.3541 53.5751 82.539L54.7844 87.1586C55.0946 88.3435 56.3066 89.0526 57.4916 88.7424L92.2896 79.6328C93.4745 79.3226 94.1836 78.1106 93.8734 76.9257L92.6641 72.3061C92.3539 71.1212 91.1419 70.4121 89.9569 70.7223Z"/><path fill="#F88486" d="M293.64 122.118L293.276 126.619L293.94 126.673L294.304 122.172L293.64 122.118Z"/><path fill="#F88486" d="M295.145 103.85L294.065 117.213L294.729 117.267L295.809 103.904L295.145 103.85Z"/><path fill="#fff" d="M186.58 48.9644L174.798 194.678L262.364 201.751L287.259 180.586L297.176 57.9021L186.58 48.9644Z"/><path fill="#F88486" d="M262.364 202.364H262.311L174.752 195.285C174.671 195.279 174.592 195.257 174.52 195.22C174.447 195.183 174.383 195.132 174.331 195.07C174.279 195.008 174.24 194.936 174.216 194.858C174.192 194.781 174.184 194.699 174.192 194.619L185.967 48.9179C185.974 48.8373 185.997 48.7589 186.034 48.6871C186.071 48.6153 186.122 48.5515 186.184 48.4995C186.246 48.4475 186.317 48.4083 186.394 48.3841C186.472 48.3599 186.553 48.3512 186.633 48.3585L297.223 57.2762C297.303 57.282 297.382 57.304 297.455 57.3409C297.527 57.3778 297.591 57.4288 297.643 57.4909C297.695 57.553 297.734 57.6249 297.758 57.7025C297.782 57.78 297.79 57.8615 297.782 57.9422L287.865 180.619C287.86 180.699 287.838 180.777 287.801 180.848C287.765 180.919 287.714 180.982 287.652 181.032L262.757 202.204C262.65 202.304 262.51 202.361 262.364 202.364ZM175.458 194.119L262.158 201.132L286.673 180.286L296.517 58.4617L187.146 49.6239L175.458 194.119Z"/><path fill="#F88486" d="M259.886 180.1L262.364 201.752L287.259 180.586L259.886 180.1Z" opacity=".2"/><path fill="#fff" d="M264.222 178.721L262.364 201.751L287.259 180.586L264.222 178.721Z"/><path fill="#F88486" d="M262.364 202.364C262.267 202.365 262.171 202.342 262.084 202.298C261.976 202.243 261.887 202.157 261.828 202.052C261.769 201.946 261.742 201.826 261.751 201.705L263.616 178.675C263.621 178.594 263.643 178.515 263.68 178.443C263.716 178.371 263.767 178.307 263.829 178.255C263.89 178.203 263.961 178.163 264.038 178.139C264.115 178.115 264.195 178.107 264.275 178.115L287.306 179.974C287.426 179.983 287.541 180.028 287.635 180.103C287.73 180.178 287.801 180.278 287.839 180.393C287.877 180.51 287.88 180.636 287.847 180.755C287.814 180.873 287.746 180.979 287.652 181.059L262.757 202.231C262.647 202.323 262.507 202.37 262.364 202.364ZM264.782 179.381L263.07 200.333L285.714 181.072L264.782 179.381Z"/><path fill="#F88486" d="M240.386 74.2457H240.193C239.629 74.1998 239.106 73.9322 238.739 73.5015C238.372 73.0708 238.191 72.5121 238.235 71.948L238.688 66.3602C238.71 66.0803 238.787 65.8076 238.915 65.5576C239.043 65.3075 239.218 65.0851 239.432 64.903C239.646 64.7208 239.893 64.5826 240.16 64.4961C240.427 64.4096 240.709 64.3765 240.989 64.3988C241.269 64.4211 241.541 64.4984 241.791 64.6261C242.041 64.7538 242.264 64.9295 242.446 65.1431C242.628 65.3568 242.766 65.6043 242.853 65.8714C242.939 66.1385 242.972 66.42 242.95 66.6999L242.497 72.2876C242.452 72.8183 242.211 73.3132 241.821 73.6754C241.43 74.0375 240.919 74.2409 240.386 74.2457Z"/><path fill="#F88486" d="M243.63 68.8847H243.443L237.855 68.4318C237.565 68.4246 237.279 68.3583 237.015 68.2368C236.751 68.1154 236.514 67.9413 236.32 67.7254C236.125 67.5094 235.977 67.2561 235.883 66.9809C235.79 66.7056 235.754 66.4142 235.777 66.1245C235.8 65.8348 235.882 65.5529 236.018 65.2959C236.154 65.0389 236.34 64.8123 236.567 64.63C236.793 64.4476 237.054 64.3133 237.334 64.2353C237.614 64.1572 237.907 64.1371 238.195 64.1761L243.756 64.6023C244.294 64.6597 244.79 64.9189 245.145 65.3276C245.499 65.7363 245.685 66.2642 245.666 66.8049C245.646 67.3455 245.423 67.8587 245.04 68.241C244.657 68.6232 244.144 68.8461 243.603 68.8647L243.63 68.8847Z"/><path fill="#F88486" d="M235.538 134.186H235.351C235.071 134.164 234.799 134.087 234.549 133.96C234.299 133.832 234.077 133.657 233.895 133.443C233.713 133.23 233.575 132.983 233.489 132.716C233.403 132.449 233.37 132.168 233.393 131.888L233.846 126.3C233.853 126.01 233.919 125.724 234.041 125.46C234.162 125.196 234.336 124.959 234.552 124.765C234.768 124.57 235.022 124.422 235.297 124.328C235.572 124.235 235.863 124.199 236.153 124.222C236.443 124.245 236.725 124.327 236.982 124.463C237.239 124.599 237.465 124.785 237.648 125.012C237.83 125.238 237.964 125.499 238.042 125.779C238.12 126.059 238.141 126.352 238.102 126.64L237.649 132.228C237.605 132.759 237.365 133.255 236.974 133.617C236.583 133.98 236.071 134.183 235.538 134.186Z"/><path fill="#F88486" d="M238.335 134.412H238.142L232.554 133.959C232.264 133.951 231.979 133.884 231.715 133.762C231.452 133.64 231.216 133.465 231.023 133.249C230.829 133.033 230.682 132.779 230.589 132.504C230.496 132.229 230.461 131.938 230.484 131.649C230.508 131.36 230.59 131.078 230.726 130.822C230.862 130.565 231.048 130.339 231.274 130.157C231.5 129.975 231.761 129.841 232.041 129.763C232.32 129.685 232.613 129.665 232.9 129.704L238.488 130.157C239.026 130.214 239.522 130.473 239.877 130.882C240.231 131.291 240.417 131.818 240.398 132.359C240.378 132.9 240.155 133.413 239.772 133.795C239.389 134.177 238.876 134.4 238.335 134.419V134.412Z"/><path fill="#F88486" d="M270.949 104.076H270.762L265.175 103.623C264.609 103.577 264.085 103.308 263.718 102.876C263.351 102.444 263.171 101.884 263.217 101.319C263.262 100.753 263.531 100.23 263.963 99.8623C264.395 99.4951 264.956 99.3146 265.521 99.3605L271.109 99.8134C271.659 99.8569 272.17 100.111 272.537 100.523C272.904 100.935 273.097 101.473 273.077 102.025C273.056 102.576 272.823 103.098 272.426 103.481C272.03 103.865 271.5 104.08 270.949 104.082V104.076Z"/><path fill="#F88486" d="M270.729 106.866H270.536C270.256 106.844 269.983 106.766 269.733 106.638C269.484 106.51 269.261 106.334 269.08 106.12C268.898 105.906 268.76 105.658 268.674 105.391C268.588 105.124 268.555 104.842 268.578 104.562L269.031 98.9743C269.104 98.4316 269.382 97.9377 269.809 97.5943C270.235 97.2509 270.777 97.0842 271.323 97.1286C271.869 97.173 272.377 97.4252 272.742 97.833C273.107 98.2408 273.302 98.7733 273.287 99.3206L272.84 104.908C272.796 105.439 272.554 105.934 272.164 106.296C271.773 106.658 271.262 106.862 270.729 106.866Z"/><path fill="#F88486" d="M211.009 99.2341H210.822L205.235 98.7812C204.945 98.7729 204.659 98.7056 204.396 98.5835C204.133 98.4613 203.897 98.2868 203.703 98.0707C203.51 97.8545 203.362 97.6012 203.27 97.3261C203.177 97.0511 203.141 96.7601 203.165 96.4708C203.189 96.1816 203.271 95.9001 203.407 95.6437C203.542 95.3872 203.729 95.1611 203.955 94.9791C204.181 94.797 204.442 94.663 204.721 94.585C205.001 94.507 205.293 94.4867 205.581 94.5255L211.169 94.9783C211.707 95.0361 212.203 95.2959 212.557 95.7053C212.911 96.1147 213.097 96.6432 213.077 97.1841C213.057 97.725 212.832 98.2381 212.448 98.6198C212.064 99.0015 211.55 99.2234 211.009 99.2407V99.2341Z"/><path fill="#F88486" d="M205.201 101.572H205.008C204.728 101.549 204.455 101.472 204.206 101.343C203.956 101.215 203.734 101.039 203.552 100.825C203.37 100.611 203.232 100.364 203.146 100.096C203.06 99.829 203.027 99.5473 203.05 99.2675L203.503 93.6797C203.511 93.3896 203.578 93.1043 203.701 92.841C203.823 92.5778 203.997 92.3422 204.213 92.1485C204.43 91.9549 204.683 91.8073 204.958 91.7147C205.233 91.6221 205.524 91.5865 205.813 91.6101C206.103 91.6336 206.384 91.7158 206.64 91.8516C206.897 91.9874 207.123 92.1741 207.305 92.4001C207.487 92.6261 207.621 92.8869 207.699 93.1664C207.777 93.4459 207.797 93.7384 207.759 94.0261L207.312 99.6138C207.268 100.144 207.026 100.639 206.636 101.002C206.245 101.364 205.734 101.567 205.201 101.572Z"/><path fill="#F88486" d="M220.526 80.6527C220.213 80.6575 219.903 80.5924 219.619 80.4622C219.334 80.332 219.082 80.14 218.881 79.9002L215.245 75.6311C214.877 75.1992 214.696 74.6391 214.742 74.0739C214.788 73.5088 215.056 72.9848 215.488 72.6174C215.92 72.25 216.48 72.0692 217.045 72.1148C217.61 72.1604 218.134 72.4287 218.501 72.8605L222.138 77.1363C222.504 77.5684 222.683 78.128 222.637 78.6924C222.591 79.2568 222.323 79.7797 221.891 80.1466C221.511 80.4724 221.027 80.6518 220.526 80.6527Z"/><path fill="#F88486" d="M214.758 78.2018C214.32 78.2051 213.891 78.0736 213.53 77.825C213.169 77.5763 212.893 77.2227 212.739 76.812C212.586 76.4012 212.563 75.9532 212.672 75.5288C212.782 75.1043 213.02 74.7238 213.353 74.4389L217.629 70.8026C217.84 70.6061 218.09 70.4545 218.361 70.357C218.633 70.2595 218.922 70.2181 219.21 70.2352C219.498 70.2524 219.78 70.3277 220.039 70.4567C220.297 70.5858 220.526 70.7658 220.713 70.986C220.9 71.2061 221.04 71.4619 221.126 71.7378C221.211 72.0136 221.24 72.3039 221.21 72.5912C221.18 72.8784 221.092 73.1565 220.951 73.4088C220.811 73.6612 220.621 73.8824 220.393 74.0593L216.124 77.689C215.742 78.0137 215.259 78.1951 214.758 78.2018Z"/><path fill="#F88486" d="M259.48 126.467C259.168 126.468 258.859 126.402 258.575 126.272C258.291 126.142 258.039 125.952 257.835 125.715L254.206 121.446C254.024 121.232 253.886 120.984 253.799 120.717C253.713 120.45 253.68 120.168 253.703 119.888C253.726 119.609 253.803 119.336 253.931 119.086C254.059 118.836 254.235 118.614 254.449 118.432C254.662 118.25 254.91 118.112 255.177 118.026C255.444 117.939 255.726 117.907 256.006 117.929C256.286 117.952 256.558 118.029 256.808 118.157C257.058 118.285 257.28 118.461 257.462 118.675L261.072 122.944C261.333 123.255 261.5 123.633 261.555 124.035C261.609 124.437 261.548 124.846 261.38 125.215C261.211 125.584 260.941 125.897 260.601 126.119C260.262 126.341 259.866 126.461 259.46 126.467H259.48Z"/><path fill="#F88486" d="M257.349 128.279C257.036 128.283 256.726 128.218 256.442 128.088C256.157 127.958 255.905 127.766 255.704 127.526C255.522 127.313 255.383 127.066 255.296 126.799C255.21 126.532 255.177 126.251 255.199 125.971C255.221 125.691 255.298 125.419 255.426 125.169C255.554 124.919 255.73 124.697 255.944 124.516L260.213 120.886C260.645 120.519 261.205 120.338 261.77 120.383C262.335 120.429 262.859 120.697 263.227 121.129C263.594 121.561 263.775 122.121 263.729 122.686C263.684 123.251 263.415 123.775 262.984 124.143L258.714 127.772C258.334 128.098 257.85 128.278 257.349 128.279Z"/><path fill="#F88486" d="M258.954 83.7628C258.516 83.7647 258.088 83.6322 257.728 83.383C257.368 83.1339 257.093 82.7802 256.941 82.3698C256.788 81.9593 256.765 81.5119 256.875 81.0881C256.985 80.6643 257.223 80.2844 257.556 79.9999L261.825 76.3635C262.257 75.9961 262.817 75.8153 263.382 75.8609C263.947 75.9065 264.471 76.1748 264.838 76.6066C265.206 77.0385 265.387 77.5986 265.341 78.1638C265.295 78.729 265.027 79.2529 264.595 79.6203L260.326 83.25C259.943 83.5761 259.457 83.7576 258.954 83.7628Z"/><path fill="#F88486" d="M265.068 82.2644C264.756 82.2672 264.448 82.2012 264.165 82.0712C263.882 81.9411 263.631 81.7501 263.43 81.5118L259.74 77.2561C259.558 77.0422 259.42 76.7947 259.334 76.5275C259.248 76.2603 259.215 75.9788 259.237 75.6989C259.26 75.4191 259.337 75.1464 259.465 74.8965C259.593 74.6466 259.769 74.4243 259.983 74.2424C260.197 74.0605 260.445 73.9225 260.712 73.8363C260.979 73.75 261.26 73.7173 261.54 73.7398C261.82 73.7624 262.093 73.8399 262.343 73.9678C262.593 74.0958 262.815 74.2717 262.997 74.4855L266.626 78.7546C266.893 79.0635 267.065 79.4424 267.123 79.8463C267.18 80.2502 267.12 80.6621 266.951 81.0331C266.781 81.4041 266.508 81.7186 266.165 81.9392C265.822 82.1598 265.423 82.2773 265.015 82.2777L265.068 82.2644Z"/><path fill="#F88486" d="M213.12 122.718C212.807 122.722 212.497 122.657 212.213 122.527C211.928 122.397 211.676 122.205 211.475 121.965C211.293 121.751 211.155 121.504 211.069 121.237C210.983 120.97 210.95 120.688 210.973 120.409C210.996 120.129 211.074 119.857 211.202 119.607C211.331 119.358 211.507 119.136 211.721 118.955L215.991 115.325C216.202 115.129 216.451 114.977 216.723 114.879C216.995 114.782 217.284 114.741 217.572 114.758C217.86 114.775 218.142 114.85 218.4 114.979C218.659 115.108 218.888 115.288 219.075 115.508C219.262 115.729 219.402 115.984 219.488 116.26C219.573 116.536 219.601 116.826 219.571 117.114C219.541 117.401 219.454 117.679 219.313 117.931C219.173 118.184 218.983 118.405 218.754 118.582L214.485 122.211C214.106 122.539 213.621 122.719 213.12 122.718Z"/><path fill="#F88486" d="M214.965 124.855C214.652 124.858 214.343 124.792 214.058 124.662C213.774 124.532 213.522 124.341 213.32 124.103L209.683 119.834C209.316 119.402 209.135 118.842 209.181 118.277C209.226 117.711 209.495 117.187 209.926 116.82C210.358 116.453 210.918 116.272 211.484 116.317C212.049 116.363 212.573 116.631 212.94 117.063L216.57 121.332C216.752 121.546 216.891 121.794 216.978 122.061C217.065 122.328 217.098 122.61 217.076 122.89C217.053 123.171 216.976 123.444 216.848 123.694C216.72 123.944 216.544 124.167 216.33 124.349C215.946 124.67 215.464 124.848 214.965 124.855Z"/><path fill="#fff" d="M255.831 120.054C267.302 110.299 268.692 93.0908 258.936 81.6197C249.181 70.1486 231.973 68.758 220.502 78.5138C209.031 88.2696 207.64 105.477 217.396 116.949C227.152 128.42 244.359 129.81 255.831 120.054Z"/><path fill="#F88486" d="M238.428 127.772C237.582 127.772 236.736 127.772 235.884 127.679C230.268 127.226 224.913 125.118 220.495 121.621C216.077 118.124 212.796 113.396 211.066 108.034C209.336 102.672 209.235 96.9173 210.775 91.4979C212.316 86.0785 215.429 81.2377 219.721 77.5877C224.013 73.9376 229.291 71.6424 234.887 70.9921C240.484 70.3419 246.147 71.3659 251.162 73.9346C256.176 76.5034 260.316 80.5015 263.058 85.4233C265.8 90.3451 267.021 95.9695 266.566 101.585L265.354 101.485L266.566 101.585C265.993 108.675 262.787 115.294 257.58 120.141C252.373 124.987 245.541 127.709 238.428 127.772ZM237.968 73.2603C231.18 73.3248 224.686 76.0449 219.878 80.838C215.069 85.6312 212.329 92.1164 212.243 98.905C212.158 105.694 214.733 112.246 219.419 117.159C224.104 122.072 230.527 124.955 237.312 125.191C244.097 125.427 250.705 122.997 255.721 118.422C260.736 113.846 263.761 107.489 264.147 100.71C264.533 93.9322 262.25 87.2722 257.787 82.1566C253.323 77.041 247.034 73.8763 240.266 73.3402C239.485 73.2869 238.719 73.2603 237.968 73.2603Z"/><path fill="#F88486" d="M247.978 102.991C247.712 102.991 247.446 102.991 247.186 102.991C244.833 102.802 242.652 101.686 241.122 99.8884C239.592 98.0911 238.838 95.7596 239.027 93.4068C239.216 91.0541 240.332 88.8727 242.13 87.3427C243.927 85.8127 246.258 85.0593 248.611 85.2483C250.897 85.4258 253.026 86.481 254.552 88.1931C256.078 89.9051 256.882 92.1412 256.796 94.4328C256.71 96.7244 255.74 98.8937 254.09 100.487C252.44 102.079 250.238 102.972 247.945 102.977L247.978 102.991ZM247.852 88.5317C246.767 88.5399 245.709 88.8638 244.806 89.4638C243.902 90.0639 243.193 90.9141 242.766 91.9106C242.338 92.9071 242.209 94.0066 242.396 95.0748C242.583 96.143 243.077 97.1336 243.818 97.9255C244.559 98.7174 245.515 99.2764 246.568 99.534C247.622 99.7916 248.727 99.7367 249.75 99.376C250.773 99.0154 251.668 98.3646 252.327 97.5032C252.986 96.6418 253.379 95.6072 253.46 94.5257C253.575 93.0527 253.102 91.594 252.143 90.4701C251.184 89.3461 249.818 88.649 248.345 88.5317C248.185 88.5384 248.018 88.5317 247.852 88.5317Z" opacity=".2"/><path fill="#F88486" d="M227.872 97.1365C227.798 98.1173 227.434 99.054 226.827 99.8278C226.219 100.602 225.396 101.178 224.461 101.483C223.526 101.789 222.522 101.81 221.575 101.544C220.628 101.278 219.781 100.737 219.142 99.9895C218.502 99.2419 218.099 98.3214 217.984 97.3446C217.868 96.3677 218.045 95.3786 218.492 94.5025C218.94 93.6263 219.637 92.9026 220.495 92.423C221.354 91.9434 222.336 91.7296 223.317 91.8085C224.626 91.9139 225.84 92.5337 226.694 93.5321C227.548 94.5306 227.971 95.8266 227.872 97.1365Z" opacity=".4"/><path fill="#F88486" d="M241.285 113.093C241.229 113.785 240.969 114.445 240.538 114.989C240.107 115.533 239.524 115.937 238.864 116.15C238.203 116.363 237.494 116.375 236.827 116.185C236.159 115.995 235.563 115.612 235.113 115.083C234.664 114.554 234.381 113.904 234.301 113.214C234.22 112.525 234.346 111.827 234.663 111.21C234.979 110.592 235.471 110.082 236.078 109.744C236.684 109.406 237.377 109.255 238.068 109.311C238.996 109.387 239.856 109.828 240.459 110.537C241.062 111.246 241.359 112.166 241.285 113.093Z" opacity=".2"/><path fill="#263238" d="M209.331 159.174H209.224L194.146 157.956C193.984 157.943 193.827 157.898 193.683 157.824C193.539 157.75 193.411 157.648 193.307 157.524C193.203 157.4 193.124 157.257 193.076 157.102C193.028 156.947 193.011 156.785 193.027 156.624L194.246 141.545C194.259 141.384 194.304 141.227 194.379 141.084C194.453 140.94 194.555 140.813 194.679 140.709C194.803 140.604 194.946 140.526 195.1 140.478C195.254 140.429 195.417 140.412 195.578 140.426L210.649 141.645C210.81 141.659 210.967 141.704 211.111 141.778C211.255 141.852 211.382 141.954 211.486 142.078C211.59 142.202 211.668 142.345 211.717 142.5C211.765 142.654 211.783 142.816 211.768 142.977L210.549 158.049C210.537 158.209 210.493 158.365 210.42 158.508C210.347 158.651 210.246 158.778 210.123 158.881C209.901 159.069 209.621 159.173 209.331 159.174ZM195.558 155.611L208.212 156.637L209.231 143.983L196.577 142.957L195.558 155.611Z" opacity=".2"/><path fill="#E0E0E0" d="M266.899 153.18H266.793L217.549 149.184C217.226 149.158 216.928 149.004 216.719 148.757C216.509 148.511 216.407 148.191 216.433 147.869C216.46 147.546 216.613 147.248 216.86 147.038C217.107 146.829 217.426 146.727 217.749 146.753L266.986 150.749C267.146 150.755 267.303 150.792 267.449 150.858C267.595 150.925 267.726 151.02 267.835 151.137C267.944 151.254 268.029 151.391 268.085 151.541C268.141 151.692 268.167 151.851 268.162 152.011C268.156 152.171 268.119 152.329 268.052 152.474C267.986 152.62 267.891 152.751 267.774 152.86C267.657 152.969 267.519 153.054 267.369 153.11C267.219 153.166 267.059 153.192 266.899 153.187V153.18Z"/><path fill="#E0E0E0" d="M232.947 156.577H232.84L217.056 155.305C216.889 155.302 216.723 155.265 216.571 155.195C216.418 155.126 216.281 155.026 216.169 154.902C216.056 154.778 215.97 154.632 215.917 154.473C215.863 154.314 215.842 154.146 215.856 153.979C215.869 153.812 215.917 153.65 215.996 153.502C216.075 153.354 216.184 153.224 216.315 153.12C216.446 153.016 216.597 152.939 216.759 152.896C216.921 152.852 217.09 152.843 217.256 152.867L233.04 154.146C233.363 154.158 233.669 154.298 233.888 154.536C234.108 154.773 234.225 155.088 234.212 155.411C234.2 155.735 234.06 156.04 233.822 156.259C233.585 156.479 233.27 156.596 232.947 156.583V156.577Z"/><path fill="#E0E0E0" d="M256.184 158.455H256.077L242.424 157.35C242.102 157.323 241.803 157.17 241.594 156.923C241.385 156.676 241.282 156.357 241.309 156.034C241.335 155.712 241.489 155.413 241.735 155.204C241.982 154.995 242.302 154.892 242.624 154.919L256.244 156.018C256.567 156.029 256.872 156.168 257.093 156.405C257.313 156.642 257.431 156.956 257.419 157.28C257.408 157.603 257.268 157.908 257.032 158.129C256.795 158.349 256.48 158.467 256.157 158.455H256.184Z"/><path fill="#263238" d="M207.166 185.974H207.059L191.981 184.755C191.82 184.743 191.662 184.698 191.518 184.624C191.374 184.55 191.246 184.448 191.142 184.324C191.038 184.2 190.96 184.056 190.912 183.902C190.864 183.747 190.847 183.584 190.862 183.423L192.081 168.351C192.094 168.19 192.14 168.033 192.214 167.89C192.288 167.746 192.39 167.619 192.514 167.515C192.638 167.411 192.781 167.332 192.935 167.284C193.09 167.235 193.252 167.218 193.413 167.233L208.458 168.498C208.62 168.51 208.777 168.555 208.921 168.629C209.065 168.703 209.193 168.805 209.297 168.929C209.401 169.053 209.48 169.197 209.528 169.351C209.576 169.506 209.592 169.669 209.577 169.83L208.358 184.908C208.33 185.231 208.177 185.53 207.932 185.741C207.711 185.904 207.44 185.986 207.166 185.974ZM193.393 182.417L206.047 183.443L207.066 170.789L194.412 169.763L193.393 182.417Z" opacity=".2"/><path fill="#E0E0E0" d="M255.897 179.268H255.791L215.385 175.998C215.062 175.971 214.764 175.818 214.554 175.571C214.345 175.324 214.242 175.005 214.269 174.682C214.295 174.36 214.449 174.061 214.696 173.852C214.942 173.643 215.262 173.54 215.584 173.567L255.991 176.83C256.314 176.842 256.619 176.983 256.839 177.22C257.059 177.457 257.175 177.772 257.163 178.095C257.15 178.419 257.01 178.724 256.773 178.944C256.535 179.163 256.221 179.28 255.897 179.268Z"/><path fill="#E0E0E0" d="M239.707 184.082H239.6L214.892 182.084C214.724 182.082 214.559 182.044 214.406 181.975C214.254 181.906 214.117 181.806 214.004 181.682C213.892 181.558 213.806 181.412 213.752 181.253C213.698 181.094 213.677 180.926 213.691 180.759C213.705 180.592 213.753 180.43 213.832 180.282C213.911 180.134 214.019 180.004 214.15 179.9C214.282 179.795 214.433 179.719 214.595 179.676C214.757 179.632 214.926 179.622 215.091 179.647L239.793 181.645C240.117 181.656 240.422 181.796 240.643 182.033C240.863 182.269 240.98 182.584 240.969 182.907C240.957 183.23 240.818 183.536 240.581 183.756C240.345 183.977 240.03 184.094 239.707 184.082Z"/><path fill="#F88486" d="M119.517 148.591C124.693 133.346 114.265 116.023 96.2261 109.9C78.1875 103.777 59.3692 111.172 54.1942 126.417C49.0192 141.662 59.4471 158.984 77.4856 165.108C95.5242 171.231 114.342 163.836 119.517 148.591Z" opacity=".3"/><path fill="#fff" d="M106.289 116.624L99.0522 109.132L57.7242 149.056L64.9612 156.548L106.289 116.624Z" opacity=".3"/><path fill="#fff" d="M115.725 124.313L110.075 118.465L67.7891 159.314L73.439 165.163L115.725 124.313Z" opacity=".3"/><path fill="#263238" d="M90.3428 169.617C85.7132 169.601 81.1173 168.83 76.7364 167.333C67.4923 164.189 59.8267 158.175 55.1447 150.396C50.3828 142.491 49.2639 133.746 51.9945 125.681C54.7251 117.616 60.9522 111.362 69.5436 107.985C77.9952 104.655 87.7387 104.562 96.9828 107.706C106.227 110.849 113.899 116.857 118.581 124.635C123.336 132.541 124.455 141.319 121.731 149.357C119.007 157.396 112.767 163.676 104.182 167.046C99.771 168.763 95.0763 169.635 90.3428 169.617ZM83.3764 110.083C79.234 110.067 75.1251 110.826 71.2619 112.321C63.9359 115.218 58.6878 120.466 56.4101 127.206C54.1324 133.946 55.0781 141.312 59.134 148.019C63.2499 154.859 70.0365 160.16 78.2349 162.944C86.4334 165.728 95.0514 165.654 102.477 162.737C109.763 159.874 115.038 154.599 117.316 147.886C119.594 141.172 118.648 133.78 114.585 127.066C110.469 120.227 103.689 114.932 95.4843 112.148C91.5882 110.803 87.4981 110.105 83.3764 110.083Z"/><path fill="#263238" d="M122.018 145.461C126.56 145.986 131.073 146.744 135.538 147.732C139.973 148.678 144.369 149.77 148.718 150.969C153.067 152.168 157.376 153.48 161.678 154.879C163.803 155.631 166.02 156.131 167.992 157.323C169.023 157.932 169.974 158.668 170.822 159.514C171.288 159.973 171.717 160.468 172.108 160.992C172.552 161.576 172.936 162.203 173.253 162.864C173.869 164.136 173.96 165.599 173.507 166.937C173.053 168.275 172.091 169.382 170.829 170.017C170.171 170.347 169.481 170.61 168.771 170.803C168.144 170.979 167.505 171.108 166.859 171.189C165.67 171.342 164.466 171.342 163.276 171.189C160.985 170.936 158.927 169.983 156.783 169.291C152.527 167.792 148.305 166.207 144.129 164.496C139.953 162.784 135.797 160.992 131.695 159.041C127.554 157.105 123.515 154.958 119.593 152.607C118.844 152.148 118.273 151.447 117.974 150.62C117.675 149.793 117.666 148.889 117.949 148.057C118.232 147.224 118.789 146.512 119.53 146.038C120.27 145.564 121.15 145.356 122.024 145.448L122.018 145.461Z"/><path fill="#F88486" d="M162.504 98.2818C162.983 101.006 161.871 103.037 160.02 102.817C158.168 102.598 156.283 100.22 155.811 97.4893C155.338 94.7587 156.477 92.734 158.295 92.9538C160.113 93.1736 162.011 95.5579 162.504 98.2818Z" opacity=".1"/><path fill="#263238" d="M172.494 274.392C178.002 273.966 180.799 270.436 180.366 266.467C180.126 264.276 187.139 263.563 187.139 263.563C186.107 270.483 187.619 271.595 187.879 273.373C188.138 275.151 187.992 277.083 186.547 277.116C184.802 277.163 184.016 276.83 181.845 276.916C179.307 277.01 177.596 277.109 173.093 277.116C171.302 277.129 170.063 274.592 172.494 274.392Z"/><path fill="#263238" d="M221.925 270.396C225.181 264.822 222.504 261.159 220.153 258.129C218.761 256.337 225.441 254.066 225.441 254.066C227.106 258.255 228.771 258.202 230.436 259.128C232.101 260.053 233.053 261.592 232.141 262.717C231.042 264.049 230.07 263.949 228.778 265.668C227.266 267.666 225.654 270.27 223.536 272.428C222.278 273.726 220.699 272.474 221.925 270.396Z"/><path fill="#F88486" d="M157.935 157.662C157.935 157.662 158.861 185.634 165.694 208.944C168.671 229.097 180.293 267.179 180.293 267.179C182.704 267.755 185.219 267.732 187.619 267.113C187.619 267.113 191.342 237.715 183.523 205.841C188.605 171.841 185.148 154.485 185.148 154.485L157.935 157.662Z"/><path fill="#F88486" d="M168.678 156.377C168.678 156.377 180.353 194.852 189.324 212.647C198.754 231.335 219.074 257.935 220.013 259.114C222.597 257.882 224.855 256.483 226.207 254.599C226.207 254.599 218.441 225.095 206.966 204.995C197.942 160.706 191.928 153.606 191.928 153.606L168.678 156.377Z"/><path fill="#FFC3BD" d="M175.491 100.719C174.998 104.669 174.825 111.029 176.723 114.179C176.723 114.179 171.688 115.038 165.141 121.678C161.145 117.076 164.369 115.684 164.369 115.684C167.292 114.619 167.332 110.909 166.986 108.052L175.491 100.719Z"/><path fill="#F88486" d="M154.345 126.753C153.593 122.151 156.31 118.402 162.018 116.43C167.279 114.619 174.832 113.294 180.046 114.039C185.261 114.785 187.173 117.369 186.826 121.299C185.334 138.348 191.855 148.392 191.941 153.607C179.673 156.737 160.952 159.367 157.935 157.662C155.731 155.338 156.157 140.839 156.843 138.628C151.402 135.771 154.765 129.318 154.345 126.753Z"/><path fill="#263238" d="M159.527 98.1687C159.607 98.6815 159.4 99.1477 159.061 99.201C158.721 99.2543 158.395 98.8813 158.295 98.3618C158.195 97.8423 158.421 97.3761 158.761 97.3229C159.101 97.2696 159.44 97.6492 159.527 98.1687Z"/><path fill="#263238" d="M158.914 97.3293L157.582 97.1694C157.582 97.1694 158.408 98.0419 158.914 97.3293Z"/><path fill="#ED847E" d="M159.507 99.2344C159.229 100.49 158.781 101.702 158.175 102.837C158.468 102.985 158.79 103.066 159.118 103.075C159.446 103.085 159.772 103.022 160.073 102.891L159.507 99.2344Z"/><path fill="#263238" d="M157.875 95.4183C157.823 95.3868 157.782 95.3407 157.757 95.2857C157.731 95.2308 157.722 95.1695 157.732 95.1096C157.741 95.0497 157.768 94.9939 157.809 94.9493C157.85 94.9046 157.903 94.8731 157.962 94.8588C158.433 94.7253 158.93 94.7071 159.409 94.8056C159.889 94.9041 160.338 95.1165 160.719 95.4249C160.776 95.4823 160.809 95.5602 160.809 95.6414C160.809 95.7225 160.776 95.8004 160.719 95.8578C160.691 95.887 160.657 95.9103 160.62 95.9262C160.583 95.942 160.543 95.9502 160.503 95.9502C160.462 95.9502 160.422 95.942 160.385 95.9262C160.348 95.9103 160.314 95.887 160.286 95.8578C159.981 95.6199 159.625 95.4573 159.245 95.3832C158.865 95.3092 158.474 95.3257 158.102 95.4316C158.027 95.457 157.946 95.4522 157.875 95.4183Z"/><path fill="#FFC3BD" d="M176.383 94.6122C177.009 101.039 177.409 103.75 174.772 107.519C170.809 113.187 162.924 112.514 160.426 106.394C158.182 100.886 157.536 91.3022 163.243 87.7991C168.951 84.2959 175.757 88.1853 176.383 94.6122Z"/><path fill="#263238" d="M163.17 98.6415C160.832 98.9811 159.84 95.4114 160.639 93.8396C157.882 93.753 157.402 91.2622 158.295 89.4307C159.187 87.5992 161.418 83.5366 169.45 84.7687C177.482 86.0008 180.106 92.9871 179.407 95.9242C178.708 98.8613 180.146 107.12 172.64 108.478C165.135 109.837 160.566 102.398 163.17 98.6415Z"/><path fill="#F88486" d="M190.176 114.552C186.074 110.556 170.549 112.554 159.254 116.15C147.958 119.747 150.776 131.082 151.755 138.981C152.734 146.88 158.641 202.624 165.421 222.897C181.884 223.103 207.026 217.569 214.006 213.966C211.268 206.707 196.583 150.236 194.172 135.378C193 128.132 194.505 118.748 190.176 114.552Z"/><path fill="#fff" d="M190.176 114.552C186.074 110.556 170.549 112.554 159.254 116.15C147.958 119.747 150.776 131.082 151.755 138.981C152.734 146.88 158.641 202.624 165.421 222.897C181.884 223.103 207.026 217.569 214.006 213.966C211.268 206.707 196.583 150.236 194.172 135.378C193 128.132 194.505 118.748 190.176 114.552Z" opacity=".6"/><path fill="#F88486" d="M152.74 147.366C155.005 144.436 156.956 141.599 157.569 139.847C159.753 133.58 156.803 150.689 154.206 159.587C153.626 154.939 153.133 150.769 152.74 147.366Z" opacity=".5"/><path fill="#F88486" d="M133.993 151.083L136.363 153.48C137.636 156.983 132.654 158.915 132.654 158.915L130.416 160.806C130.081 161.12 129.64 161.295 129.181 161.295C128.722 161.295 128.28 161.12 127.945 160.806L126.28 159.141C125.91 158.743 125.704 158.22 125.704 157.676C125.704 157.132 125.91 156.609 126.28 156.211L128.012 154.293C128.498 153.743 129.095 153.303 129.763 153.001L133.993 151.083Z"/><path fill="#F88486" d="M134.952 150.829C132.288 149.664 129.85 151.722 127.626 152.781C127.246 152.961 127.119 154.053 127.785 154.173C128.215 154.275 128.66 154.292 129.096 154.221C129.531 154.15 129.948 153.993 130.323 153.76C130.882 154.479 133.207 155.698 135.524 153.593C135.704 152.632 135.499 151.639 134.952 150.829Z"/><path fill="#F88486" d="M166.46 126.58L166.134 128.126L165.781 129.584C165.541 130.55 165.288 131.509 165.035 132.461C164.502 134.373 163.923 136.277 163.276 138.169C162.63 140.06 161.944 141.945 161.152 143.83C160.772 144.776 160.346 145.721 159.92 146.66L159.254 148.072L158.848 148.891C158.668 149.258 158.468 149.604 158.262 149.95C156.575 152.733 154.067 154.922 151.082 156.217L150.802 156.337L150.596 156.417L150.196 156.564L149.39 156.85L147.819 157.343L146.287 157.769L144.775 158.135C142.777 158.588 140.779 158.935 138.821 159.208C137.835 159.341 136.856 159.454 135.871 159.561C134.885 159.667 133.926 159.747 132.86 159.807L131.202 150.09L133.733 149.291C134.592 149.018 135.444 148.725 136.29 148.432C137.982 147.859 139.62 147.26 141.239 146.62L142.411 146.134L143.543 145.641L144.608 145.122L145.095 144.855L145.348 144.729L145.461 144.669L145.501 144.636C145.928 144.29 146.245 143.827 146.413 143.304C146.413 143.237 146.453 143.177 146.467 143.111V143.064L146.513 142.931L146.613 142.638L147.026 141.452C147.286 140.64 147.559 139.847 147.805 139.015C148.305 137.37 148.764 135.685 149.204 133.966C149.643 132.248 150.056 130.536 150.443 128.798C150.642 127.932 150.836 127.067 151.015 126.201L151.528 123.69L166.46 126.58Z"/><g opacity=".6"><path fill="#fff" d="M166.46 126.58L166.134 128.126L165.781 129.584C165.541 130.55 165.288 131.509 165.035 132.461C164.502 134.373 163.923 136.277 163.276 138.169C162.63 140.06 161.944 141.945 161.152 143.83C160.772 144.776 160.346 145.721 159.92 146.66L159.254 148.072L158.848 148.891C158.668 149.258 158.468 149.604 158.262 149.95C156.575 152.733 154.067 154.922 151.082 156.217L150.802 156.337L150.596 156.417L150.196 156.564L149.39 156.85L147.819 157.343L146.287 157.769L144.775 158.135C142.777 158.588 140.779 158.935 138.821 159.208C137.835 159.341 136.856 159.454 135.871 159.561C134.885 159.667 133.926 159.747 132.86 159.807L131.202 150.09L133.733 149.291C134.592 149.018 135.444 148.725 136.29 148.432C137.982 147.859 139.62 147.26 141.239 146.62L142.411 146.134L143.543 145.641L144.608 145.122L145.095 144.855L145.348 144.729L145.461 144.669L145.501 144.636C145.928 144.29 146.245 143.827 146.413 143.304C146.413 143.237 146.453 143.177 146.467 143.111V143.064L146.513 142.931L146.613 142.638L147.026 141.452C147.286 140.64 147.559 139.847 147.805 139.015C148.305 137.37 148.764 135.685 149.204 133.966C149.643 132.248 150.056 130.536 150.443 128.798C150.642 127.932 150.836 127.067 151.015 126.201L151.528 123.69L166.46 126.58Z" opacity=".6"/></g><path fill="#F88486" d="M177.269 153.666C177.269 153.666 188.232 152.128 191.455 150.017C187.552 153.433 182.271 154.159 177.269 153.666Z" opacity=".5"/><path fill="#F88486" d="M178.488 154.899C178.488 154.899 186.54 154.959 189.077 153.76C185.914 155.844 182.031 155.804 178.488 154.899Z" opacity=".5"/><path fill="#F88486" d="M158.914 100.173C158.135 102.264 157.276 104.555 157.855 107.093C158.435 109.63 161.012 110.962 164.995 110.929C164.569 109.271 162.764 108.265 161.332 105.714C159.9 103.163 161.332 97.3826 161.332 97.3826L160.832 96.9497C160.242 98.4028 159.772 99.9019 159.427 101.432C158.761 100.433 158.914 100.173 158.914 100.173Z"/><path fill="#fff" d="M158.914 100.173C158.135 102.264 157.276 104.555 157.855 107.093C158.435 109.63 161.012 110.962 164.995 110.929C164.569 109.271 162.764 108.265 161.332 105.714C159.9 103.163 161.332 97.3826 161.332 97.3826L160.832 96.9497C160.242 98.4028 159.772 99.9019 159.427 101.432C158.761 100.433 158.914 100.173 158.914 100.173Z" opacity=".3"/><path fill="#FFC3BD" d="M164.941 100.346C164.86 100.96 164.645 101.548 164.31 102.069C163.975 102.589 163.528 103.029 163.003 103.357C161.671 104.069 160.599 102.451 160.606 100.599C160.606 98.9278 161.272 96.5501 162.79 96.6034C164.309 96.6567 165.248 98.6547 164.941 100.346Z"/><path fill="#F88486" d="M157.955 90.3032C158.415 93.3135 161.791 101.872 166.933 105.275C171.595 108.378 176.45 108.751 178.022 105.388C178.022 105.388 183.776 107.339 185.148 96.2905C186.327 86.8466 179.48 80.14 172.048 78.9745C165.288 77.9222 152.001 81.0191 157.955 90.3032Z"/><path fill="#000" d="M158.548 90.5762C158.548 90.5762 163.763 100.306 177.449 104.935C169.457 104.229 163.023 98.0886 158.548 90.5762Z" opacity=".2"/></svg>