<svg width="333" height="333" viewBox="0 0 333 333" fill="none" xmlns="http://www.w3.org/2000/svg">
<path d="M269.67 179.52C327.026 212.021 327.332 264.708 270.336 297.202C213.34 329.696 120.679 329.67 63.3232 297.202C5.96728 264.735 5.66758 212.021 62.6572 179.527C119.647 147.033 212.321 147.026 269.67 179.52Z" fill="#F5F5F5"/>
<path d="M214.246 32.787L217.183 31.082L217.009 91.7746L214.079 93.4862L214.246 32.787Z" fill="#F0F0F0"/>
<path d="M214.079 93.4865L217.009 91.7749L301.685 140.659L298.748 142.364L214.079 93.4865Z" fill="#F5F5F5"/>
<path d="M210.882 26.9595L302.304 79.74L302.111 148.198L210.689 95.4109L210.882 26.9595ZM298.748 142.364L298.921 81.6714L214.246 32.787L214.079 93.4796L298.748 142.364Z" fill="#E0E0E0"/>
<path d="M210.882 26.9597L213.819 25.248L305.241 78.0352L302.304 79.7402L210.882 26.9597Z" fill="#F5F5F5"/>
<path d="M302.304 79.7401L305.241 78.0352L305.048 146.493L302.111 148.198L302.304 79.7401Z" fill="#F0F0F0"/>
<path d="M254.892 56.2568L254.719 116.949L258.095 118.901L258.268 58.2016L254.892 56.2568Z" fill="#E0E0E0"/>
<path d="M258.268 58.2017L258.095 118.901L261.032 117.196L261.199 59.8933L258.268 58.2017Z" fill="#F0F0F0"/>
<path opacity="0.2" d="M258.268 60.9322L258.275 58.2016L254.898 56.2568L254.885 58.9808L258.268 60.9322Z" fill="black"/>
<path opacity="0.2" d="M258.261 60.9323L260.632 59.567L258.268 58.2017L258.261 60.9323Z" fill="black"/>
<path d="M72.161 217.782C70.2762 218.874 70.2629 220.639 72.161 221.725L78.9076 225.648C79.9629 226.185 81.1302 226.464 82.3142 226.464C83.4982 226.464 84.6655 226.185 85.7208 225.648L167.059 178.395C168.944 177.309 168.964 175.538 167.059 174.446L160.306 170.523C159.251 169.986 158.084 169.706 156.9 169.706C155.716 169.706 154.548 169.986 153.493 170.523L72.161 217.782Z" fill="#E6E6E6"/>
<path d="M83.5763 266.4L143.696 301.332C144.535 301.819 145.487 302.076 146.457 302.076C147.426 302.076 148.379 301.819 149.217 301.332L258.408 238.315C258.617 238.194 258.79 238.02 258.91 237.811C259.031 237.601 259.094 237.364 259.094 237.123C259.094 236.881 259.031 236.644 258.91 236.435C258.79 236.226 258.617 236.052 258.408 235.931L199.134 201.485C198.299 201.005 197.353 200.753 196.39 200.753C195.427 200.753 194.481 201.005 193.646 201.485L83.5896 264.022C83.3817 264.143 83.2089 264.316 83.0884 264.524C82.9678 264.731 82.9037 264.967 82.9024 265.207C82.901 265.448 82.9625 265.684 83.0807 265.893C83.1989 266.103 83.3697 266.277 83.5763 266.4Z" fill="#E6E6E6"/>
<path d="M57.842 58.2285L57.8887 72.8871L59.6602 73.9194L59.6136 57.2095L57.842 58.2285Z" fill="#F0F0F0"/>
<path d="M38.708 83.9628L38.7147 86.0141L59.6604 73.9195L57.8888 72.8872L38.708 83.9628Z" fill="#F5F5F5"/>
<path d="M61.7517 53.5063L36.5103 68.0784L36.5702 89.7234L61.8183 75.1513L61.7517 53.5063ZM38.7081 86.0138V83.9625L38.6614 69.3105L57.8422 58.235L59.6138 57.216L59.6604 73.9259L38.7081 86.0138Z" fill="#E0E0E0"/>
<path d="M61.7516 53.5064L59.98 52.4741L34.7319 67.0462L36.5102 68.0785L61.7516 53.5064Z" fill="#F5F5F5"/>
<path d="M34.7319 67.0464L34.7919 88.6914L36.5701 89.7237L36.5102 68.0787L34.7319 67.0464Z" fill="#F0F0F0"/>
<path d="M57.842 88.7776L57.8887 103.436L59.6602 104.469L59.6136 87.752L57.842 88.7776Z" fill="#F0F0F0"/>
<path d="M38.708 114.512L38.7147 116.563L59.6604 104.469L57.8888 103.437L38.708 114.512Z" fill="#F5F5F5"/>
<path d="M61.7517 84.0493L36.5103 98.6281L36.5702 120.273L61.8183 105.694L61.7517 84.0493ZM38.7081 116.55V114.492L38.6614 99.8402L57.8422 88.7713L59.6138 87.7456L59.6604 104.462L38.7081 116.55Z" fill="#E0E0E0"/>
<path d="M61.7516 84.0494L59.98 83.0171L34.7319 97.5958L36.5102 98.6281L61.7516 84.0494Z" fill="#F5F5F5"/>
<path d="M34.7319 97.5957L34.7919 119.234L36.5701 120.273L36.5102 98.628L34.7319 97.5957Z" fill="#F0F0F0"/>
<path d="M51.7481 63.7959L56.9829 67.9118L56.9896 71.9344L39.5936 81.9777L39.5803 77.9551L42.897 71.375L45.874 73.686L44.8217 76.9561L46.3535 74.0523L51.7481 63.7959Z" fill="#E0E0E0"/>
<path d="M46.0339 65.821C46.8531 65.3481 47.5191 65.7277 47.5258 66.6735C47.503 67.1917 47.357 67.6971 47.0998 68.1476C46.8427 68.5982 46.4819 68.981 46.0473 69.2642C45.2281 69.7371 44.5621 69.3574 44.5554 68.4184C44.5772 67.899 44.7227 67.3923 44.9799 66.9405C45.237 66.4887 45.5984 66.1049 46.0339 65.821V65.821Z" fill="#E0E0E0"/>
<path d="M51.7481 94.3457L56.9829 98.4616L56.9896 102.484L39.5936 112.528L39.5803 108.505L42.897 101.918L45.874 104.229L44.8217 107.499L46.3535 104.595L51.7481 94.3457Z" fill="#E0E0E0"/>
<path d="M46.0339 96.37C46.8531 95.8971 47.5191 96.2767 47.5258 97.2158C47.4989 97.7295 47.3509 98.2295 47.0939 98.6751C46.837 99.1207 46.4783 99.4993 46.0473 99.7799C45.2281 100.253 44.5621 99.8731 44.5554 98.9274C44.5834 98.4149 44.7318 97.9162 44.9887 97.4718C45.2456 97.0275 45.6037 96.6499 46.0339 96.37V96.37Z" fill="#E0E0E0"/>
<path d="M264.475 186.054L264.469 188.325L227.08 166.733L227.086 164.462L264.475 186.054Z" fill="#F88486"/>
<path d="M251.155 181.978L251.149 184.249L227.066 170.343L227.073 168.072L251.155 181.978Z" fill="#F88486"/>
<path d="M240.233 150.47C240.625 150.696 240.97 150.994 241.252 151.349C242.438 152.767 242.731 154.679 242.89 156.337C243.117 158.635 243.35 160.932 243.556 163.23C243.641 164.437 243.865 165.631 244.222 166.787C244.606 168.04 245.333 169.161 246.32 170.023C246.434 170.112 246.554 170.192 246.68 170.263C247.024 170.493 247.428 170.616 247.842 170.616C248.256 170.616 248.66 170.493 249.004 170.263C249.664 169.665 250.187 168.931 250.536 168.112C250.97 167.15 251.682 166.34 252.581 165.788C253.04 165.589 253.541 165.506 254.039 165.548C254.538 165.59 255.018 165.755 255.438 166.027C255.614 166.131 255.783 166.247 255.944 166.374C257.882 167.859 259.028 170.776 259.94 173.307C260.852 175.837 262.018 178.775 263.969 180.193C264.098 180.289 264.231 180.378 264.369 180.46C264.959 180.816 265.647 180.978 266.334 180.922C267.022 180.865 267.674 180.594 268.198 180.146C269.271 179.327 270.136 178.149 271.475 177.789C272.185 177.651 272.922 177.754 273.566 178.082V189.137L227.106 162.331L227.159 143.956C228.032 145.462 228.649 147.103 228.984 148.811C229.384 151.022 229.291 153.427 230.783 155.378C231.145 155.853 231.598 156.251 232.115 156.55C232.675 156.905 233.347 157.038 233.999 156.923C234.918 156.683 235.498 155.824 235.877 154.812C236.39 153.48 236.623 151.815 237.436 150.816C237.782 150.431 238.256 150.184 238.77 150.121C239.284 150.057 239.803 150.181 240.233 150.47Z" fill="#F88486"/>
<path opacity="0.4" d="M240.233 150.47C240.625 150.696 240.97 150.994 241.252 151.349C242.438 152.767 242.731 154.679 242.89 156.337C243.117 158.635 243.35 160.932 243.556 163.23C243.641 164.437 243.865 165.631 244.222 166.787C244.606 168.04 245.333 169.161 246.32 170.023C246.434 170.112 246.554 170.192 246.68 170.263C247.024 170.493 247.428 170.616 247.842 170.616C248.256 170.616 248.66 170.493 249.004 170.263C249.664 169.665 250.187 168.931 250.536 168.112C250.97 167.15 251.682 166.34 252.581 165.788C253.04 165.589 253.541 165.506 254.039 165.548C254.538 165.59 255.018 165.755 255.438 166.027C255.614 166.131 255.783 166.247 255.944 166.374C257.882 167.859 259.028 170.776 259.94 173.307C260.852 175.837 262.018 178.775 263.969 180.193C264.098 180.289 264.231 180.378 264.369 180.46C264.959 180.816 265.647 180.978 266.334 180.922C267.022 180.865 267.674 180.594 268.198 180.146C269.271 179.327 270.136 178.149 271.475 177.789C272.185 177.651 272.922 177.754 273.566 178.082V189.137L227.106 162.331L227.159 143.956C228.032 145.462 228.649 147.103 228.984 148.811C229.384 151.022 229.291 153.427 230.783 155.378C231.145 155.853 231.598 156.251 232.115 156.55C232.675 156.905 233.347 157.038 233.999 156.923C234.918 156.683 235.498 155.824 235.877 154.812C236.39 153.48 236.623 151.815 237.436 150.816C237.782 150.431 238.256 150.184 238.77 150.121C239.284 150.057 239.803 150.181 240.233 150.47Z" fill="white"/>
<path d="M280.919 92.421L228.538 62.1779C228.34 62.0415 228.112 61.9546 227.873 61.9244C227.634 61.8943 227.392 61.9219 227.166 62.0047V62.0047H227.126L227.046 62.0514L224.928 63.2701H224.882H224.848C224.658 63.4225 224.508 63.6195 224.411 63.8437C224.315 64.0679 224.275 64.3124 224.296 64.5555L224.256 78.6747C224.292 79.3874 224.497 80.0814 224.854 80.6996C225.21 81.3178 225.708 81.8426 226.307 82.2312L278.688 112.554C278.898 112.707 279.146 112.801 279.405 112.825C279.664 112.85 279.924 112.805 280.16 112.694V112.694L282.318 111.449C282.52 111.295 282.68 111.091 282.781 110.858C282.883 110.625 282.922 110.37 282.897 110.117L282.937 95.9974C282.904 95.2848 282.705 94.5898 282.354 93.9685C282.004 93.3472 281.512 92.8171 280.919 92.421V92.421Z" fill="#F88486"/>
<path opacity="0.3" d="M280.919 92.421L228.538 62.1779C228.34 62.0415 228.112 61.9546 227.873 61.9244C227.634 61.8943 227.392 61.9219 227.166 62.0047V62.0047H227.126L227.046 62.0514L224.928 63.2701C225.16 63.1702 225.413 63.1318 225.664 63.1587C225.915 63.1855 226.155 63.2767 226.36 63.4233L278.741 93.6664C279.592 94.2194 280.233 95.0428 280.559 96.004L282.744 94.7586C282.416 93.7959 281.773 92.9721 280.919 92.421V92.421Z" fill="white"/>
<path opacity="0.2" d="M280.559 96.0172C280.708 96.4065 280.787 96.8192 280.792 97.236L280.752 111.362C280.781 111.617 280.74 111.874 280.636 112.108C280.532 112.342 280.368 112.544 280.16 112.694V112.694L282.318 111.448C282.52 111.295 282.68 111.091 282.781 110.858C282.883 110.625 282.922 110.37 282.897 110.116L282.937 95.9973C282.929 95.5829 282.85 95.1729 282.704 94.7852L280.559 96.0172Z" fill="black"/>
<path d="M238.934 76.1972C240.073 78.1952 240.166 80.2931 239.221 81.1989L235.478 79.041L235.218 76.7766C235.209 76.7115 235.186 76.6491 235.152 76.593C235.117 76.5369 235.072 76.4883 235.018 76.4503C234.912 76.3903 234.825 76.4503 234.812 76.5369L234.266 79.8669L233.56 74.5389C233.549 74.4744 233.524 74.4129 233.489 74.358C233.454 74.3031 233.407 74.2559 233.353 74.2192C233.336 74.2039 233.315 74.1938 233.292 74.1902C233.27 74.1865 233.247 74.1894 233.226 74.1985C233.205 74.2076 233.187 74.2226 233.174 74.2416C233.161 74.2606 233.154 74.2829 233.153 74.3058L232.641 77.9621L232.128 75.2182C232.102 75.0964 232.03 74.9891 231.928 74.9185C231.828 74.8652 231.748 74.9185 231.728 74.9784L231.262 76.5968L228.205 74.8319C227.266 72.8339 227.373 70.8359 228.525 70.1699C228.892 70.0043 229.297 69.9387 229.698 69.9796C230.099 70.0205 230.483 70.1666 230.809 70.403C231.759 70.995 232.54 71.8205 233.08 72.8006L233.746 73.9195L234.412 73.5465C234.779 73.3829 235.182 73.3183 235.582 73.3592C235.982 73.4001 236.364 73.545 236.69 73.7796C237.632 74.3812 238.404 75.2133 238.934 76.1972V76.1972ZM234.998 78.1952L234.465 81.4719C234.465 81.5718 234.366 81.6051 234.266 81.5452C234.21 81.5115 234.163 81.4659 234.127 81.4118C234.092 81.3577 234.068 81.2963 234.059 81.2322L233.393 75.9841L232.92 79.3674C232.92 79.4739 232.82 79.5072 232.714 79.4606C232.661 79.4262 232.616 79.3812 232.582 79.3285C232.547 79.2757 232.524 79.2164 232.514 79.1542L231.935 76.0707L231.648 77.0896C231.648 77.1762 231.542 77.2029 231.448 77.1496L228.598 75.5046L229.184 76.5235L233.726 84.389L238.295 81.7783L238.881 81.4453L235.331 79.394C235.276 79.3586 235.229 79.3117 235.193 79.2565C235.158 79.2014 235.134 79.1393 235.125 79.0743L234.998 78.1952Z" fill="#F88486"/>
<path d="M233.353 74.2257C233.407 74.2624 233.453 74.3096 233.489 74.3645C233.524 74.4195 233.548 74.481 233.56 74.5454L234.266 79.8734L234.812 76.5434C234.812 76.4368 234.912 76.3969 235.018 76.4568C235.072 76.4949 235.117 76.5434 235.151 76.5995C235.186 76.6556 235.208 76.7181 235.218 76.7832L235.478 79.0476L239.221 81.2054L241.345 82.4308C241.405 82.4704 241.455 82.5236 241.491 82.5861C241.527 82.6485 241.548 82.7186 241.552 82.7905C241.552 82.917 241.458 82.9703 241.338 82.9037L238.854 81.4718L235.304 79.4205C235.249 79.3851 235.202 79.3382 235.167 79.2831C235.131 79.2279 235.108 79.1658 235.098 79.1008L234.998 78.2217L234.465 81.4984C234.465 81.5983 234.365 81.6316 234.266 81.5717C234.21 81.538 234.163 81.4924 234.127 81.4383C234.092 81.3842 234.068 81.3229 234.059 81.2587L233.393 76.0106L232.92 79.3939C232.92 79.4162 232.913 79.4379 232.901 79.4567C232.889 79.4754 232.872 79.4905 232.852 79.5002C232.832 79.5099 232.81 79.5138 232.788 79.5115C232.766 79.5092 232.745 79.5007 232.727 79.4871C232.671 79.4556 232.622 79.4116 232.585 79.3585C232.548 79.3054 232.524 79.2447 232.514 79.1808L231.935 76.0972L231.648 77.1162C231.648 77.2027 231.542 77.2294 231.448 77.1761L228.598 75.5311L226.114 74.0925C226.054 74.0555 226.004 74.0047 225.968 73.9444C225.932 73.8842 225.912 73.8162 225.907 73.7462C225.907 73.613 226 73.5597 226.114 73.6197L228.232 74.8451L231.288 76.61L231.755 74.9916C231.755 74.905 231.855 74.8784 231.941 74.925C231.995 74.9595 232.042 75.0044 232.078 75.0569C232.115 75.1095 232.141 75.1688 232.154 75.2314L232.667 77.9753L233.18 74.319C233.182 74.2998 233.189 74.2814 233.2 74.2654C233.211 74.2495 233.225 74.2363 233.242 74.2272C233.259 74.218 233.278 74.2131 233.297 74.2129C233.317 74.2126 233.336 74.217 233.353 74.2257V74.2257Z" fill="white"/>
<path opacity="0.4" d="M238.934 76.1972C240.073 78.1952 240.166 80.2931 239.221 81.1989L235.478 79.041L235.218 76.7766C235.209 76.7115 235.186 76.6491 235.152 76.593C235.117 76.5369 235.072 76.4883 235.018 76.4503C234.912 76.3903 234.825 76.4503 234.812 76.5369L234.266 79.8669L233.56 74.5389C233.549 74.4744 233.524 74.4129 233.489 74.358C233.454 74.3031 233.407 74.2559 233.353 74.2192C233.336 74.2039 233.315 74.1938 233.292 74.1902C233.27 74.1865 233.247 74.1894 233.226 74.1985C233.205 74.2076 233.187 74.2226 233.174 74.2416C233.161 74.2606 233.154 74.2829 233.153 74.3058L232.641 77.9621L232.128 75.2182C232.102 75.0964 232.03 74.9891 231.928 74.9185C231.828 74.8652 231.748 74.9185 231.728 74.9784L231.262 76.5968L228.205 74.8319C227.266 72.8339 227.373 70.8359 228.525 70.1699C228.892 70.0043 229.297 69.9387 229.698 69.9796C230.099 70.0205 230.483 70.1666 230.809 70.403C231.759 70.995 232.54 71.8205 233.08 72.8006L233.746 73.9195L234.412 73.5465C234.779 73.3829 235.182 73.3183 235.582 73.3592C235.982 73.4001 236.364 73.545 236.69 73.7796C237.632 74.3812 238.404 75.2133 238.934 76.1972V76.1972ZM234.998 78.1952L234.465 81.4719C234.465 81.5718 234.366 81.6051 234.266 81.5452C234.21 81.5115 234.163 81.4659 234.127 81.4118C234.092 81.3577 234.068 81.2963 234.059 81.2322L233.393 75.9841L232.92 79.3674C232.92 79.4739 232.82 79.5072 232.714 79.4606C232.661 79.4262 232.616 79.3812 232.582 79.3285C232.547 79.2757 232.524 79.2164 232.514 79.1542L231.935 76.0707L231.648 77.0896C231.648 77.1762 231.542 77.2029 231.448 77.1496L228.598 75.5046L229.184 76.5235L233.726 84.389L238.295 81.7783L238.881 81.4453L235.331 79.394C235.276 79.3586 235.229 79.3117 235.193 79.2565C235.158 79.2014 235.134 79.1393 235.125 79.0743L234.998 78.1952Z" fill="white"/>
<path d="M270.13 102.278L270.123 104.609L242.97 88.9311L242.977 86.6001L270.13 102.278Z" fill="white"/>
<path d="M275.358 100.719L275.351 103.057L242.984 84.3689L242.99 82.0312L275.358 100.719Z" fill="white"/>
<path d="M254.126 83.8826L254.119 86.2136L242.997 79.7934L243.003 77.4624L254.126 83.8826Z" fill="white"/>
<path d="M280.919 119.953L228.538 89.7101C228.34 89.5737 228.112 89.4868 227.873 89.4567C227.634 89.4265 227.392 89.4541 227.166 89.537V89.537H227.126L227.046 89.5836L224.928 90.8024H224.882H224.848C224.658 90.9547 224.508 91.1517 224.411 91.3759C224.315 91.6001 224.275 91.8446 224.296 92.0878L224.256 106.207C224.292 106.92 224.497 107.614 224.854 108.232C225.21 108.85 225.708 109.375 226.307 109.763L278.688 140.006C278.898 140.159 279.146 140.253 279.405 140.278C279.664 140.302 279.924 140.257 280.16 140.146V140.146L282.318 138.901C282.522 138.748 282.682 138.545 282.784 138.312C282.886 138.078 282.924 137.822 282.897 137.569L282.937 123.443C282.892 122.745 282.686 122.067 282.336 121.462C281.986 120.857 281.501 120.34 280.919 119.953V119.953Z" fill="#F88486"/>
<path opacity="0.3" d="M280.919 119.953L228.538 89.7101C228.34 89.5737 228.112 89.4868 227.873 89.4567C227.634 89.4265 227.392 89.4541 227.166 89.537V89.537H227.126L227.046 89.5836L224.928 90.8024C225.16 90.7025 225.413 90.6641 225.664 90.6909C225.915 90.7177 226.155 90.8089 226.36 90.9556L278.741 121.212C279.592 121.765 280.233 122.588 280.559 123.55L282.744 122.304C282.419 121.337 281.776 120.508 280.919 119.953V119.953Z" fill="white"/>
<path opacity="0.2" d="M280.559 123.55C280.709 123.939 280.788 124.352 280.792 124.769L280.752 138.895C280.781 139.149 280.74 139.407 280.636 139.641C280.532 139.875 280.368 140.077 280.16 140.227L282.318 138.981C282.522 138.829 282.682 138.626 282.784 138.392C282.886 138.158 282.924 137.902 282.897 137.649L282.937 123.523C282.929 123.111 282.85 122.703 282.704 122.318L280.559 123.55Z" fill="black"/>
<path d="M272.86 131.329L272.854 133.66L258.029 125.102L258.035 122.764L272.86 131.329Z" fill="white"/>
<path d="M274.732 127.826L274.725 130.163L258.035 120.526L258.042 118.195L274.732 127.826Z" fill="white"/>
<path d="M265.474 117.909L265.468 120.24L258.049 115.957L258.055 113.626L265.474 117.909Z" fill="white"/>
<path d="M235.178 104.422C235.419 104.577 235.619 104.788 235.762 105.035C235.906 105.283 235.989 105.561 236.004 105.847V107.426C236.004 107.945 235.624 108.158 235.171 107.899L233.799 107.106C233.561 106.949 233.363 106.738 233.221 106.49C233.079 106.243 232.996 105.966 232.98 105.681V104.102C232.98 103.576 233.353 103.37 233.806 103.63L235.178 104.422Z" fill="white"/>
<path opacity="0.4" d="M234.512 98.3886L234.712 98.5151V100.413C234.646 100.365 234.577 100.321 234.505 100.28C231.875 98.7615 229.73 99.9803 229.717 103.011C229.752 104.361 230.084 105.686 230.689 106.893L229.277 107.073C228.524 105.506 228.113 103.797 228.072 102.058C228.078 97.989 230.969 96.344 234.512 98.3886Z" fill="white"/>
<path d="M234.712 98.5146C238.162 100.633 240.926 105.481 240.912 109.47C240.899 113.46 238.009 115.185 234.472 113.14C232.177 111.678 230.368 109.566 229.277 107.073L230.689 106.893C231.504 108.679 232.818 110.191 234.472 111.249C237.136 112.767 239.254 111.542 239.261 108.518C239.172 106.909 238.716 105.342 237.928 103.937C237.139 102.532 236.039 101.326 234.712 100.413V98.5146Z" fill="white"/>
<path opacity="0.4" d="M248.791 106.633L248.997 106.76V108.658C248.931 108.61 248.862 108.565 248.791 108.525C246.16 107.006 244.016 108.225 244.009 111.255C244.042 112.605 244.372 113.93 244.975 115.138L243.57 115.318C242.811 113.752 242.398 112.042 242.357 110.303C242.364 106.234 245.255 104.562 248.791 106.633Z" fill="white"/>
<path d="M249.464 112.667C249.702 112.824 249.901 113.035 250.043 113.282C250.185 113.53 250.267 113.807 250.283 114.092V115.664C250.283 116.19 249.917 116.403 249.457 116.144L248.085 115.351C247.846 115.195 247.648 114.984 247.505 114.736C247.363 114.489 247.281 114.211 247.266 113.926V112.347C247.266 111.821 247.639 111.615 248.098 111.875L249.464 112.667Z" fill="white"/>
<path d="M248.998 106.76C252.441 108.878 255.205 113.726 255.191 117.715C255.178 121.705 252.294 123.43 248.751 121.385C246.456 119.924 244.65 117.812 243.563 115.318L244.968 115.138C245.786 116.924 247.102 118.437 248.758 119.494C251.388 121.012 253.533 119.787 253.546 116.763C253.458 115.154 253.001 113.586 252.211 112.181C251.421 110.776 250.32 109.57 248.991 108.658L248.998 106.76Z" fill="white"/>
<path d="M230.729 120.739C231.066 120.957 231.345 121.252 231.545 121.599C231.744 121.947 231.857 122.337 231.875 122.737V124.929C231.875 125.655 231.362 125.948 230.723 125.595L228.818 124.496C228.484 124.276 228.207 123.98 228.009 123.633C227.811 123.286 227.698 122.897 227.679 122.498V120.307C227.679 119.581 228.198 119.288 228.824 119.641L230.729 120.739Z" fill="#F88486"/>
<path d="M230.716 126.906C231.051 127.124 231.33 127.419 231.528 127.767C231.726 128.114 231.838 128.504 231.855 128.904V131.095C231.855 131.821 231.342 132.114 230.709 131.761L228.804 130.662C228.469 130.445 228.19 130.15 227.992 129.802C227.794 129.454 227.682 129.064 227.666 128.664V126.467C227.666 125.741 228.178 125.448 228.811 125.801L230.716 126.906Z" fill="#F88486"/>
<path d="M230.696 133.08C231.032 133.298 231.311 133.593 231.51 133.94C231.71 134.288 231.823 134.678 231.841 135.078V137.269C231.841 137.995 231.322 138.288 230.689 137.935L228.784 136.836C228.449 136.618 228.171 136.323 227.973 135.975C227.775 135.628 227.662 135.238 227.646 134.838V132.647C227.646 131.928 228.158 131.635 228.791 131.981L230.696 133.08Z" fill="#F88486"/>
<path d="M262.75 152.907L262.744 155.085L233.799 138.368L233.806 136.19L262.75 152.907Z" fill="#F88486"/>
<path d="M274.292 153.387L274.286 155.571L233.813 132.208L233.819 130.023L274.292 153.387Z" fill="#F88486"/>
<path d="M268.951 144.129L268.944 146.307L233.833 126.04L233.839 123.856L268.951 144.129Z" fill="#F88486"/>
<path d="M162.704 47.6255C162.704 42.0112 160.706 38.0684 157.502 36.2103L150.316 31.9679L150.216 31.9146C149.929 31.7482 149.631 31.6014 149.324 31.475C149.267 31.4521 149.209 31.4321 149.151 31.4151L148.844 31.3085C148.691 31.2553 148.545 31.1887 148.385 31.142C148.225 31.0954 148.038 31.0621 147.872 31.0222L147.552 30.9556C147.498 30.9384 147.442 30.925 147.386 30.9156C147.029 30.853 146.669 30.8107 146.307 30.7891H145.98C145.701 30.7891 145.421 30.7891 145.128 30.7891L144.835 30.8224L144.302 30.8756C144.136 30.8756 143.969 30.8756 143.803 30.9223L143.356 31.0222C143.117 31.0621 142.877 31.1154 142.631 31.1753C142.497 31.1753 142.371 31.222 142.238 31.2619C141.938 31.3418 141.638 31.4351 141.332 31.535H141.239C140.872 31.6549 140.513 31.7947 140.14 31.9479L139.7 32.1477L139.281 32.3408C138.741 32.5939 138.202 32.867 137.649 33.1867L85.1148 63.523C84.542 63.856 83.9759 64.2156 83.4165 64.6019L82.8837 64.9882C82.504 65.2612 82.1311 65.5409 81.7581 65.834L81.1521 66.3401C80.8124 66.6265 80.4861 66.9196 80.1464 67.2193L79.547 67.7787L79.1674 68.1317C79.0409 68.2582 78.9143 68.4047 78.7878 68.5379C78.3882 68.9442 77.9886 69.3638 77.6023 69.7967C77.4824 69.9365 77.3492 70.0631 77.2227 70.2029L76.923 70.5692C76.6899 70.8423 76.4634 71.1287 76.257 71.4084C76.0505 71.6881 75.9506 71.7747 75.8041 71.9612C75.6576 72.1477 75.571 72.2809 75.4578 72.4407C75.3446 72.6005 75.1248 72.8803 74.9649 73.1067L74.6186 73.5662C74.4321 73.8326 74.259 74.1057 74.0792 74.3788L73.7328 74.8916L73.593 75.1047C73.2733 75.6042 72.9669 76.1037 72.6672 76.6165L72.614 76.7164L72.4408 77.0228C72.2343 77.3824 72.0279 77.7487 71.8347 78.115C71.7415 78.2815 71.6616 78.4547 71.575 78.6278L71.3019 79.1606C71.2287 79.3205 71.1421 79.4737 71.0688 79.6268C70.8624 80.0464 70.6759 80.466 70.4894 80.8922L70.3895 81.112L70.3562 81.172C70.1298 81.7048 69.91 82.2376 69.6902 82.7704C69.6569 82.8703 69.6236 82.9702 69.5837 83.0701C69.5437 83.17 69.4505 83.4563 69.3772 83.6495C69.3039 83.8426 69.1774 84.1823 69.0908 84.4553C69.0042 84.7284 68.9643 84.8683 68.8977 85.0814C68.8311 85.2945 68.7445 85.5676 68.6779 85.8073C68.6113 86.0471 68.578 86.1137 68.538 86.2669C68.4581 86.5399 68.4048 86.813 68.3382 87.086C68.2716 87.3591 68.1784 87.6921 68.1118 87.9918C68.1118 88.0984 68.0585 88.2049 68.0319 88.3115C67.9853 88.5313 67.9653 88.7444 67.9253 88.9775C67.8321 89.4503 67.7455 89.9232 67.6789 90.3961C67.6789 90.5293 67.6256 90.6625 67.6123 90.789C67.5723 91.0887 67.5524 91.3817 67.5257 91.6814C67.4991 91.9811 67.4791 92.101 67.4658 92.3075C67.4125 92.9735 67.3792 93.6395 67.3859 94.2722L67.6123 195.644C67.6123 201.258 69.6103 205.208 72.8138 207.066L80.0065 211.322C79.8045 211.196 79.6089 211.061 79.4205 210.915C82.6972 213.2 87.4125 213.12 92.6672 210.083L145.188 179.74C155.018 174.066 162.97 160.299 162.937 148.991L162.704 47.6255Z" fill="#F88486"/>
<path opacity="0.6" d="M162.704 47.6255C162.704 42.0112 160.706 38.0684 157.502 36.2103L150.316 31.9679L150.216 31.9146C149.929 31.7482 149.631 31.6014 149.324 31.475C149.267 31.4521 149.209 31.4321 149.151 31.4151L148.844 31.3085C148.691 31.2553 148.545 31.1887 148.385 31.142C148.225 31.0954 148.038 31.0621 147.872 31.0222L147.552 30.9556C147.498 30.9384 147.442 30.925 147.386 30.9156C147.029 30.853 146.669 30.8107 146.307 30.7891H145.98C145.701 30.7891 145.421 30.7891 145.128 30.7891L144.835 30.8224L144.302 30.8756C144.136 30.8756 143.969 30.8756 143.803 30.9223L143.356 31.0222C143.117 31.0621 142.877 31.1154 142.631 31.1753C142.497 31.1753 142.371 31.222 142.238 31.2619C141.938 31.3418 141.638 31.4351 141.332 31.535H141.239C140.872 31.6549 140.513 31.7947 140.14 31.9479L139.7 32.1477L139.281 32.3408C138.741 32.5939 138.202 32.867 137.649 33.1867L85.1148 63.523C84.542 63.856 83.9759 64.2156 83.4165 64.6019L82.8837 64.9882C82.504 65.2612 82.1311 65.5409 81.7581 65.834L81.1521 66.3401C80.8124 66.6265 80.4861 66.9196 80.1464 67.2193L79.547 67.7787L79.1674 68.1317C79.0409 68.2582 78.9143 68.4047 78.7878 68.5379C78.3882 68.9442 77.9886 69.3638 77.6023 69.7967C77.4824 69.9365 77.3492 70.0631 77.2227 70.2029L76.923 70.5692C76.6899 70.8423 76.4634 71.1287 76.257 71.4084C76.0505 71.6881 75.9506 71.7747 75.8041 71.9612C75.6576 72.1477 75.571 72.2809 75.4578 72.4407C75.3446 72.6005 75.1248 72.8803 74.9649 73.1067L74.6186 73.5662C74.4321 73.8326 74.259 74.1057 74.0792 74.3788L73.7328 74.8916L73.593 75.1047C73.2733 75.6042 72.9669 76.1037 72.6672 76.6165L72.614 76.7164L72.4408 77.0228C72.2343 77.3824 72.0279 77.7487 71.8347 78.115C71.7415 78.2815 71.6616 78.4547 71.575 78.6278L71.3019 79.1606C71.2287 79.3205 71.1421 79.4737 71.0688 79.6268C70.8624 80.0464 70.6759 80.466 70.4894 80.8922L70.3895 81.112L70.3562 81.172C70.1298 81.7048 69.91 82.2376 69.6902 82.7704C69.6569 82.8703 69.6236 82.9702 69.5837 83.0701C69.5437 83.17 69.4505 83.4563 69.3772 83.6495C69.3039 83.8426 69.1774 84.1823 69.0908 84.4553C69.0042 84.7284 68.9643 84.8683 68.8977 85.0814C68.8311 85.2945 68.7445 85.5676 68.6779 85.8073C68.6113 86.0471 68.578 86.1137 68.538 86.2669C68.4581 86.5399 68.4048 86.813 68.3382 87.086C68.2716 87.3591 68.1784 87.6921 68.1118 87.9918C68.1118 88.0984 68.0585 88.2049 68.0319 88.3115C67.9853 88.5313 67.9653 88.7444 67.9253 88.9775C67.8321 89.4503 67.7455 89.9232 67.6789 90.3961C67.6789 90.5293 67.6256 90.6625 67.6123 90.789C67.5723 91.0887 67.5524 91.3817 67.5257 91.6814C67.4991 91.9811 67.4791 92.101 67.4658 92.3075C67.4125 92.9735 67.3792 93.6395 67.3859 94.2722L67.6123 195.644C67.6123 201.258 69.6103 205.208 72.8138 207.066L80.0065 211.322C79.8045 211.196 79.6089 211.061 79.4205 210.915C82.6972 213.2 87.4125 213.12 92.6672 210.083L145.188 179.74C155.018 174.066 162.97 160.299 162.937 148.991L162.704 47.6255Z" fill="white"/>
<path opacity="0.1" d="M74.7918 199.88L74.592 98.5145L67.3992 94.2588L67.6256 195.631C67.6256 201.245 69.6236 205.194 72.8271 207.053L80.0199 211.308C76.7964 209.45 74.8118 205.501 74.7918 199.88Z" fill="black"/>
<path opacity="0.3" d="M146.893 36.4101C147.395 36.1795 147.908 35.975 148.431 35.7974H148.525C148.964 35.6509 149.397 35.5376 149.857 35.4377L150.583 35.2779C150.902 35.218 151.215 35.1713 151.528 35.138L152.061 35.0781C152.443 35.0583 152.825 35.0583 153.207 35.0781H153.466C153.913 35.1048 154.358 35.1604 154.798 35.2446L155.118 35.3179C155.447 35.3952 155.772 35.4908 156.09 35.6042L156.397 35.7041C156.799 35.8608 157.188 36.0478 157.562 36.2636L150.316 31.9679L150.216 31.9146C149.929 31.7482 149.631 31.6014 149.324 31.475C149.267 31.4521 149.209 31.4321 149.151 31.4151L148.844 31.3085C148.691 31.2553 148.545 31.1887 148.385 31.142C148.225 31.0954 148.038 31.0621 147.872 31.0222L147.552 30.9556C147.498 30.9384 147.442 30.925 147.386 30.9156C147.029 30.853 146.669 30.8107 146.307 30.7891H145.981C145.701 30.7891 145.421 30.7891 145.128 30.7891L144.835 30.8224L144.302 30.8756C144.136 30.8756 143.969 30.8756 143.803 30.9223L143.356 31.0222C143.117 31.0621 142.877 31.1154 142.631 31.1753C142.497 31.1753 142.371 31.222 142.238 31.2619C141.938 31.3418 141.638 31.4351 141.332 31.535H141.239C140.872 31.6549 140.513 31.7947 140.14 31.9479L139.7 32.1477L139.281 32.3408C138.741 32.5939 138.202 32.867 137.649 33.1867L85.1148 63.523C84.542 63.856 83.9759 64.2156 83.4165 64.6019L82.8837 64.9948C82.5041 65.2612 82.1311 65.5409 81.7581 65.834L81.1521 66.3401C80.8124 66.6265 80.4861 66.9196 80.1464 67.2193L79.547 67.7787L79.1674 68.1317C79.0409 68.2582 78.9143 68.4047 78.7878 68.5379C78.3882 68.9442 77.9886 69.3638 77.6023 69.7967C77.4824 69.9365 77.3492 70.0631 77.2227 70.2029L76.923 70.5692C76.6899 70.8423 76.4634 71.1287 76.257 71.4084C76.0505 71.6881 75.9506 71.7747 75.8041 71.9612C75.6576 72.1477 75.571 72.2809 75.4578 72.4407C75.3446 72.6005 75.1248 72.8803 74.9649 73.1067L74.6186 73.5662C74.4321 73.8326 74.259 74.1057 74.0792 74.3788L73.7328 74.8916L73.593 75.1047C73.2733 75.6042 72.9669 76.1037 72.6672 76.6165L72.614 76.7164L72.4408 77.0228C72.2343 77.3891 72.0279 77.7487 71.8347 78.115C71.7415 78.2815 71.6616 78.4547 71.575 78.6278L71.3019 79.1607C71.2287 79.3205 71.1421 79.4737 71.0688 79.6268C70.8624 80.0464 70.6759 80.466 70.4894 80.8922L70.3895 81.112L70.3562 81.172C70.1298 81.7048 69.91 82.2376 69.6902 82.7704C69.6569 82.8703 69.6236 82.9702 69.5837 83.0701C69.5437 83.17 69.4505 83.4563 69.3772 83.6495C69.3039 83.8426 69.1774 84.1823 69.0908 84.4553C69.0042 84.7284 68.9643 84.8683 68.8977 85.0814C68.8311 85.2945 68.7445 85.5676 68.6779 85.8073C68.6113 86.0471 68.578 86.1137 68.538 86.2669C68.4581 86.5399 68.4048 86.813 68.3382 87.086C68.2716 87.3591 68.1784 87.6921 68.1118 87.9918C68.1118 88.0984 68.0585 88.2049 68.0319 88.3115C67.9853 88.5313 67.9653 88.7444 67.9253 88.9775C67.8321 89.4504 67.7455 89.9232 67.6789 90.3961C67.6789 90.5293 67.6256 90.6625 67.6123 90.789C67.5723 91.0887 67.5524 91.3818 67.5257 91.6815C67.4991 91.9812 67.4791 92.101 67.4658 92.3075C67.4125 92.9735 67.3792 93.6395 67.3859 94.2722L74.5787 98.5279C74.5787 97.8619 74.5787 97.1959 74.6519 96.5632C74.6519 96.3501 74.6985 96.1436 74.7185 95.9305C74.7585 95.5043 74.8118 95.078 74.8717 94.6518C74.9316 94.2256 75.0249 93.7061 75.1181 93.2332C75.1781 92.9069 75.2313 92.5672 75.3046 92.2609C75.3779 91.9545 75.4511 91.6548 75.531 91.3485C75.6376 90.9289 75.7442 90.5026 75.864 90.0764C75.9373 89.8366 76.0172 89.5902 76.0905 89.3438C76.2437 88.8709 76.4035 88.3914 76.57 87.9185C76.6366 87.7254 76.7032 87.5256 76.7765 87.3325C77.0229 86.6665 77.2826 86.0005 77.569 85.3811L77.6689 85.1547C77.9286 84.5752 78.195 84.0025 78.4814 83.4297C78.568 83.2499 78.6612 83.0701 78.7545 82.8969C79.0275 82.3575 79.3206 81.8246 79.6203 81.2918L79.7934 80.9855C80.1531 80.3661 80.526 79.7601 80.9123 79.1607L81.2586 78.6412C81.545 78.2149 81.8381 77.7953 82.1378 77.3758L82.6373 76.7098C82.897 76.3634 83.1701 76.0438 83.4365 75.6841L84.1025 74.8383L84.7685 74.0724C85.1547 73.6395 85.5543 73.2199 85.9539 72.8137C86.207 72.5539 86.4534 72.3008 86.7132 72.0544C86.9729 71.808 87.1128 71.6748 87.3126 71.495C87.6456 71.1886 87.9786 70.8956 88.3182 70.6159L88.9243 70.1097C89.2973 69.8167 89.6702 69.5369 90.0498 69.2639C90.2297 69.1373 90.4028 68.9975 90.5826 68.8776C91.1421 68.4913 91.7082 68.1317 92.2809 67.7987L144.815 37.469C145.368 37.1494 145.907 36.8763 146.447 36.6232L146.893 36.4101Z" fill="white"/>
<path d="M83.7494 199.853C83.7494 202.058 84.2356 203.183 84.482 203.529C84.5574 203.536 84.6331 203.536 84.7085 203.529C85.1147 203.529 86.2602 203.41 88.1783 202.304L140.712 171.974C147.805 167.878 154.032 157.149 153.979 149.004L153.926 122.963L83.6628 163.969L83.7494 199.853Z" fill="#F88486"/>
<path d="M153.753 47.6524C153.753 45.4213 153.247 44.3224 153.007 43.9761H152.707H152.501L152.208 44.0227L151.928 44.0826C151.755 44.1226 151.508 44.1892 151.329 44.2491H151.242C151.062 44.3157 150.822 44.409 150.576 44.5355L150.33 44.6487C149.93 44.8352 149.617 44.9951 149.344 45.1549L96.8098 75.4845C96.4835 75.6777 96.1438 75.9041 95.7375 76.1505L95.3379 76.4369C95.0782 76.6301 94.8185 76.8232 94.5654 77.023L94.2057 77.316L94.1325 77.3826C93.8794 77.5891 93.6396 77.8022 93.3999 78.0153L92.9537 78.4349L92.4741 78.9211L92.3876 79.0077C92.0812 79.314 91.7815 79.6337 91.4951 79.9601L91.3952 80.0666L90.969 80.5461L90.4295 81.2121C90.2164 81.4785 90.0033 81.7449 89.8035 82.018L89.4105 82.5375C89.1774 82.8705 88.9443 83.2035 88.7445 83.5431L88.4648 83.9561C88.1451 84.4556 87.8454 84.9417 87.5857 85.388L87.4392 85.6477C87.1994 86.0673 86.973 86.4935 86.7732 86.9197L86.5601 87.3393C86.3336 87.7922 86.1205 88.2451 85.8941 88.6713C85.8541 88.7579 85.8208 88.8445 85.7742 88.9377C85.5877 89.3773 85.3946 89.8568 85.1881 90.3963L85.0283 90.8492C84.8951 91.2155 84.7752 91.5817 84.662 91.948C84.602 92.1345 84.5421 92.321 84.4888 92.5008C84.3956 92.8205 84.3156 93.1335 84.2357 93.4665L84.1891 93.6464L84.0692 94.1259L83.9893 94.5388L83.936 94.8318C83.8694 95.1715 83.8095 95.4978 83.7629 95.8442C83.7162 96.1905 83.6829 96.4302 83.6563 96.7233L83.6097 97.1495C83.5697 97.649 83.5564 98.0619 83.5564 98.4282L83.6963 160.932L153.959 119.927L153.753 47.6524Z" fill="#455A64"/>
<path d="M83.6562 160.999L83.6629 163.982L153.926 122.977L153.913 119.993L83.6562 160.999Z" fill="white"/>
<path d="M142.557 82.8901L135.864 86.7596L128.685 90.9088L135.864 86.7596C138.275 81.4316 137.942 76.1036 134.865 74.372C133.147 73.393 130.869 73.706 128.658 75.038C126.069 76.6476 123.936 78.8949 122.464 81.5648L120.633 84.735L120.32 80.6857C120.32 80.346 120.04 80.2128 119.7 80.386C119.54 80.491 119.402 80.628 119.297 80.7884C119.191 80.9489 119.12 81.1292 119.088 81.3184L118.515 85.0546L117.462 84.4552C115.744 83.4762 113.466 83.7892 111.249 85.0879C108.66 86.6963 106.529 88.9441 105.062 91.6147C101.998 96.9427 101.698 102.577 104.136 105.115L97.4292 108.984C97.2468 109.099 97.0952 109.257 96.9873 109.444C96.8794 109.631 96.8185 109.841 96.8098 110.056C96.8098 110.449 97.0895 110.609 97.4292 110.416L105.228 105.894L107.632 107.266L120.08 114.352L121.498 111.894L121.558 112.66C121.558 113.007 121.851 113.14 122.178 112.96C122.346 112.849 122.489 112.703 122.596 112.531C122.702 112.36 122.771 112.168 122.797 111.968L123.044 109.217L132.441 92.9401L134.832 88.8042L142.597 84.322C142.772 84.2011 142.917 84.0414 143.019 83.8554C143.122 83.6694 143.181 83.4621 143.19 83.2498C143.19 82.8502 142.904 82.6903 142.557 82.8901Z" fill="#F88486"/>
<path d="M119.694 80.3527C120.033 80.1795 120.286 80.3127 120.313 80.6524L120.626 84.7017L122.218 104.921L124.142 83.8558C124.162 83.6606 124.225 83.4722 124.327 83.3041C124.428 83.136 124.565 82.9924 124.729 82.8835C125.048 82.697 125.308 82.7836 125.361 83.0966L127.639 95.4043L128.065 91.8678C128.093 91.6734 128.162 91.4872 128.267 91.3218C128.373 91.1563 128.513 91.0155 128.678 90.9088L135.864 86.7596L142.564 82.8901C142.91 82.6903 143.19 82.8502 143.19 83.2498C143.178 83.4644 143.115 83.6732 143.008 83.8594C142.9 84.0456 142.75 84.204 142.571 84.322L134.805 88.8042L129.204 92.0277L128.318 99.3537C128.292 99.5459 128.225 99.7303 128.121 99.8945C128.018 100.059 127.881 100.199 127.719 100.306C127.406 100.486 127.153 100.393 127.093 100.086L124.915 88.2648L123.01 109.224L122.764 111.974C122.738 112.175 122.669 112.367 122.562 112.538C122.455 112.709 122.313 112.855 122.144 112.967C121.818 113.147 121.552 113.013 121.525 112.667L121.465 111.901L119.467 86.38L116.137 108.018C116.104 108.205 116.033 108.384 115.929 108.543C115.824 108.702 115.689 108.839 115.531 108.944C115.185 109.124 114.938 108.991 114.912 108.651L113.58 93.333L112.068 101.412C112.031 101.593 111.958 101.765 111.854 101.918C111.75 102.071 111.617 102.203 111.462 102.304L105.228 105.894L97.4558 110.383C97.1162 110.576 96.8364 110.383 96.8364 110.023C96.8451 109.807 96.9061 109.597 97.0139 109.411C97.1218 109.224 97.2735 109.066 97.4558 108.951L104.162 105.081L110.996 101.132L113.26 89.0573C113.295 88.8744 113.367 88.7005 113.471 88.546C113.576 88.3915 113.71 88.2596 113.866 88.1582C114.212 87.985 114.452 88.1249 114.485 88.4512L115.777 103.103L118.541 85.008L119.114 81.2718C119.145 81.0877 119.211 80.9115 119.311 80.7537C119.41 80.5958 119.541 80.4595 119.694 80.3527V80.3527Z" fill="white"/>
<path d="M111.328 127.333L111.348 136.024L108.798 137.496L108.778 131.015L107.479 131.761V129.557L111.328 127.333Z" fill="white"/>
<path d="M115.078 124.968C116.87 123.936 118.135 124.302 118.142 125.927C118.142 126.78 117.955 127.659 116.85 129.444L115.777 131.202L118.322 129.737V132.008L112.261 135.511V133.713L114.992 129.224C115.332 128.779 115.538 128.245 115.584 127.686C115.584 127.273 115.331 127.153 114.845 127.433C114.318 127.771 113.925 128.282 113.733 128.878H111.808C112.403 127.23 113.561 125.845 115.078 124.968Z" fill="white"/>
<path d="M122.251 120.826C124.249 119.68 125.681 120.513 125.688 123.39C125.731 124.678 125.439 125.956 124.842 127.099C124.244 128.242 123.361 129.21 122.278 129.91C120.28 131.069 118.841 130.229 118.834 127.346C118.793 126.057 119.086 124.779 119.685 123.636C120.284 122.494 121.168 121.525 122.251 120.826V120.826ZM122.251 127.565C122.744 127.279 123.11 126.546 123.103 124.901C123.097 123.256 122.73 122.903 122.238 123.21C121.745 123.516 121.372 124.229 121.378 125.874C121.385 127.519 121.758 127.872 122.251 127.572" fill="white"/>
<path d="M128.984 123.056C129.603 122.697 130.136 122.93 130.136 123.802C130.131 124.217 130.024 124.624 129.824 124.988C129.625 125.352 129.338 125.66 128.991 125.887C128.698 126.053 128.485 126.093 128.325 125.994V126.213L127.392 126.753V123.043L128.371 122.477V123.643C128.517 123.394 128.729 123.191 128.984 123.056V123.056ZM128.751 125.148C128.876 125.064 128.977 124.95 129.045 124.816C129.112 124.681 129.144 124.532 129.137 124.382C129.137 124.029 128.964 123.949 128.751 124.075C128.627 124.156 128.526 124.268 128.46 124.401C128.393 124.533 128.363 124.68 128.371 124.828C128.371 125.181 128.538 125.268 128.751 125.148" fill="white"/>
<path d="M132.028 121.292C132.647 120.939 133.173 121.178 133.173 122.058C133.171 122.47 133.066 122.876 132.867 123.238C132.668 123.6 132.382 123.906 132.035 124.129C131.775 124.275 131.575 124.322 131.428 124.242V125.401L130.449 125.967V122.271L131.382 121.731V121.951C131.531 121.675 131.755 121.447 132.028 121.292V121.292ZM131.801 123.39C131.926 123.308 132.028 123.194 132.095 123.061C132.163 122.928 132.195 122.78 132.188 122.63C132.188 122.277 132.015 122.191 131.795 122.317C131.669 122.4 131.568 122.515 131.5 122.649C131.432 122.783 131.401 122.933 131.409 123.083C131.409 123.436 131.582 123.516 131.801 123.39" fill="white"/>
<path d="M136.63 118.634C137.169 118.328 137.576 118.468 137.576 119.3V120.859L136.597 121.425V120.093C136.597 119.747 136.49 119.68 136.337 119.767C136.231 119.84 136.146 119.94 136.092 120.058C136.039 120.175 136.017 120.304 136.03 120.433V121.765L135.051 122.331V120.999C135.051 120.652 134.945 120.586 134.778 120.679C134.672 120.752 134.588 120.853 134.534 120.97C134.48 121.087 134.459 121.217 134.472 121.345V122.677L133.486 123.243V120.512L134.419 119.98V120.226C134.58 119.951 134.81 119.722 135.085 119.56C135.398 119.38 135.664 119.36 135.831 119.56C136.003 119.181 136.28 118.86 136.63 118.634Z" fill="white"/>
<path d="M95.9638 164.502C98.3214 163.137 100.24 164.236 100.253 166.94C100.176 168.419 99.75 169.859 99.009 171.142C98.2681 172.425 97.2336 173.513 95.9905 174.319C93.6262 175.684 91.7081 174.592 91.7014 171.875C91.7796 170.397 92.2066 168.958 92.9474 167.677C93.6882 166.395 94.7219 165.307 95.9638 164.502V164.502Z" fill="white"/>
<path d="M147.412 138.761L147.419 140.606L104.888 165.161L104.882 163.323L147.412 138.761Z" fill="white"/>
<path d="M147.459 153.086V154.931L104.928 179.487L104.922 177.642L147.459 153.086Z" fill="white"/>
<path d="M127.739 167.925L127.745 169.763L104.935 182.93V181.092L127.739 167.925Z" fill="white"/>
<path d="M121.658 164.528V166.373L104.915 176.043V174.199L121.658 164.528Z" fill="white"/>
<path d="M142.784 144.888L142.79 146.726L104.895 168.604V166.766L142.784 144.888Z" fill="white"/>
<path d="M130.996 144.795L131.002 146.633L104.875 161.718V159.873L130.996 144.795Z" fill="white"/>
<path d="M96.0039 178.801C98.3615 177.435 100.286 178.528 100.293 181.238C100.215 182.717 99.7877 184.157 99.047 185.439C98.3062 186.722 97.2726 187.811 96.0305 188.617C93.6729 189.983 91.7481 188.884 91.7415 186.173C91.8196 184.695 92.2466 183.257 92.9875 181.975C93.7283 180.694 94.7619 179.606 96.0039 178.801V178.801Z" fill="white"/>
<path d="M202.424 198.208L195.145 193.979L98.1416 242.284L105.441 246.5L202.424 198.208Z" fill="#455A64"/>
<path d="M249.477 225.554L152.66 273.759L160.493 278.281L257.276 230.083L249.477 225.554Z" fill="#455A64"/>
<path opacity="0.3" d="M202.424 198.208L195.145 193.979L98.1416 242.284L105.441 246.5L202.424 198.208Z" fill="white"/>
<path d="M152.66 273.759L105.441 246.5L98.1417 242.284L84.5686 240.499L146.706 276.61L160.493 278.281L152.66 273.759Z" fill="#455A64"/>
<path opacity="0.5" d="M152.66 273.759L105.441 246.5L98.1417 242.284L84.5686 240.499L146.706 276.61L160.493 278.281L152.66 273.759Z" fill="white"/>
<path opacity="0.3" d="M249.477 225.554L152.66 273.759L160.493 278.281L257.276 230.083L249.477 225.554Z" fill="white"/>
<path d="M146.706 276.61L84.5686 240.499L84.5819 256.883L84.5952 264.102L146.726 300.213L146.706 276.61Z" fill="#455A64"/>
<path d="M90.5759 258.721V253.273C90.575 253.039 90.6359 252.808 90.7524 252.605C90.8689 252.402 91.037 252.233 91.2396 252.115C91.4423 251.998 91.6723 251.936 91.9066 251.936C92.1409 251.935 92.3711 251.997 92.5739 252.114L139.007 279.1C139.514 279.393 139.934 279.813 140.226 280.319C140.519 280.825 140.672 281.4 140.672 281.984V287.432C140.673 287.666 140.613 287.897 140.496 288.1C140.379 288.303 140.211 288.472 140.009 288.589C139.806 288.707 139.576 288.769 139.342 288.769C139.108 288.77 138.877 288.708 138.674 288.591L92.2609 261.604C91.751 261.315 91.3266 260.896 91.0307 260.389C90.7349 259.883 90.578 259.307 90.5759 258.721V258.721Z" fill="#37474F"/>
<path d="M146.706 276.61L146.726 300.213L257.302 236.37L257.276 230.083L160.492 278.281L146.706 276.61Z" fill="#455A64"/>
<path opacity="0.1" d="M146.706 276.61L146.726 300.213L257.302 236.37L257.276 230.083L160.492 278.281L146.706 276.61Z" fill="white"/>
<path d="M202.424 198.208L202.417 201.185H196.443L202.424 198.208Z" fill="#455A64"/>
<path d="M197.409 200.706L105.441 246.5L152.66 273.759L246.713 226.926L201.838 200.845C201.169 200.457 200.414 200.24 199.641 200.216C198.868 200.191 198.101 200.36 197.409 200.706V200.706Z" fill="#37474F"/>
<path d="M147.925 204.588C147.395 204.588 146.887 204.799 146.512 205.174C146.138 205.548 145.927 206.056 145.927 206.586V272.98C147.135 273.734 148.505 274.19 149.923 274.312V206.593C149.924 206.33 149.873 206.07 149.773 205.826C149.673 205.583 149.526 205.362 149.34 205.176C149.155 204.99 148.934 204.842 148.691 204.741C148.449 204.64 148.188 204.588 147.925 204.588V204.588Z" fill="#E0E0E0"/>
<path opacity="0.2" d="M147.925 204.588C147.395 204.588 146.887 204.799 146.512 205.174C146.138 205.548 145.927 206.056 145.927 206.586V272.98C147.135 273.734 148.505 274.19 149.923 274.312V206.593C149.924 206.33 149.873 206.07 149.773 205.826C149.673 205.583 149.526 205.362 149.34 205.176C149.155 204.99 148.934 204.842 148.691 204.741C148.449 204.64 148.188 204.588 147.925 204.588V204.588Z" fill="black"/>
<path opacity="0.3" d="M147.925 204.588C147.395 204.588 146.887 204.799 146.512 205.174C146.138 205.548 145.927 206.056 145.927 206.586V212.334C147.108 212.544 148.305 212.651 149.504 212.654H149.93V206.593C149.931 206.33 149.88 206.068 149.779 205.825C149.679 205.581 149.531 205.36 149.345 205.174C149.158 204.987 148.937 204.84 148.693 204.739C148.45 204.639 148.189 204.588 147.925 204.588V204.588Z" fill="black"/>
<path d="M95.3313 176.19C94.8013 176.19 94.2931 176.4 93.9185 176.775C93.5438 177.15 93.3333 177.658 93.3333 178.188V243.269C94.5569 243.963 95.9246 244.365 97.3293 244.442V178.195C97.3301 177.932 97.2791 177.671 97.1791 177.428C97.0791 177.185 96.932 176.964 96.7464 176.778C96.5608 176.591 96.3402 176.444 96.0974 176.343C95.8545 176.242 95.5942 176.19 95.3313 176.19V176.19Z" fill="#E0E0E0"/>
<path opacity="0.2" d="M95.3313 176.19C94.8013 176.19 94.2931 176.4 93.9185 176.775C93.5438 177.15 93.3333 177.658 93.3333 178.188V243.269C94.5569 243.963 95.9246 244.365 97.3293 244.442V178.195C97.3301 177.932 97.2791 177.671 97.1791 177.428C97.0791 177.185 96.932 176.964 96.7464 176.778C96.5608 176.591 96.3402 176.444 96.0974 176.343C95.8545 176.242 95.5942 176.19 95.3313 176.19V176.19Z" fill="black"/>
<path opacity="0.3" d="M95.3313 176.19C94.8013 176.19 94.2931 176.4 93.9185 176.775C93.5438 177.15 93.3333 177.658 93.3333 178.188V183.403L97.3293 185.72V178.195C97.3301 177.932 97.2791 177.671 97.1791 177.428C97.0791 177.185 96.932 176.964 96.7464 176.778C96.5608 176.591 96.3402 176.444 96.0974 176.343C95.8545 176.242 95.5942 176.19 95.3313 176.19V176.19Z" fill="black"/>
<path d="M110.516 162.664C110.382 162.477 110.203 162.327 109.996 162.227C109.789 162.127 109.56 162.08 109.331 162.091L96.4634 165.021C96.7012 164.997 96.9412 165.038 97.158 165.139C97.3747 165.24 97.5604 165.397 97.6955 165.594C98.0971 166.126 98.3669 166.746 98.4827 167.402C98.5984 168.059 98.5569 168.733 98.3615 169.37C98.3086 169.603 98.1942 169.817 98.0302 169.991C97.8662 170.164 97.6586 170.29 97.4291 170.356L110.236 167.426C110.468 167.362 110.679 167.237 110.845 167.063C111.012 166.89 111.128 166.674 111.182 166.44C111.374 165.802 111.413 165.128 111.298 164.473C111.182 163.817 110.914 163.197 110.516 162.664V162.664Z" fill="#455A64"/>
<path d="M96.3767 165.042L96.4576 165.008L96.3767 165.042Z" fill="#455A64"/>
<path d="M98.388 169.37C98.5834 168.733 98.625 168.059 98.5092 167.402C98.3934 166.746 98.1237 166.126 97.722 165.594C97.5869 165.397 97.4013 165.24 97.1845 165.139C96.9677 165.038 96.7278 164.997 96.4899 165.021L96.41 165.055C96.1997 165.132 96.0111 165.259 95.8604 165.425C95.7097 165.591 95.6012 165.79 95.5442 166.007C95.3499 166.644 95.3089 167.319 95.4246 167.975C95.5404 168.631 95.8095 169.251 96.2102 169.783C96.3433 169.98 96.5265 170.137 96.7408 170.239C96.9551 170.341 97.1926 170.383 97.429 170.363H97.4623C97.6914 170.295 97.8981 170.168 98.061 169.993C98.2239 169.819 98.3368 169.603 98.388 169.37Z" fill="#263238"/>
<path d="M173.007 199.433C172.875 199.245 172.698 199.094 172.491 198.993C172.285 198.891 172.057 198.844 171.828 198.854L158.961 201.798C159.199 201.774 159.44 201.816 159.656 201.918C159.873 202.02 160.059 202.179 160.193 202.377C160.593 202.909 160.862 203.527 160.978 204.182C161.093 204.837 161.053 205.51 160.859 206.147C160.802 206.378 160.685 206.591 160.52 206.764C160.355 206.937 160.148 207.064 159.92 207.132L172.727 204.209C172.957 204.141 173.165 204.014 173.33 203.841C173.496 203.668 173.614 203.455 173.673 203.223C173.869 202.584 173.911 201.907 173.796 201.248C173.68 200.589 173.409 199.967 173.007 199.433Z" fill="#455A64"/>
<path d="M158.867 201.798C158.894 201.795 158.921 201.795 158.948 201.798H158.867Z" fill="#455A64"/>
<path d="M160.886 206.134C161.079 205.497 161.12 204.824 161.004 204.169C160.889 203.514 160.62 202.895 160.22 202.364C160.085 202.166 159.9 202.007 159.683 201.905C159.466 201.803 159.226 201.761 158.988 201.785C158.961 201.782 158.934 201.782 158.908 201.785C158.697 201.863 158.51 201.991 158.36 202.158C158.21 202.325 158.103 202.526 158.048 202.744C157.853 203.38 157.812 204.053 157.927 204.709C158.043 205.364 158.313 205.982 158.714 206.513C158.848 206.71 159.031 206.867 159.245 206.969C159.459 207.07 159.697 207.113 159.933 207.093C160.161 207.029 160.369 206.907 160.536 206.738C160.703 206.57 160.823 206.362 160.886 206.134V206.134Z" fill="#263238"/>
<g opacity="0.4">
<path opacity="0.4" d="M110.516 162.664C110.382 162.477 110.203 162.327 109.996 162.227C109.789 162.127 109.56 162.08 109.331 162.091L96.4634 165.021C96.7012 164.997 96.9412 165.038 97.158 165.139C97.3747 165.24 97.5604 165.397 97.6955 165.594C98.0971 166.126 98.3669 166.746 98.4827 167.402C98.5984 168.059 98.5569 168.733 98.3615 169.37C98.3086 169.603 98.1942 169.817 98.0302 169.991C97.8662 170.164 97.6586 170.29 97.4291 170.356L110.236 167.426C110.468 167.362 110.679 167.237 110.845 167.063C111.012 166.89 111.128 166.674 111.182 166.44C111.374 165.802 111.413 165.128 111.298 164.473C111.182 163.817 110.914 163.197 110.516 162.664V162.664Z" fill="white"/>
<path opacity="0.4" d="M96.3767 165.042L96.4576 165.008L96.3767 165.042Z" fill="white"/>
</g>
<g opacity="0.4">
<path opacity="0.4" d="M173.007 199.433C172.875 199.245 172.698 199.094 172.491 198.993C172.285 198.891 172.057 198.844 171.828 198.854L158.961 201.798C159.199 201.774 159.44 201.816 159.656 201.918C159.873 202.02 160.059 202.179 160.193 202.377C160.593 202.909 160.862 203.527 160.978 204.182C161.093 204.837 161.053 205.51 160.859 206.147C160.802 206.378 160.685 206.591 160.52 206.764C160.355 206.937 160.148 207.064 159.92 207.132L172.727 204.209C172.957 204.141 173.165 204.014 173.33 203.841C173.496 203.668 173.614 203.455 173.673 203.223C173.869 202.584 173.911 201.907 173.796 201.248C173.68 200.589 173.409 199.967 173.007 199.433Z" fill="white"/>
<path opacity="0.4" d="M158.867 201.798C158.894 201.795 158.921 201.795 158.948 201.798H158.867Z" fill="white"/>
</g>
<path d="M158.694 202.81L153.579 204.089C149.382 205.147 144.936 204.523 141.192 202.351L94.3321 175.298C93.8689 175.035 93.495 174.64 93.2586 174.163C93.0222 173.686 92.9342 173.149 93.0058 172.621C93.0775 172.094 93.3056 171.6 93.6607 171.203C94.0158 170.807 94.4816 170.525 94.9981 170.396L97.0493 169.89C97.7553 169.317 97.6754 166.207 96.1769 165.98L94.0257 166.507C92.7293 166.822 91.5574 167.519 90.662 168.508C89.7666 169.497 89.1888 170.732 89.0037 172.054C88.8185 173.375 89.0344 174.721 89.6235 175.919C90.2126 177.116 91.1476 178.108 92.3074 178.768L139.194 205.794C142.33 207.614 145.891 208.575 149.517 208.578C151.225 208.564 152.925 208.34 154.578 207.912L159.587 206.666C160.273 206.154 160.193 203.043 158.694 202.81Z" fill="#E0E0E0"/>
<path d="M99.8401 183.403V169.517L129.89 186.873V200.752L99.8401 183.403Z" fill="#455A64"/>
<path d="M129.89 186.873L147.925 195.67V200.752H129.89V186.873Z" fill="#455A64"/>
<path d="M99.8401 169.517L129.89 186.873L147.925 195.67L117.869 178.321L99.8401 169.517Z" fill="#455A64"/>
<path opacity="0.1" d="M129.89 186.873L147.925 195.67V200.752H129.89V186.873Z" fill="white"/>
<path opacity="0.3" d="M99.8401 169.517L129.89 186.873L147.925 195.67L117.869 178.321L99.8401 169.517Z" fill="white"/>
<path opacity="0.2" d="M200.166 224.575C211.668 231.235 211.728 241.978 200.306 248.618C188.884 255.258 170.296 255.278 158.794 248.618C147.293 241.958 147.239 231.215 158.661 224.575C170.083 217.935 188.671 217.935 200.166 224.575Z" fill="black"/>
<path d="M178.401 149.537L180.926 138.528C177.484 139.01 174.229 140.388 171.488 142.524L158.275 152.914L167.366 155.718L178.401 149.537Z" fill="#FFA8A7"/>
<path d="M184.575 199.041L186.42 203.203C186.937 204.376 187.816 205.352 188.928 205.989C190.041 206.625 191.328 206.888 192.601 206.74L208.185 204.961C209.495 204.813 210.82 204.91 212.095 205.248L215.504 206.154V198.162L214.572 198.435C212.778 198.968 210.875 199.014 209.058 198.568L203.377 197.169C200.688 196.509 197.871 196.578 195.218 197.369V197.369L194.639 192.654L184.575 199.041Z" fill="#F28F8F"/>
<path d="M226.926 209.564C226.867 207.634 226.057 205.803 224.668 204.462C223.643 203.49 222.351 202.837 221.378 201.798C220.253 200.593 219.787 199.267 218.828 197.902C218.659 197.672 218.428 197.494 218.162 197.389C218.064 197.379 217.966 197.379 217.869 197.389C217.529 197.416 217.198 197.511 216.896 197.669V197.669C217.284 197.736 217.63 197.951 217.862 198.268C218.828 199.6 219.507 201.199 220.639 202.378C221.605 203.383 222.897 204.023 223.923 204.975C225.305 206.271 226.117 208.063 226.18 209.957C226.234 211.828 225.548 215.058 224.182 215.058C224.613 215.163 225.068 215.093 225.448 214.865C226.633 213.686 226.96 210.956 226.926 209.564Z" fill="#EBEBEB"/>
<path d="M218.828 197.902C219.787 199.267 220.253 200.566 221.378 201.798C222.351 202.837 223.643 203.49 224.668 204.462C226.057 205.803 226.867 207.634 226.926 209.564C226.926 210.956 226.633 213.686 225.494 214.845C226.946 213.973 227.346 210.889 227.299 209.384C227.235 207.491 226.426 205.701 225.048 204.402C224.022 203.45 222.724 202.81 221.758 201.798C220.626 200.619 220.166 199.321 219.201 197.995C219.08 197.831 218.928 197.692 218.753 197.588C218.578 197.484 218.384 197.416 218.182 197.389C218.44 197.497 218.664 197.674 218.828 197.902V197.902Z" fill="#455A64"/>
<path d="M214.226 198.228C213.895 198.373 213.532 198.426 213.173 198.381C213.173 198.381 212.121 198.275 211.775 198.208C211.109 198.082 211.042 198.834 211.042 198.834C211.439 198.876 211.838 198.876 212.234 198.834C212.325 198.973 212.443 199.091 212.582 199.18C212.721 199.27 212.877 199.329 213.04 199.354C213.374 199.419 213.7 199.52 214.013 199.653C214.168 199.724 214.298 199.839 214.388 199.983C214.478 200.128 214.524 200.296 214.519 200.466C214.459 200.839 214.093 201.059 213.853 201.372C213.741 201.554 213.678 201.761 213.669 201.974C213.659 202.187 213.704 202.4 213.799 202.591C213.586 202.499 213.347 202.484 213.124 202.548C212.9 202.612 212.706 202.752 212.574 202.944C212.324 203.346 212.173 203.803 212.134 204.276C212.066 204.59 212.044 204.913 212.068 205.235C212.079 205.397 212.123 205.555 212.198 205.699C212.272 205.843 212.375 205.971 212.501 206.074C212.628 206.173 212.785 206.227 212.947 206.227C213.109 206.227 213.266 206.173 213.393 206.074C214.246 207.459 218.142 207.985 220.093 210.603C222.045 213.22 222.471 215.078 224.202 215.078C225.534 215.078 226.2 211.848 226.2 209.976C226.137 208.082 225.325 206.291 223.943 204.995C222.917 204.042 221.625 203.403 220.659 202.397C219.527 201.219 218.848 199.62 217.882 198.288C217.65 197.97 217.304 197.755 216.916 197.689C216.799 197.675 216.681 197.675 216.563 197.689C215.757 197.721 214.964 197.904 214.226 198.228V198.228Z" fill="#F88486"/>
<path d="M223.696 214.592L224.136 213.386C224.165 213.308 224.216 213.24 224.281 213.188C224.347 213.137 224.426 213.104 224.509 213.093C225.841 212.934 226.26 212.734 226.84 212.121C226.757 212.869 226.516 213.591 226.134 214.239C225.91 214.628 225.544 214.914 225.113 215.039C224.682 215.163 224.219 215.115 223.823 214.905C223.766 214.879 223.721 214.832 223.697 214.774C223.674 214.715 223.673 214.65 223.696 214.592V214.592Z" fill="#455A64"/>
<path d="M215.265 203.376C215.264 203.424 215.254 203.471 215.234 203.515C215.215 203.558 215.187 203.597 215.151 203.629C214.709 204.01 214.407 204.527 214.292 205.099C214.178 205.671 214.257 206.265 214.519 206.786C214.551 206.864 214.553 206.951 214.524 207.03C214.494 207.109 214.437 207.174 214.361 207.211C214.286 207.249 214.2 207.258 214.119 207.234C214.038 207.211 213.969 207.158 213.926 207.086C213.6 206.431 213.5 205.686 213.639 204.968C213.781 204.251 214.158 203.601 214.712 203.123C214.779 203.066 214.867 203.038 214.955 203.044C215.043 203.05 215.126 203.091 215.185 203.157C215.237 203.218 215.265 203.296 215.265 203.376Z" fill="#37474F"/>
<path d="M217.309 204.316C217.309 204.406 217.273 204.492 217.209 204.556C216.788 204.973 216.482 205.492 216.319 206.063C216.157 206.633 216.145 207.236 216.284 207.812C216.294 207.856 216.296 207.901 216.289 207.946C216.282 207.99 216.266 208.033 216.243 208.071C216.219 208.11 216.188 208.143 216.152 208.169C216.115 208.196 216.074 208.215 216.03 208.225C215.987 208.236 215.941 208.237 215.897 208.23C215.853 208.223 215.81 208.208 215.772 208.184C215.733 208.161 215.7 208.13 215.674 208.093C215.647 208.057 215.628 208.016 215.618 207.972C215.454 207.282 215.469 206.562 215.663 205.88C215.856 205.198 216.221 204.577 216.723 204.076C216.754 204.045 216.791 204.02 216.832 204.003C216.872 203.986 216.916 203.978 216.96 203.978C217.004 203.978 217.047 203.986 217.088 204.003C217.128 204.02 217.165 204.045 217.196 204.076C217.231 204.106 217.259 204.143 217.278 204.184C217.298 204.225 217.308 204.27 217.309 204.316V204.316Z" fill="#37474F"/>
<path d="M219.114 205.794C219.114 205.844 219.103 205.894 219.081 205.939C219.059 205.984 219.027 206.023 218.988 206.054C218.612 206.362 218.323 206.764 218.149 207.218C217.975 207.672 217.922 208.164 217.995 208.645C218.009 208.732 217.988 208.821 217.937 208.893C217.886 208.965 217.809 209.015 217.722 209.031C217.635 209.044 217.546 209.024 217.474 208.973C217.402 208.922 217.352 208.845 217.336 208.758C217.241 208.158 217.306 207.544 217.523 206.977C217.741 206.41 218.103 205.91 218.575 205.528C218.644 205.473 218.731 205.448 218.819 205.458C218.906 205.468 218.986 205.512 219.041 205.581C219.089 205.641 219.115 205.717 219.114 205.794Z" fill="#37474F"/>
<path d="M220.599 207.226C220.598 207.273 220.588 207.319 220.568 207.361C220.549 207.404 220.521 207.442 220.486 207.473C220.166 207.768 219.919 208.135 219.768 208.544C219.616 208.952 219.563 209.391 219.614 209.824C219.625 209.911 219.601 209.999 219.547 210.069C219.494 210.139 219.415 210.185 219.327 210.197C219.284 210.203 219.239 210.201 219.197 210.19C219.154 210.179 219.115 210.16 219.08 210.133C219.045 210.106 219.016 210.073 218.994 210.034C218.973 209.996 218.959 209.954 218.954 209.91C218.89 209.371 218.954 208.823 219.143 208.314C219.332 207.804 219.639 207.347 220.04 206.98C220.071 206.949 220.108 206.924 220.148 206.907C220.189 206.89 220.232 206.881 220.276 206.881C220.32 206.881 220.364 206.89 220.404 206.907C220.445 206.924 220.482 206.949 220.513 206.98C220.571 207.049 220.602 207.136 220.599 207.226V207.226Z" fill="#37474F"/>
<path d="M177.822 170.536C177.323 177.609 179.214 185.854 179.82 188.292L178.774 190.796C178.515 197.223 187.985 200.733 192.328 198.228C199.134 187.346 202.584 181.445 201.245 174.599L177.822 170.536Z" fill="#263238"/>
<path opacity="0.3" d="M180.386 187.199L184.575 178.861C181.072 177.815 178.402 173.64 178.402 173.64C178.941 177.189 182.324 179.44 182.324 179.44C180.837 181.741 180.156 184.47 180.386 187.199V187.199Z" fill="black"/>
<path d="M192.474 195.857C191.582 191.861 185.514 187.512 180.34 188.904L175.504 199.594C174.691 201.394 174.199 203.324 174.053 205.295L172.128 231.102C171.996 232.908 171.67 234.694 171.155 236.43L171.095 236.63L177.822 238.428C177.848 235.447 178.408 232.494 179.474 229.71L184.615 216.297C185.611 213.685 186.064 210.898 185.947 208.105L185.867 205.994L192.474 195.857Z" fill="#FFA8A7"/>
<path d="M167.313 249.75C169.24 249.69 171.068 248.88 172.407 247.492C173.386 246.467 174.039 245.175 175.071 244.209C176.277 243.077 177.609 242.611 178.968 241.652C179.198 241.483 179.376 241.252 179.48 240.986C179.491 240.888 179.491 240.79 179.48 240.693C179.455 240.354 179.362 240.023 179.207 239.72V239.72C179.143 240.109 178.928 240.456 178.608 240.686C177.276 241.652 175.684 242.331 174.505 243.463C173.493 244.429 172.854 245.728 171.901 246.747C170.605 248.129 168.814 248.941 166.92 249.004C165.055 249.058 161.818 248.378 161.818 247.006C161.713 247.437 161.783 247.892 162.011 248.272C163.17 249.431 165.914 249.75 167.313 249.75Z" fill="#EBEBEB"/>
<path d="M178.968 241.625C177.636 242.584 176.304 243.05 175.072 244.182C174.039 245.148 173.387 246.44 172.408 247.466C171.068 248.853 169.24 249.663 167.313 249.724C165.914 249.764 163.19 249.431 162.025 248.292C162.897 249.744 165.987 250.143 167.486 250.097C169.379 250.036 171.171 249.226 172.468 247.845C173.42 246.82 174.059 245.528 175.072 244.555C176.25 243.43 177.549 242.964 178.881 241.998C179.046 241.879 179.185 241.727 179.288 241.552C179.391 241.376 179.457 241.181 179.481 240.979C179.373 241.238 179.195 241.461 178.968 241.625Z" fill="#455A64"/>
<path d="M178.648 237.023C178.501 236.695 178.448 236.333 178.495 235.977C178.495 235.977 178.595 234.918 178.661 234.579C178.788 233.913 178.275 233.879 178.275 233.879C178.275 233.879 178.175 234.406 178.089 235.025C177.945 235.116 177.822 235.235 177.725 235.375C177.627 235.514 177.559 235.671 177.522 235.837C177.457 236.171 177.357 236.497 177.223 236.81C177.153 236.965 177.038 237.096 176.893 237.187C176.749 237.277 176.581 237.322 176.41 237.316C176.044 237.263 175.817 236.89 175.511 236.65C175.328 236.538 175.119 236.475 174.905 236.466C174.691 236.457 174.478 236.502 174.286 236.597C174.38 236.384 174.396 236.146 174.331 235.923C174.267 235.7 174.126 235.507 173.933 235.378C173.531 235.125 173.074 234.972 172.601 234.932C172.283 234.866 171.958 234.844 171.635 234.865C171.474 234.876 171.317 234.92 171.173 234.994C171.03 235.069 170.904 235.172 170.802 235.298C170.702 235.425 170.647 235.582 170.647 235.744C170.647 235.906 170.702 236.063 170.802 236.19C169.411 237.043 168.884 240.939 166.267 242.89C163.65 244.842 161.792 245.275 161.792 247C161.792 248.332 165.028 248.998 166.893 248.998C168.787 248.935 170.579 248.123 171.875 246.74C172.827 245.721 173.466 244.422 174.479 243.456C175.658 242.324 177.249 241.645 178.581 240.679C178.786 240.525 178.95 240.323 179.059 240.091C179.168 239.859 179.219 239.603 179.207 239.347C179.161 238.545 178.972 237.758 178.648 237.023V237.023Z" fill="#F88486"/>
<path d="M162.278 246.493L163.483 246.933C163.564 246.962 163.635 247.012 163.688 247.08C163.741 247.147 163.774 247.228 163.783 247.313C163.936 248.645 164.136 249.064 164.749 249.637C164.003 249.557 163.283 249.319 162.637 248.938C162.248 248.713 161.961 248.345 161.837 247.913C161.713 247.481 161.761 247.017 161.971 246.62C161.999 246.566 162.045 246.523 162.101 246.5C162.157 246.476 162.22 246.474 162.278 246.493V246.493Z" fill="#455A64"/>
<path d="M173.5 238.069C173.451 238.069 173.403 238.058 173.36 238.037C173.316 238.016 173.277 237.986 173.247 237.949C172.863 237.509 172.346 237.207 171.775 237.09C171.201 236.975 170.605 237.058 170.083 237.323C170.004 237.362 169.912 237.369 169.827 237.341C169.743 237.313 169.673 237.252 169.634 237.173C169.594 237.093 169.587 237.001 169.615 236.917C169.643 236.833 169.704 236.763 169.783 236.723C170.442 236.387 171.194 236.283 171.919 236.427C172.644 236.57 173.299 236.954 173.779 237.516C173.836 237.582 173.864 237.668 173.858 237.756C173.852 237.843 173.812 237.924 173.746 237.982C173.713 238.012 173.674 238.036 173.632 238.05C173.589 238.065 173.544 238.071 173.5 238.069V238.069Z" fill="#37474F"/>
<path d="M172.554 240.106C172.464 240.106 172.378 240.07 172.314 240.006C171.898 239.586 171.38 239.28 170.811 239.117C170.241 238.955 169.64 238.943 169.064 239.081C169.021 239.092 168.977 239.094 168.933 239.087C168.889 239.081 168.847 239.066 168.809 239.043C168.772 239.02 168.739 238.989 168.713 238.954C168.687 238.918 168.668 238.877 168.658 238.834C168.647 238.792 168.645 238.748 168.651 238.706C168.657 238.663 168.672 238.621 168.694 238.584C168.716 238.547 168.746 238.514 168.781 238.489C168.816 238.463 168.856 238.445 168.898 238.435C169.587 238.269 170.308 238.284 170.99 238.478C171.673 238.671 172.294 239.037 172.794 239.54C172.84 239.587 172.871 239.647 172.883 239.711C172.895 239.776 172.888 239.843 172.863 239.903C172.837 239.964 172.794 240.015 172.739 240.051C172.684 240.088 172.62 240.107 172.554 240.106V240.106Z" fill="#37474F"/>
<path d="M171.102 241.885C171.051 241.884 171.001 241.873 170.955 241.851C170.909 241.829 170.868 241.797 170.836 241.758C170.528 241.381 170.127 241.09 169.673 240.915C169.219 240.739 168.726 240.686 168.245 240.759C168.157 240.773 168.066 240.752 167.994 240.699C167.921 240.647 167.873 240.568 167.859 240.48C167.845 240.391 167.866 240.301 167.919 240.229C167.971 240.156 168.05 240.107 168.138 240.093C168.737 239.999 169.35 240.064 169.916 240.281C170.482 240.499 170.98 240.861 171.362 241.332C171.403 241.381 171.428 241.44 171.436 241.504C171.444 241.567 171.434 241.631 171.407 241.688C171.379 241.746 171.336 241.794 171.282 241.828C171.228 241.861 171.166 241.879 171.102 241.878V241.885Z" fill="#37474F"/>
<path d="M169.65 243.396C169.603 243.397 169.557 243.387 169.515 243.367C169.472 243.348 169.434 243.319 169.404 243.283C169.107 242.964 168.738 242.719 168.329 242.569C167.919 242.418 167.48 242.366 167.046 242.417C166.959 242.425 166.871 242.399 166.802 242.345C166.732 242.29 166.687 242.212 166.673 242.124C166.668 242.081 166.671 242.036 166.683 241.994C166.694 241.951 166.715 241.911 166.742 241.877C166.769 241.842 166.803 241.813 166.842 241.792C166.88 241.77 166.923 241.756 166.966 241.751C167.506 241.687 168.053 241.752 168.562 241.941C169.072 242.13 169.529 242.437 169.897 242.837C169.938 242.886 169.965 242.945 169.974 243.008C169.983 243.071 169.975 243.136 169.949 243.194C169.923 243.252 169.881 243.302 169.829 243.338C169.776 243.374 169.714 243.394 169.65 243.396V243.396Z" fill="#37474F"/>
<path d="M195.471 137.949C191.826 137.662 188.165 137.636 184.515 137.869C182.877 137.893 181.265 138.28 179.793 139.001C178.856 139.599 178.048 140.378 177.417 141.293C176.785 142.208 176.343 143.241 176.117 144.329C175.683 146.505 175.544 148.729 175.704 150.942C175.897 158.175 176.437 164.349 177.216 171.542C184.402 175.691 193.866 177.656 201.858 175.378C201.971 166.054 201.512 156.19 199.634 147.053C198.968 143.75 198.002 140.18 195.471 137.949Z" fill="#455A64"/>
<path opacity="0.3" d="M195.471 137.949C191.826 137.662 188.165 137.636 184.515 137.869C182.877 137.893 181.265 138.28 179.793 139.001C178.856 139.599 178.048 140.378 177.417 141.293C176.785 142.208 176.343 143.241 176.117 144.329C175.683 146.505 175.544 148.729 175.704 150.942C175.897 158.175 176.437 164.349 177.216 171.542C184.402 175.691 193.866 177.656 201.858 175.378C201.971 166.054 201.512 156.19 199.634 147.053C198.968 143.75 198.002 140.18 195.471 137.949Z" fill="white"/>
<path d="M217.189 156.51C217.28 155.525 217.126 154.533 216.74 153.622C216.354 152.71 215.749 151.909 214.978 151.289L201.725 140.586C199.93 139.132 197.763 138.209 195.471 137.922L194.172 137.822C192.987 138.921 192.467 146.747 197.809 149.923L209.331 156.65L209.217 171.455L205.275 175.957C205.203 176.036 205.152 176.13 205.124 176.232C205.097 176.334 205.094 176.442 205.116 176.545C205.138 176.649 205.184 176.745 205.251 176.827C205.318 176.909 205.404 176.974 205.501 177.016C205.728 177.123 205.98 177.163 206.229 177.132C206.477 177.101 206.712 177.001 206.906 176.843L208.185 175.798C207.392 177.289 206.7 178.988 205.907 180.46C205.71 180.749 205.612 181.095 205.628 181.445C205.654 181.593 205.714 181.733 205.801 181.855C205.889 181.977 206.002 182.078 206.134 182.151C206.394 182.299 206.682 182.39 206.98 182.418C208.021 182.54 209.075 182.352 210.01 181.878C210.942 181.405 211.766 180.743 212.427 179.933C213.693 178.409 214.452 176.528 214.599 174.552C215.789 168.59 216.654 162.567 217.189 156.51V156.51Z" fill="#FFA8A7"/>
<path d="M182.131 135.118V136.317C182.101 137.195 181.939 138.064 181.652 138.895C181.531 139.244 181.531 139.624 181.652 139.973C181.775 140.267 181.963 140.529 182.202 140.74C182.44 140.951 182.724 141.106 183.03 141.192C183.639 141.355 184.277 141.376 184.895 141.252C186.743 140.937 188.422 139.982 189.637 138.555L189.364 130.356L182.131 135.118Z" fill="#FFA8A7"/>
<path opacity="0.2" d="M187.912 133.919C188.499 132.894 188.874 131.762 189.018 130.589L182.131 135.111V136.31C182.125 136.661 182.091 137.01 182.031 137.356C183.002 137.187 183.949 136.899 184.848 136.497C186.099 135.955 187.164 135.059 187.912 133.919Z" fill="black"/>
<path d="M174.492 121.818C173.705 121.844 172.927 121.653 172.241 121.267C171.555 120.88 170.989 120.313 170.603 119.627C170.548 119.526 170.524 119.412 170.534 119.298C170.544 119.184 170.586 119.075 170.657 118.985C170.728 118.895 170.824 118.828 170.933 118.792C171.041 118.755 171.158 118.752 171.269 118.781C171.813 118.878 172.37 118.878 172.914 118.781C172.286 117.964 171.827 117.031 171.564 116.035C171.301 115.039 171.239 114.001 171.382 112.98C171.399 112.867 171.443 112.759 171.51 112.666C171.577 112.573 171.665 112.496 171.767 112.443C171.868 112.39 171.981 112.361 172.096 112.36C172.211 112.358 172.324 112.384 172.428 112.434C174.686 113.554 177.198 114.062 179.714 113.906C181.046 113.813 182.378 113.526 183.71 113.427C185.05 113.26 186.409 113.468 187.639 114.026C188.257 114.31 188.786 114.757 189.168 115.319C189.551 115.881 189.773 116.537 189.81 117.216C189.963 116.999 190.161 116.817 190.391 116.684C190.621 116.55 190.877 116.468 191.142 116.444C191.418 116.41 191.699 116.434 191.966 116.513C192.232 116.592 192.48 116.725 192.694 116.903L190.39 118.182C190.822 118.096 191.27 118.155 191.665 118.35C192.06 118.545 192.38 118.865 192.574 119.261C192.913 120.036 193.059 120.881 193 121.725C193.044 122.837 192.995 123.951 192.854 125.055C192.703 126.171 192.264 127.229 191.582 128.125C190.981 128.858 190.181 129.399 189.277 129.684C188.047 130.027 186.74 129.986 185.534 129.564C184.337 129.146 183.198 128.578 182.144 127.872C179.414 126.093 176.852 124.066 174.492 121.818V121.818Z" fill="#263238"/>
<path d="M174.346 119.587C173.574 124.222 174.085 128.981 175.824 133.347C176.141 134.393 176.8 135.303 177.695 135.931C178.681 136.497 179.907 136.377 181.025 136.21C182.85 136.004 184.63 135.503 186.294 134.725C187.971 133.935 189.279 132.527 189.943 130.796C190.539 130.917 191.157 130.864 191.723 130.641C192.29 130.419 192.779 130.038 193.133 129.544C193.836 128.518 194.199 127.297 194.172 126.054C194.172 125.268 194.026 124.336 193.32 123.989C192.973 123.883 192.604 123.874 192.252 123.962C191.9 124.05 191.578 124.232 191.322 124.489C190.374 125.251 189.678 126.282 189.324 127.446C188.804 125.521 187.992 123.663 187.472 121.745C187.355 120.965 186.957 120.254 186.353 119.747C185.548 119.227 184.495 119.527 183.563 119.747C180.527 120.48 177.354 120.425 174.346 119.587Z" fill="#FFA8A7"/>
<path d="M179.947 125.421L177.702 129.211L180.379 129.71L179.947 125.421Z" fill="#F28F8F"/>
<path d="M182.964 131.016L180.926 132.008C181.1 132.239 181.346 132.408 181.625 132.487C181.903 132.566 182.201 132.552 182.471 132.448C182.706 132.303 182.884 132.081 182.974 131.82C183.064 131.559 183.06 131.274 182.964 131.016Z" fill="#F28F8F"/>
<path opacity="0.3" d="M182.964 131.016L180.926 132.008C181.1 132.239 181.346 132.408 181.625 132.487C181.903 132.566 182.201 132.552 182.471 132.448C182.706 132.303 182.884 132.081 182.974 131.82C183.064 131.559 183.06 131.274 182.964 131.016Z" fill="black"/>
<path d="M181.765 132.534C182.002 132.58 182.247 132.557 182.471 132.467C182.657 132.362 182.809 132.205 182.906 132.014C183.003 131.823 183.042 131.608 183.017 131.395C182.726 131.392 182.443 131.491 182.218 131.675C182.089 131.781 181.983 131.911 181.905 132.059C181.827 132.206 181.78 132.368 181.765 132.534V132.534Z" fill="#F28F8F"/>
<path d="M183.816 125.575C183.837 125.727 183.811 125.883 183.743 126.021C183.674 126.159 183.566 126.273 183.432 126.349C183.298 126.425 183.145 126.46 182.991 126.448C182.837 126.436 182.691 126.379 182.57 126.283C182.449 126.187 182.36 126.057 182.314 125.91C182.267 125.764 182.266 125.606 182.31 125.458C182.353 125.311 182.44 125.179 182.559 125.081C182.678 124.983 182.824 124.923 182.977 124.909C183.176 124.886 183.377 124.944 183.534 125.068C183.691 125.193 183.793 125.375 183.816 125.575Z" fill="#263238"/>
<path d="M177.376 125.974C177.396 126.079 177.393 126.187 177.369 126.291C177.345 126.396 177.299 126.494 177.235 126.579C177.171 126.665 177.089 126.737 176.996 126.789C176.903 126.842 176.8 126.874 176.693 126.885C176.587 126.896 176.479 126.884 176.378 126.851C176.276 126.818 176.182 126.764 176.102 126.693C176.022 126.621 175.958 126.534 175.914 126.437C175.869 126.34 175.846 126.234 175.844 126.127C175.841 125.934 175.911 125.746 176.04 125.602C176.169 125.458 176.347 125.367 176.54 125.348C176.732 125.328 176.925 125.382 177.08 125.498C177.235 125.614 177.34 125.784 177.376 125.974Z" fill="#263238"/>
<path d="M176.324 123.004L174.739 124.336C174.644 124.132 174.614 123.904 174.652 123.683C174.69 123.462 174.795 123.257 174.952 123.097C175.148 122.954 175.382 122.869 175.624 122.853C175.867 122.836 176.109 122.888 176.324 123.004Z" fill="#263238"/>
<path d="M182.87 122.245L184.689 123.25C184.741 123.033 184.726 122.805 184.645 122.596C184.564 122.388 184.421 122.209 184.236 122.085C184.015 121.985 183.771 121.947 183.531 121.975C183.29 122.003 183.062 122.096 182.87 122.245V122.245Z" fill="#263238"/>
<path d="M183.377 167.22C183.377 167.033 183.377 166.853 183.33 166.673C183.106 165.137 182.443 163.699 181.421 162.53C180.399 161.362 179.062 160.513 177.569 160.087L167.659 154.093L160.999 150.763L158.255 152.927C157.637 153.407 157.174 154.058 156.923 154.799V154.799C156.6 155.787 156.676 156.863 157.133 157.797C157.591 158.731 158.395 159.45 159.374 159.8L175.358 165.435C176.403 166.528 177.067 167.929 177.249 169.431C177.292 169.871 177.379 170.306 177.509 170.729C177.733 171.232 178.114 171.648 178.594 171.915C179.074 172.183 179.628 172.288 180.173 172.215C180.713 172.132 181.225 171.925 181.671 171.609C182.116 171.294 182.481 170.878 182.737 170.396C183.251 169.421 183.473 168.318 183.377 167.22V167.22Z" fill="#FFA8A7"/>
<path d="M178.035 160.087V159.121H177.329V159.474L175.824 158.595C175.667 158.504 175.489 158.456 175.308 158.456C175.127 158.456 174.949 158.504 174.792 158.595L172.281 160.047V159.627L171.615 159.687V160.64C171.616 160.699 171.632 160.758 171.662 160.809C171.693 160.861 171.736 160.903 171.788 160.933L173.853 162.131C174.01 162.22 174.188 162.267 174.369 162.267C174.55 162.267 174.727 162.22 174.885 162.131L177.915 160.38C177.965 160.352 178.007 160.311 178.036 160.262C178.065 160.213 178.081 160.157 178.082 160.1V160.1L178.035 160.087Z" fill="#F88486"/>
<path d="M174.765 157.802L172.201 159.287C172.155 159.312 172.117 159.348 172.09 159.393C172.063 159.437 172.049 159.488 172.049 159.54C172.049 159.592 172.063 159.643 172.09 159.688C172.117 159.733 172.155 159.769 172.201 159.793L173.959 160.806C174.093 160.884 174.244 160.926 174.399 160.926C174.554 160.926 174.705 160.884 174.839 160.806L177.409 159.32C177.454 159.295 177.49 159.258 177.516 159.213C177.541 159.169 177.555 159.119 177.555 159.067C177.555 159.016 177.541 158.966 177.516 158.921C177.49 158.877 177.454 158.84 177.409 158.814L175.644 157.802C175.511 157.724 175.359 157.682 175.205 157.682C175.05 157.682 174.898 157.724 174.765 157.802V157.802Z" fill="#F88486"/>
<path opacity="0.3" d="M178.035 160.087V159.121H177.329V159.474L175.824 158.595C175.667 158.504 175.489 158.456 175.308 158.456C175.127 158.456 174.949 158.504 174.792 158.595L172.281 160.047V159.627L171.615 159.687V160.64C171.616 160.699 171.632 160.758 171.662 160.809C171.693 160.861 171.736 160.903 171.788 160.933L173.853 162.131C174.01 162.22 174.188 162.267 174.369 162.267C174.55 162.267 174.727 162.22 174.885 162.131L177.915 160.38C177.965 160.352 178.007 160.311 178.036 160.262C178.065 160.213 178.081 160.157 178.082 160.1V160.1L178.035 160.087Z" fill="black"/>
<path d="M174.759 157.642L171.742 159.387C171.689 159.417 171.645 159.46 171.614 159.512C171.584 159.564 171.568 159.623 171.568 159.684C171.568 159.744 171.584 159.803 171.614 159.855C171.645 159.908 171.689 159.951 171.742 159.98L173.826 161.172C173.984 161.261 174.161 161.307 174.342 161.307C174.523 161.307 174.701 161.261 174.858 161.172L177.889 159.421C177.94 159.39 177.982 159.346 178.011 159.294C178.041 159.242 178.056 159.184 178.056 159.124C178.056 159.065 178.041 159.006 178.011 158.954C177.982 158.902 177.94 158.859 177.889 158.828L175.824 157.642C175.664 157.545 175.479 157.493 175.291 157.493C175.103 157.493 174.919 157.545 174.759 157.642V157.642Z" fill="#F88486"/>
<path opacity="0.5" d="M174.765 157.802L172.201 159.287C172.155 159.312 172.117 159.348 172.09 159.393C172.063 159.437 172.049 159.488 172.049 159.54C172.049 159.592 172.063 159.643 172.09 159.688C172.117 159.733 172.155 159.769 172.201 159.793L173.959 160.806C174.093 160.884 174.244 160.926 174.399 160.926C174.554 160.926 174.705 160.884 174.839 160.806L177.409 159.32C177.454 159.295 177.49 159.258 177.516 159.213C177.541 159.169 177.555 159.119 177.555 159.067C177.555 159.016 177.541 158.966 177.516 158.921C177.49 158.877 177.454 158.84 177.409 158.814L175.644 157.802C175.511 157.724 175.359 157.682 175.205 157.682C175.05 157.682 174.898 157.724 174.765 157.802V157.802Z" fill="white"/>
<path d="M173.626 164.808C173.22 164.429 173 162.357 173.806 161.685L171.742 160.493C171.076 161.338 171.242 163.157 171.615 164.076C171.659 164.181 171.725 164.275 171.809 164.352C171.893 164.429 171.993 164.487 172.101 164.522C172.501 164.655 173.174 164.888 173.433 164.975C173.513 165.003 173.598 165.014 173.682 165.006C173.766 164.998 173.847 164.971 173.919 164.928L173.626 164.808Z" fill="#455A64"/>
</svg>
