<svg xmlns="http://www.w3.org/2000/svg" width="411" height="318" fill="none" viewBox="0 0 411 318"><path fill="url(#paint0_radial_203_51)" d="M0 -3H411V220C250.495 220 306 439 0 220V-3Z"/><path fill="#F88386" fill-opacity=".4" d="M-25.5138 -3H385.63C385.63 -3 618.212 123.227 385.63 235.547C153.049 347.868 -24.42 337.401 -25.5138 244.64C-26.6077 151.878 -25.5138 -3 -25.5138 -3Z"/><path fill="#F88386" fill-opacity=".4" d="M44.3333 -10H455.333C455.333 -10 567.333 161.5 455.333 213C343.333 264.5 474.833 419 44.3333 213C-386.167 7 44.3333 -10 44.3333 -10Z"/><path fill="#fff" d="M81.2817 87.7192C80.7192 88.519 79.8359 89.1431 78.6318 89.5913C77.4365 90.0396 76.0962 90.2637 74.6108 90.2637C73.1079 90.2637 71.772 89.9033 70.603 89.1826C69.4341 88.4619 68.5288 87.4424 67.8872 86.124C67.2456 84.8057 66.9204 83.2939 66.9116 81.5889V79.1631C66.9116 76.5 67.584 74.3994 68.9287 72.8613C70.2734 71.3145 72.0796 70.541 74.3472 70.541C76.3247 70.541 77.9155 71.0464 79.1196 72.0571C80.3237 73.0591 81.04 74.4434 81.2686 76.21H79.647C79.4097 74.8037 78.834 73.7402 77.9199 73.0195C77.0146 72.29 75.8281 71.9253 74.3604 71.9253C72.5674 71.9253 71.1479 72.5625 70.1021 73.8369C69.0562 75.1113 68.5332 76.9087 68.5332 79.229V81.4966C68.5332 82.9556 68.7793 84.2476 69.2715 85.3726C69.7725 86.4888 70.4844 87.3545 71.4072 87.9697C72.3389 88.585 73.4067 88.8926 74.6108 88.8926C76.0083 88.8926 77.208 88.6729 78.21 88.2334C78.8604 87.9434 79.3438 87.605 79.6602 87.2183V82.2612H74.5054V80.8901H81.2817V87.7192ZM87.8604 90H86.2388V70.8047H87.8604V90ZM98.8687 87.627L98.9741 88.0356L99.0928 87.627L105.131 70.8047H106.911L99.7651 90H98.2095L91.064 70.8047H92.8306L98.8687 87.627ZM120.345 80.7979H111.367V88.6289H121.689V90H109.745V70.8047H121.624V72.189H111.367V79.4268H120.345V80.7979ZM144.181 72.189H137.602V90H135.98V72.189H129.415V70.8047H144.181V72.189ZM161.517 90H159.882V80.7979H148.914V90H147.292V70.8047H148.914V79.4268H159.882V70.8047H161.517V90ZM177.008 80.7979H168.03V88.6289H178.353V90H166.408V70.8047H178.287V72.189H168.03V79.4268H177.008V80.7979ZM202.202 87.7192C201.639 88.519 200.756 89.1431 199.552 89.5913C198.356 90.0396 197.016 90.2637 195.531 90.2637C194.028 90.2637 192.692 89.9033 191.523 89.1826C190.354 88.4619 189.449 87.4424 188.807 86.124C188.166 84.8057 187.84 83.2939 187.832 81.5889V79.1631C187.832 76.5 188.504 74.3994 189.849 72.8613C191.193 71.3145 193 70.541 195.267 70.541C197.245 70.541 198.835 71.0464 200.04 72.0571C201.244 73.0591 201.96 74.4434 202.188 76.21H200.567C200.33 74.8037 199.754 73.7402 198.84 73.0195C197.935 72.29 196.748 71.9253 195.28 71.9253C193.487 71.9253 192.068 72.5625 191.022 73.8369C189.976 75.1113 189.453 76.9087 189.453 79.229V81.4966C189.453 82.9556 189.699 84.2476 190.191 85.3726C190.692 86.4888 191.404 87.3545 192.327 87.9697C193.259 88.585 194.327 88.8926 195.531 88.8926C196.928 88.8926 198.128 88.6729 199.13 88.2334C199.78 87.9434 200.264 87.605 200.58 87.2183V82.2612H195.425V80.8901H202.202V87.7192ZM208.78 90H207.159V70.8047H208.78V90ZM224.574 81.0352H215.623V90H214.001V70.8047H225.893V72.189H215.623V79.6509H224.574V81.0352ZM242.478 72.189H235.899V90H234.277V72.189H227.712V70.8047H242.478V72.189ZM265.812 81.4438C265.812 83.2104 265.505 84.7617 264.89 86.0977C264.283 87.4336 263.413 88.4619 262.279 89.1826C261.146 89.9033 259.836 90.2637 258.351 90.2637C256.109 90.2637 254.299 89.4639 252.919 87.8643C251.539 86.2559 250.849 84.0894 250.849 81.3647V79.3872C250.849 77.6382 251.157 76.0913 251.772 74.7466C252.396 73.3931 253.275 72.356 254.409 71.6353C255.542 70.9058 256.848 70.541 258.324 70.541C259.801 70.541 261.102 70.897 262.227 71.6089C263.36 72.3208 264.235 73.3271 264.85 74.6279C265.465 75.9287 265.786 77.436 265.812 79.1499V81.4438ZM264.191 79.3608C264.191 77.0493 263.668 75.2388 262.622 73.9292C261.576 72.6196 260.144 71.9648 258.324 71.9648C256.54 71.9648 255.116 72.624 254.053 73.9424C252.998 75.252 252.471 77.0845 252.471 79.4399V81.4438C252.471 83.7202 252.998 85.5264 254.053 86.8623C255.107 88.1895 256.54 88.853 258.351 88.853C260.188 88.853 261.62 88.1982 262.648 86.8887C263.677 85.5703 264.191 83.7378 264.191 81.3911V79.3608ZM280.473 81.0352H271.521V90H269.899V70.8047H281.791V72.189H271.521V79.6509H280.473V81.0352ZM293.287 88.6289H302.766V90H291.652V70.8047H293.287V88.6289ZM307.868 90H306.247V70.8047H307.868V90ZM323.662 81.0352H314.71V90H313.089V70.8047H324.98V72.189H314.71V79.6509H323.662V81.0352ZM338.876 80.7979H329.898V88.6289H340.221V90H328.276V70.8047H340.155V72.189H329.898V79.4268H338.876V80.7979Z"/><path fill="#fff" d="M66.4121 135V107.984H74.7246C77.0996 107.984 79.221 108.522 81.0889 109.599C82.9691 110.662 84.4349 112.184 85.4863 114.163C86.5378 116.13 87.0635 118.369 87.0635 120.88V122.123C87.0635 124.634 86.5439 126.867 85.5049 128.821C84.4782 130.776 83.0247 132.291 81.1445 133.367C79.2643 134.443 77.1429 134.988 74.7803 135H66.4121ZM71.9785 112.493V130.528H74.6689C76.846 130.528 78.5098 129.817 79.6602 128.395C80.8105 126.972 81.3981 124.937 81.4229 122.29V120.861C81.4229 118.115 80.8538 116.037 79.7158 114.627C78.5778 113.204 76.9141 112.493 74.7246 112.493H71.9785ZM113.318 122.104C113.318 124.764 112.848 127.096 111.908 129.1C110.968 131.104 109.62 132.65 107.863 133.738C106.119 134.827 104.115 135.371 101.852 135.371C99.6126 135.371 97.6149 134.833 95.8584 133.757C94.1019 132.681 92.7412 131.147 91.7764 129.155C90.8115 127.151 90.3229 124.851 90.3105 122.253V120.917C90.3105 118.257 90.7868 115.92 91.7393 113.903C92.7041 111.875 94.0586 110.322 95.8027 109.246C97.5592 108.158 99.5632 107.613 101.814 107.613C104.066 107.613 106.063 108.158 107.808 109.246C109.564 110.322 110.919 111.875 111.871 113.903C112.836 115.92 113.318 118.251 113.318 120.898V122.104ZM107.678 120.88C107.678 118.047 107.171 115.895 106.156 114.423C105.142 112.951 103.695 112.215 101.814 112.215C99.9466 112.215 98.5055 112.945 97.4912 114.404C96.4769 115.852 95.9635 117.979 95.9512 120.787V122.104C95.9512 124.863 96.4583 127.003 97.4727 128.524C98.487 130.046 99.9466 130.807 101.852 130.807C103.719 130.807 105.154 130.077 106.156 128.617C107.158 127.145 107.665 125.005 107.678 122.197V120.88ZM139.332 135H133.766L122.93 117.225V135H117.363V107.984H122.93L133.784 125.797V107.984H139.332V135ZM159.779 129.434H150.02L148.164 135H142.245L152.302 107.984H157.46L167.572 135H161.653L159.779 129.434ZM151.522 124.925H158.276L154.881 114.812L151.522 124.925ZM188.205 112.493H179.93V135H174.363V112.493H166.199V107.984H188.205V112.493ZM207.65 123.292H196.963V130.528H209.506V135H191.396V107.984H209.469V112.493H196.963V118.932H207.65V123.292Z"/><rect width="129" height="41" x="217" y="100" fill="#fff"/><path fill="#F88386" d="M223.479 135V107.984H232.942C236.22 107.984 238.707 108.615 240.401 109.877C242.096 111.126 242.943 112.963 242.943 115.388C242.943 116.711 242.603 117.88 241.923 118.895C241.243 119.896 240.296 120.632 239.084 121.103C240.469 121.449 241.558 122.148 242.35 123.199C243.154 124.251 243.556 125.537 243.556 127.059C243.556 129.656 242.727 131.623 241.069 132.959C239.412 134.295 237.049 134.975 233.981 135H223.479ZM229.046 123.236V130.528H233.814C235.126 130.528 236.146 130.219 236.876 129.601C237.618 128.97 237.989 128.104 237.989 127.003C237.989 124.529 236.709 123.273 234.148 123.236H229.046ZM229.046 119.303H233.165C235.973 119.253 237.377 118.134 237.377 115.944C237.377 114.72 237.018 113.841 236.301 113.31C235.596 112.765 234.476 112.493 232.942 112.493H229.046V119.303ZM253.315 130.528H265.135V135H247.749V107.984H253.315V130.528ZM289.349 122.104C289.349 124.764 288.879 127.096 287.938 129.1C286.998 131.104 285.65 132.65 283.894 133.738C282.149 134.827 280.146 135.371 277.882 135.371C275.643 135.371 273.645 134.833 271.889 133.757C270.132 132.681 268.771 131.147 267.807 129.155C266.842 127.151 266.353 124.851 266.341 122.253V120.917C266.341 118.257 266.817 115.92 267.77 113.903C268.734 111.875 270.089 110.322 271.833 109.246C273.59 108.158 275.593 107.613 277.845 107.613C280.096 107.613 282.094 108.158 283.838 109.246C285.594 110.322 286.949 111.875 287.901 113.903C288.866 115.92 289.349 118.251 289.349 120.898V122.104ZM283.708 120.88C283.708 118.047 283.201 115.895 282.187 114.423C281.172 112.951 279.725 112.215 277.845 112.215C275.977 112.215 274.536 112.945 273.521 114.404C272.507 115.852 271.994 117.979 271.981 120.787V122.104C271.981 124.863 272.489 127.003 273.503 128.524C274.517 130.046 275.977 130.807 277.882 130.807C279.75 130.807 281.185 130.077 282.187 128.617C283.188 127.145 283.696 125.005 283.708 122.197V120.88ZM315.585 122.104C315.585 124.764 315.115 127.096 314.175 129.1C313.235 131.104 311.886 132.65 310.13 133.738C308.386 134.827 306.382 135.371 304.118 135.371C301.879 135.371 299.882 134.833 298.125 133.757C296.368 132.681 295.008 131.147 294.043 129.155C293.078 127.151 292.59 124.851 292.577 122.253V120.917C292.577 118.257 293.053 115.92 294.006 113.903C294.971 111.875 296.325 110.322 298.069 109.246C299.826 108.158 301.83 107.613 304.081 107.613C306.332 107.613 308.33 108.158 310.074 109.246C311.831 110.322 313.185 111.875 314.138 113.903C315.103 115.92 315.585 118.251 315.585 120.898V122.104ZM309.944 120.88C309.944 118.047 309.437 115.895 308.423 114.423C307.409 112.951 305.961 112.215 304.081 112.215C302.213 112.215 300.772 112.945 299.758 114.404C298.743 115.852 298.23 117.979 298.218 120.787V122.104C298.218 124.863 298.725 127.003 299.739 128.524C300.754 130.046 302.213 130.807 304.118 130.807C305.986 130.807 307.421 130.077 308.423 128.617C309.425 127.145 309.932 125.005 309.944 122.197V120.88ZM319.63 135V107.984H327.942C330.317 107.984 332.439 108.522 334.307 109.599C336.187 110.662 337.653 112.184 338.704 114.163C339.756 116.13 340.281 118.369 340.281 120.88V122.123C340.281 124.634 339.762 126.867 338.723 128.821C337.696 130.776 336.243 132.291 334.362 133.367C332.482 134.443 330.361 134.988 327.998 135H319.63ZM325.196 112.493V130.528H327.887C330.064 130.528 331.728 129.817 332.878 128.395C334.028 126.972 334.616 124.937 334.641 122.29V120.861C334.641 118.115 334.072 116.037 332.934 114.627C331.796 113.204 330.132 112.493 327.942 112.493H325.196Z"/><defs><radialGradient id="paint0_radial_203_51" cx="0" cy="0" r="1" gradientTransform="translate(57.5 44) rotate(28.5707) scale(402.515 516.442)" gradientUnits="userSpaceOnUse"><stop stop-color="#F88386"/><stop offset="1" stop-color="#F88386" stop-opacity=".25"/></radialGradient></defs></svg>